SplineFontDB: 3.2
FontName: MonegoFix
FullName: Monego Fix
FamilyName: Monego Fix
Weight: Regular
Copyright: Anyone is free to copy, modify, publish, use, compile, sell, or distribute this software, either in source code form or as a compiled binary, for any purpose, commercial or non-commercial, and by any means.\nProgramming ligatures added by Ilya Skriblovsky from FiraCode\nFiraCode Copyright (c) 2015 by Nikita Prokopov
Version: 1.000
ItalicAngle: 0
UnderlinePosition: 1
UnderlineWidth: 155
Ascent: 1638
Descent: 410
InvalidEm: 0
sfntRevision: 0x00010000
LayerCount: 2
Layer: 0 0 "Back" 1
Layer: 1 0 "Fore" 0
XUID: [1021 860 -1587206583 13502371]
StyleMap: 0x0040
FSType: 4
OS2Version: 3
OS2_WeightWidthSlopeOnly: 0
OS2_UseTypoMetrics: 0
CreationTime: 1591915200
ModificationTime: 1704466511
PfmFamily: 17
TTFWeight: 400
TTFWidth: 5
LineGap: 171
VLineGap: 0
Panose: 2 0 0 0 0 0 0 0 0 0
OS2TypoAscent: 2048
OS2TypoAOffset: 0
OS2TypoDescent: -512
OS2TypoDOffset: 0
OS2TypoLinegap: 171
OS2WinAscent: 2504
OS2WinAOffset: 0
OS2WinDescent: 862
OS2WinDOffset: 0
HheadAscent: 2048
HheadAOffset: 0
HheadDescent: -512
HheadDOffset: 0
OS2SubXSize: 1331
OS2SubYSize: 1228
OS2SubXOff: 0
OS2SubYOff: 153
OS2SupXSize: 1331
OS2SupYSize: 1228
OS2SupXOff: 0
OS2SupYOff: 716
OS2StrikeYSize: 155
OS2StrikeYPos: 670
OS2CapHeight: 1552
OS2XHeight: 1117
OS2Vendor: 'pyrs'
OS2CodePages: 60000197.00000000
OS2UnicodeRanges: a000027f.00000003.00000000.00000000
MarkAttachClasses: 1
DEI: 91125
LangName: 1033 "" "" "" "" "" "Version 1.000" "" "Please refer to the Copyright section for the font trademark attribution notices." "" "" "" "" "" "http://unlicense.org"
Encoding: UnicodeBmp
UnicodeInterp: none
NameList: AGL For New Fonts
DisplaySize: -48
AntiAlias: 1
FitToEm: 0
WinInfo: 0 51 19
BeginPrivate: 8
BlueValues 27 [-47 0 1117 1148 1552 1599]
OtherBlues 11 [-466 -434]
BlueScale 9 0.0208333
BlueShift 1 5
StdHW 5 [155]
StdVW 5 [202]
StemSnapH 20 [93 112 124 155 171]
StemSnapV 16 [93 163 186 202]
EndPrivate

StartChar: .notdef
Encoding: 65536 -1 0
Width: 1229
GlyphClass: 1
Flags: W
LayerCount: 2
Fore
SplineSet
1023 1552 m 1
 1023 0 l 1
 293 0 l 1
 293 1552 l 1
 1023 1552 l 1
873 150 m 1
 873 1402 l 1
 443 1402 l 1
 443 150 l 1
 873 150 l 1
EndSplineSet
EndChar

StartChar: exclam
Encoding: 33 33 2
Width: 1229
GlyphClass: 2
Flags: W
LayerCount: 2
Fore
SplineSet
706.1875 1446 m 1
 688.629882812 477 l 1
 533.541992188 477 l 1
 513.05859375 1446 l 1
 706.1875 1446 l 1
612.548828125 257 m 0
 691.556640625 257 751.055664062 195 751.055664062 118 c 0
 751.055664062 39 691.556640625 -24 612.548828125 -24 c 0
 535.493164062 -24 475.993164062 39 475.993164062 118 c 0
 475.993164062 195 535.493164062 257 612.548828125 257 c 0
EndSplineSet
EndChar

StartChar: quotedbl
Encoding: 34 34 3
Width: 1229
GlyphClass: 2
Flags: MW
HStem: 1055 559<609 737 609 609 1041 1041 1041 1168>
VStem: 273 683
LayerCount: 2
Fore
SplineSet
794 1614 m 1
 737 1055 l 1
 609 1055 l 1
 545 1614 l 1
 794 1614 l 1
1228 1614 m 1
 1168 1055 l 1
 1041 1055 l 1
 984 1614 l 1
 1228 1614 l 1
EndSplineSet
EndChar

StartChar: numbersign
Encoding: 35 35 4
Width: 1229
GlyphClass: 2
Flags: W
LayerCount: 2
Fore
SplineSet
939.307617188 958 m 1
 878.833007812 493 l 1
 1044.65039062 493 l 1
 1044.65039062 356 l 1
 859.32421875 356 l 1
 816.407226562 0 l 1
 669.122070312 0 l 1
 714.965820312 356 l 1
 416.494140625 356 l 1
 371.625976562 0 l 1
 224.340820312 0 l 1
 270.184570312 356 l 1
 108.26953125 356 l 1
 108.26953125 493 l 1
 287.7421875 493 l 1
 350.166992188 958 l 1
 184.349609375 958 l 1
 184.349609375 1095 l 1
 367.724609375 1095 l 1
 412.592773438 1446 l 1
 559.877929688 1446 l 1
 511.108398438 1095 l 1
 812.505859375 1095 l 1
 857.374023438 1446 l 1
 1004.65917969 1446 l 1
 956.864257812 1095 l 1
 1120.73046875 1095 l 1
 1120.73046875 958 l 1
 939.307617188 958 l 1
434.051757812 493 m 1
 732.5234375 493 l 1
 794.948242188 958 l 1
 494.526367188 958 l 1
 434.051757812 493 l 1
EndSplineSet
EndChar

StartChar: dollar
Encoding: 36 36 5
Width: 1229
GlyphClass: 2
Flags: MW
HStem: -155 1862<740 880 740 880> 2 156<717.5 740> 1388 153<740 880>
VStem: 169 201 580 140 906 201
LayerCount: 2
Fore
SplineSet
880 -155 m 1x8c
 740 -155 l 1
 740 2 l 1
 695 2 649 4 601 9 c 0
 553 14 508 21 466 30 c 0
 424 40 376 57 321 82 c 1
 321 274 l 1
 454 205 568 170 740 158 c 1
 740 715 l 1
 633 773 l 2
 430 882 329 1013 329 1167 c 0
 329 1249 363 1329 430 1406 c 0
 497 1484 601 1529 740 1541 c 1
 740 1707 l 1
 880 1707 l 1
 880 1541 l 1
 959 1541 1052 1527 1159 1500 c 1
 1159 1327 l 1
 1124 1337 l 2
 1023 1365 942 1382 880 1388 c 1x7c
 880 844 l 1
 992 780 l 2
 1097 719 1169 660 1208 601 c 0
 1247 542 1267 480 1267 414 c 0
 1262 237 1140 57 880 15 c 1
 880 -155 l 1x8c
740 928 m 1
 740 1390 l 1
 605 1359 530 1285 530 1190 c 0
 530 1145 545 1102 576 1061 c 0
 607 1020 662 976 740 928 c 1
880 632 m 1
 880 172 l 1
 953 198 1002 230 1027 267 c 0
 1053 305 1066 347 1066 394 c 0
 1066 439 1053 478 1028 510 c 0
 1003 543 953 583 880 632 c 1
EndSplineSet
EndChar

StartChar: percent
Encoding: 37 37 6
Width: 1229
GlyphClass: 2
Flags: W
LayerCount: 2
Fore
SplineSet
1033.92089844 1485 m 1
 1144.140625 1412 l 1
 174.595703125 -42 l 1
 66.3271484375 32 l 1
 1033.92089844 1485 l 1
340.413085938 1469 m 0
 531.590820312 1469 639.860351562 1314 639.860351562 1133 c 0
 639.860351562 954 531.590820312 794 340.413085938 794 c 0
 149.235351562 794 38.0400390625 954 38.0400390625 1133 c 0
 38.0400390625 1315 149.235351562 1469 340.413085938 1469 c 0
340.413085938 1343 m 0
 259.455078125 1343 196.0546875 1276 196.0546875 1133 c 0
 196.0546875 996 256.529296875 918 340.413085938 918 c 0
 421.37109375 918 482.821289062 983 482.821289062 1133 c 0
 482.821289062 1284 421.37109375 1343 340.413085938 1343 c 0
893.463867188 664 m 0
 1084.64160156 664 1193.88574219 508 1193.88574219 327 c 0
 1193.88574219 148 1084.64160156 -13 893.463867188 -13 c 0
 702.286132812 -13 591.090820312 148 591.090820312 327 c 0
 591.090820312 509 702.286132812 664 893.463867188 664 c 0
893.463867188 537 m 0
 812.505859375 537 749.104492188 474 749.104492188 327 c 0
 749.104492188 190 809.579101562 111 893.463867188 111 c 0
 974.421875 111 1035.87109375 178 1035.87109375 327 c 0
 1035.87109375 478 974.421875 537 893.463867188 537 c 0
EndSplineSet
EndChar

StartChar: ampersand
Encoding: 38 38 7
Width: 1229
GlyphClass: 2
Flags: W
LayerCount: 2
Fore
SplineSet
571.583007812 1467 m 0
 693.506835938 1467 800.80078125 1438 913.947265625 1312 c 1
 810.5546875 1215 l 1
 741.301757812 1296 673.0234375 1335 569.631835938 1335 c 0
 425.2734375 1335 353.09375 1247 353.09375 1123 c 0
 353.09375 995 464.2890625 881 605.721679688 881 c 2
 1175.35351562 881 l 1
 1175.35351562 743 l 1
 991.978515625 743 l 1
 991.978515625 171 l 1
 931.50390625 89 804.702148438 -24 566.705078125 -24 c 0
 246.775390625 -24 109.244140625 193 109.244140625 409 c 0
 109.244140625 625 224.340820312 769 431.125 812 c 1
 431.125 818 l 1
 245.799804688 862 184.349609375 992 184.349609375 1122 c 0
 184.349609375 1308 332.610351562 1467 571.583007812 1467 c 0
834.939453125 743 m 1
 580.361328125 743 l 2
 367.724609375 743 278.963867188 564 278.963867188 415 c 0
 278.963867188 263 363.823242188 119 570.607421875 119 c 0
 685.704101562 119 779.341796875 159 834.939453125 230 c 1
 834.939453125 743 l 1
EndSplineSet
EndChar

StartChar: quoteright
Encoding: 39 39 8
Width: 1229
GlyphClass: 2
Flags: MW
HStem: 993 621<992 1126 992 992>
VStem: 444 341
LayerCount: 2
Fore
SplineSet
1228 1614 m 1
 1126 993 l 1
 992 993 l 1
 887 1614 l 1
 1228 1614 l 1
EndSplineSet
EndChar

StartChar: parenleft
Encoding: 40 40 9
Width: 1229
GlyphClass: 2
Flags: MW
HStem: -372 2017<1259 1259>
VStem: 188 202
LayerCount: 2
Fore
SplineSet
1259 -217 m 1
 1259 -372 l 1
 1074 -361 919 -308 792 -215 c 0
 665 -122 564 3 488 161 c 0
 413 319 375 477 375 636 c 0
 375 795 413 953 488 1111 c 0
 640 1427 890 1621 1259 1645 c 1
 1259 1489 l 1
 1120 1476 1000 1429 899 1348 c 0
 799 1267 720 1164 663 1039 c 0
 606 914 577 779 577 636 c 0
 577 493 606 358 663 233 c 0
 720 108 799 5 899 -76 c 0
 1000 -157 1120 -204 1259 -217 c 1
EndSplineSet
EndChar

StartChar: parenright
Encoding: 41 41 10
Width: 1229
GlyphClass: 2
Flags: MW
HStem: -372 2017<313 313>
VStem: 840 201
LayerCount: 2
Fore
SplineSet
313 1489 m 1
 313 1645 l 1
 498 1633 653 1580 780 1487 c 0
 907 1394 1008 1269 1083 1111 c 0
 1159 953 1197 795 1197 636 c 0
 1197 477 1159 319 1083 161 c 0
 1008 3 907 -122 780 -215 c 0
 653 -308 498 -361 313 -372 c 1
 313 -217 l 1
 452 -204 572 -157 672 -76 c 0
 773 5 852 108 909 233 c 0
 967 358 996 493 996 636 c 0
 996 779 967 914 909 1039 c 0
 852 1164 773 1267 672 1348 c 0
 572 1429 452 1476 313 1489 c 1
EndSplineSet
EndChar

StartChar: asterisk
Encoding: 42 42 11
Width: 1229
GlyphClass: 2
Flags: W
LayerCount: 2
Fore
SplineSet
527.689453125 1215 m 1
 541.345703125 790 l 1
 151.186523438 932 l 1
 99.490234375 766 l 1
 495.501953125 646 l 1
 242.874023438 310 l 1
 380.404296875 207 l 1
 614.5 558 l 1
 849.5703125 207 l 1
 986.125976562 310 l 1
 733.498046875 646 l 1
 1129.50976562 766 l 1
 1077.81347656 932 l 1
 688.629882812 790 l 1
 701.310546875 1215 l 1
 527.689453125 1215 l 1
EndSplineSet
EndChar

StartChar: plus
Encoding: 43 43 12
Width: 1229
GlyphClass: 2
Flags: W
LayerCount: 2
Fore
SplineSet
692.532226562 1146 m 1
 692.532226562 727 l 1
 1095.37109375 727 l 1
 1095.37109375 579 l 1
 692.532226562 579 l 1
 692.532226562 163 l 1
 531.590820312 163 l 1
 531.590820312 579 l 1
 134.604492188 579 l 1
 134.604492188 727 l 1
 531.590820312 727 l 1
 531.590820312 1146 l 1
 692.532226562 1146 l 1
EndSplineSet
EndChar

StartChar: comma
Encoding: 44 44 13
Width: 1229
GlyphClass: 2
Flags: MW
HStem: -434 21G<847 847> -34 21G<1008 1039>
VStem: 616 188
LayerCount: 2
Fore
SplineSet
847 -434 m 1
 847 -310 l 1
 895 -297 931 -279 956 -255 c 0
 1007 -208 1039 -137 1039 -34 c 1
 977 -34 931 -17 902 18 c 0
 873 53 858 91 858 131 c 0
 858 177 874 216 907 247 c 0
 940 279 978 295 1021 295 c 0
 1077 295 1125 271 1166 222 c 0
 1207 174 1227 108 1227 24 c 0
 1224 -190 1080 -405 847 -434 c 1
EndSplineSet
EndChar

StartChar: hyphen
Encoding: 45 45 14
Width: 1229
GlyphClass: 2
Flags: W
LayerCount: 2
Fore
SplineSet
203.858398438 581 m 1
 203.858398438 734 l 1
 1025.14160156 734 l 1
 1025.14160156 581 l 1
 203.858398438 581 l 1
EndSplineSet
EndChar

StartChar: period
Encoding: 46 46 15
Width: 1229
GlyphClass: 2
Flags: W
LayerCount: 2
Fore
SplineSet
433.076171875 162 m 0
 433.076171875 264 511.108398438 346 612.548828125 346 c 0
 715.94140625 346 793.97265625 264 793.97265625 162 c 0
 793.97265625 58 715.94140625 -24 612.548828125 -24 c 0
 511.108398438 -24 433.076171875 58 433.076171875 162 c 0
EndSplineSet
EndChar

StartChar: slash
Encoding: 47 47 16
Width: 1229
GlyphClass: 2
Flags: W
LayerCount: 2
Fore
SplineSet
246.775390625 -216 m 1
 107.293945312 -153 l 1
 984.17578125 1700 l 1
 1121.70605469 1631 l 1
 246.775390625 -216 l 1
EndSplineSet
EndChar

StartChar: zero
Encoding: 48 48 17
Width: 1229
GlyphClass: 2
Flags: MW
HStem: -47 155<630 739.5 630 772.5> 1443 155<628.5 705.5>
VStem: 71 202 956 201
LayerCount: 2
Fore
SplineSet
684 1598 m 0
 861 1598 995 1524 1088 1375 c 0
 1181 1227 1227 1027 1227 776 c 0
 1227 524 1181 324 1088 175 c 0
 995 27 861 -47 684 -47 c 0
 508 -47 373 27 280 175 c 0
 187 324 141 524 141 776 c 0
 141 1027 187 1227 280 1375 c 0
 373 1524 508 1598 684 1598 c 0
381 444 m 1
 918 1285 l 1
 884 1347 847 1389 807 1410 c 0
 768 1432 727 1443 684 1443 c 0
 573 1443 488 1381 430 1257 c 0
 372 1134 343 977 343 787 c 0
 343 744 344 697 347 647 c 0
 350 597 361 529 381 444 c 1
985 1100 m 1
 452 254 l 1
 509 157 584 108 676 108 c 0
 803 108 893 179 946 320 c 0
 999 462 1026 619 1026 792 c 0
 1026 899 1012 1001 985 1100 c 1
EndSplineSet
EndChar

StartChar: one
Encoding: 49 49 18
Width: 1229
GlyphClass: 2
Flags: MW
HStem: 0 155<375 755 941 1314 375 755> 1532 20G<755 941 941 941>
VStem: 568 186
LayerCount: 2
Fore
SplineSet
375 155 m 1
 755 155 l 1
 755 1353 l 1
 699 1308 645 1270 592 1239 c 0
 539 1208 467 1176 375 1143 c 1
 375 1311 l 1
 521 1373 648 1453 755 1552 c 1
 941 1552 l 1
 941 155 l 1
 1314 155 l 1
 1314 0 l 1
 375 0 l 1
 375 155 l 1
EndSplineSet
EndChar

StartChar: two
Encoding: 50 50 19
Width: 1229
GlyphClass: 2
Flags: MW
HStem: 0 171<490 1236 297 297> 1443 155<761.5 784.5>
VStem: 149 193 863 201
LayerCount: 2
Fore
SplineSet
1236 171 m 1
 1236 0 l 1
 297 0 l 1
 297 171 l 2
 297 215 306 262 324 312 c 0
 342 363 376 419 427 482 c 0
 478 545 531 605 588 663 c 2
 694 771 l 2
 715 793 762 844 834 924 c 0
 906 1004 953 1065 976 1108 c 0
 999 1151 1011 1193 1011 1234 c 0
 1011 1301 984 1352 931 1388 c 0
 878 1425 818 1443 751 1443 c 0
 713 1443 670 1439 623 1430 c 0
 576 1421 535 1411 500 1399 c 0
 465 1388 407 1364 328 1328 c 1
 328 1493 l 1
 412 1533 496 1560 580 1575 c 0
 665 1590 734 1598 789 1598 c 0
 870 1598 944 1585 1011 1558 c 0
 1079 1532 1129 1491 1162 1436 c 0
 1195 1381 1212 1322 1212 1259 c 0
 1212 1189 1191 1117 1148 1044 c 0
 1106 971 1026 876 909 761 c 2
 795 648 l 1
 699 554 l 2
 638 493 589 433 552 376 c 0
 515 319 494 250 490 171 c 1
 1236 171 l 1
EndSplineSet
EndChar

StartChar: three
Encoding: 51 51 20
Width: 1229
GlyphClass: 2
Flags: MW
HStem: -47 155<639.5 737.5 630 749.5> 776 155<452 555 452 595> 1443 155<620 724>
VStem: 820 202 897 202
LayerCount: 2
Fore
SplineSet
289 28 m 1xe8
 289 224 l 1
 442 147 574 108 686 108 c 0
 789 108 873 139 940 201 c 0
 1007 264 1041 344 1041 442 c 0xe8
 1041 541 1004 621 930 683 c 0
 857 745 732 776 555 776 c 2
 452 776 l 1
 452 931 l 1
 595 931 l 2
 725 931 819 960 877 1018 c 0
 935 1077 964 1142 964 1213 c 0
 964 1278 940 1332 893 1376 c 0
 846 1421 773 1443 675 1443 c 0
 565 1443 447 1412 320 1350 c 1
 320 1527 l 1
 447 1574 563 1598 668 1598 c 0
 857 1598 987 1561 1058 1486 c 0
 1130 1412 1166 1327 1166 1232 c 0
 1166 1161 1147 1095 1109 1033 c 0xf0
 1071 971 1001 916 899 867 c 1
 989 840 1057 808 1103 769 c 0
 1195 692 1243 586 1243 455 c 0
 1243 310 1189 190 1081 95 c 0
 974 0 835 -47 664 -47 c 0
 615 -47 561 -43 502 -36 c 0
 444 -29 373 -7 289 28 c 1xe8
EndSplineSet
EndChar

StartChar: four
Encoding: 52 52 21
Width: 1229
GlyphClass: 2
Flags: MW
HStem: 0 21G<754 941 754 754> 434 156<293 754 95 95 941 1228> 1532 20G<754 941 941 941>
VStem: 707 187
LayerCount: 2
Fore
SplineSet
941 0 m 1
 754 0 l 1
 754 434 l 1
 95 434 l 1
 95 590 l 1
 754 1552 l 1
 941 1552 l 1
 941 590 l 1
 1228 590 l 1
 1228 434 l 1
 941 434 l 1
 941 0 l 1
293 590 m 1
 754 590 l 1
 754 1270 l 1
 293 590 l 1
EndSplineSet
EndChar

StartChar: five
Encoding: 53 53 22
Width: 1229
GlyphClass: 2
Flags: MW
HStem: -47 171<667.5 726.5 667.5 747> 807 186<344 562> 1373 179<530 1213 530 530>
VStem: 188 186 894 209
LayerCount: 2
Fore
SplineSet
465 807 m 2
 344 807 l 1
 344 1552 l 1
 1213 1552 l 1
 1213 1373 l 1
 530 1373 l 1
 530 993 l 1
 562 993 l 2
 785 993 957 946 1078 853 c 0
 1199 760 1259 634 1259 476 c 0
 1259 376 1235 286 1186 207 c 0
 1137 128 1069 65 980 20 c 0
 891 -25 797 -47 697 -47 c 0
 597 -47 469 -23 313 26 c 1
 313 229 l 1
 370 198 433 173 503 153 c 0
 573 134 638 124 697 124 c 0
 756 124 814 138 871 167 c 0
 928 196 972 237 1003 292 c 0
 1034 347 1050 404 1050 461 c 0
 1050 558 1007 639 921 706 c 0
 836 773 684 807 465 807 c 2
EndSplineSet
EndChar

StartChar: six
Encoding: 54 54 23
Width: 1229
GlyphClass: 2
Flags: MW
HStem: -47 155<720 783 720 821> 815 155<763.5 834.5> 1443 155<759.5 878> 1532 20G<1142 1142>
VStem: 102 190 971 186
LayerCount: 2
Fore
SplineSet
393 768 m 2xec
 393 728 l 1
 441 799 500 857 571 902 c 0
 642 947 721 970 806 970 c 0
 887 970 963 950 1035 911 c 0
 1180 832 1258 688 1258 501 c 0
 1258 354 1211 225 1116 116 c 0
 1022 7 898 -47 744 -47 c 0
 563 -47 427 29 337 180 c 0
 248 332 203 525 203 759 c 0
 203 1018 260 1222 374 1372 c 0
 488 1523 642 1598 837 1598 c 0xec
 942 1598 1043 1583 1142 1552 c 1xdc
 1142 1364 l 1
 1031 1417 927 1443 829 1443 c 0
 690 1443 583 1379 507 1252 c 0
 431 1125 393 963 393 768 c 2xec
758 108 m 0
 808 108 858 123 909 152 c 0
 960 182 999 228 1028 289 c 0
 1057 351 1072 418 1072 491 c 0
 1072 586 1047 663 998 724 c 0
 949 785 880 815 789 815 c 0
 695 815 618 780 557 709 c 0
 497 639 467 554 467 453 c 0
 467 352 496 269 555 204 c 0
 614 140 682 108 758 108 c 0
EndSplineSet
EndChar

StartChar: seven
Encoding: 55 55 24
Width: 1229
GlyphClass: 2
Flags: MW
HStem: 0 21G<482 684 482 482> 1365 187<327 1132 327 1312>
VStem: 319 202
LayerCount: 2
Fore
SplineSet
684 0 m 1
 482 0 l 1
 482 139 l 2
 482 248 494 339 519 413 c 0
 544 487 587 569 649 660 c 0
 711 751 761 821 798 870 c 2
 960 1084 l 1
 1018 1159 l 2
 1062 1218 1100 1287 1132 1365 c 1
 327 1365 l 1
 327 1552 l 1
 1312 1552 l 1
 1312 1428 l 2
 1312 1379 1302 1333 1282 1291 c 0
 1263 1249 1203 1159 1104 1022 c 0
 1080 989 1056 957 1033 924 c 2
 929 778 l 2
 862 684 813 609 781 553 c 0
 749 497 725 439 708 378 c 0
 692 317 684 238 684 139 c 2
 684 0 l 1
EndSplineSet
EndChar

StartChar: eight
Encoding: 56 56 25
Width: 1229
GlyphClass: 2
Flags: MW
HStem: -47 156<720.5 796.5 720.5 835.5> 1443 155<720.5 792.5>
VStem: 133 202 218 179 862 187 909 201
LayerCount: 2
Fore
SplineSet
591 837 m 1xe4
 557 862 l 2
 510 895 463 944 418 1009 c 0
 373 1074 350 1146 350 1224 c 0
 350 1327 391 1415 472 1488 c 0
 553 1561 657 1598 782 1598 c 0
 859 1598 928 1584 989 1556 c 0
 1050 1529 1098 1488 1131 1434 c 0
 1164 1380 1181 1321 1181 1257 c 0
 1181 1213 1173 1170 1158 1129 c 0
 1143 1088 1120 1048 1089 1007 c 0xd8
 1059 967 999 910 909 837 c 1
 993 770 l 2
 1091 690 1157 621 1191 563 c 0
 1225 505 1242 440 1242 368 c 0
 1242 256 1201 159 1120 76 c 0
 1039 -6 917 -47 754 -47 c 0
 591 -47 468 -9 387 68 c 0
 306 145 265 241 265 355 c 0
 265 525 374 686 591 837 c 1xe4
735 966 m 2
 782 932 l 1
 876 1003 935 1063 958 1111 c 0
 982 1159 994 1204 994 1245 c 0
 994 1295 972 1340 928 1381 c 0
 884 1422 827 1443 758 1443 c 0
 683 1443 626 1421 587 1376 c 0
 548 1331 529 1285 529 1237 c 0
 529 1190 545 1146 578 1105 c 0
 611 1064 663 1017 735 966 c 2
791 691 m 2
 731 738 l 1
 555 603 467 476 467 358 c 0
 467 288 496 229 554 181 c 0
 612 133 681 109 760 109 c 0
 833 109 898 132 955 178 c 0
 1012 224 1041 281 1041 350 c 0xe4
 1041 417 1006 486 936 555 c 0
 867 624 818 670 791 691 c 2
EndSplineSet
EndChar

StartChar: nine
Encoding: 57 57 26
Width: 1229
GlyphClass: 2
Flags: MW
HStem: -47 156<521 639.5 521 659.5> 0 21G<257 257> 582 155<564.5 635.5> 1443 155<616 679>
VStem: 71 186 936 190
LayerCount: 2
Fore
SplineSet
1006 784 m 2xbc
 1006 824 l 1
 958 753 898 694 827 649 c 0
 756 604 678 582 593 582 c 0
 512 582 436 601 363 640 c 0
 219 719 141 864 141 1051 c 0
 141 1198 188 1325 282 1434 c 0
 377 1543 501 1598 655 1598 c 0
 836 1598 972 1522 1061 1370 c 0
 1151 1219 1196 1026 1196 792 c 0
 1196 533 1139 329 1025 178 c 0
 911 28 757 -47 562 -47 c 0xbc
 457 -47 356 -31 257 0 c 1x7c
 257 187 l 1
 368 135 472 109 570 109 c 0
 709 109 816 173 892 300 c 0
 968 427 1006 589 1006 784 c 2xbc
641 1443 m 0
 591 1443 541 1428 490 1398 c 0
 439 1369 399 1323 370 1262 c 0
 341 1201 327 1133 327 1060 c 0
 327 966 351 889 400 828 c 0
 449 767 519 737 610 737 c 0
 704 737 781 772 841 842 c 0
 902 913 932 998 932 1098 c 0
 932 1199 902 1282 843 1346 c 0
 784 1411 717 1443 641 1443 c 0
EndSplineSet
EndChar

StartChar: colon
Encoding: 58 58 27
Width: 1229
GlyphClass: 2
Flags: W
LayerCount: 2
Fore
SplineSet
447.70703125 904 m 0
 447.70703125 999 518.911132812 1073 612.548828125 1073 c 0
 708.137695312 1073 779.341796875 999 779.341796875 904 c 0
 779.341796875 811 708.137695312 733 612.548828125 733 c 0
 518.911132812 733 447.70703125 811 447.70703125 904 c 0
447.70703125 147 m 0
 447.70703125 238 518.911132812 316 612.548828125 316 c 0
 708.137695312 316 779.341796875 238 779.341796875 147 c 0
 779.341796875 51 708.137695312 -24 612.548828125 -24 c 0
 518.911132812 -24 447.70703125 51 447.70703125 147 c 0
EndSplineSet
EndChar

StartChar: semicolon
Encoding: 59 59 28
Width: 1229
GlyphClass: 2
Flags: W
LayerCount: 2
Fore
SplineSet
612.548828125 1073 m 0
 708.137695312 1073 779.341796875 999 779.341796875 904 c 0
 779.341796875 811 708.137695312 733 612.548828125 733 c 0
 518.911132812 733 447.70703125 811 447.70703125 904 c 0
 447.70703125 999 518.911132812 1073 612.548828125 1073 c 0
612.548828125 348 m 0
 708.137695312 348 779.341796875 272 779.341796875 180 c 0
 779.341796875 127 769.587890625 79 738.375 13 c 2
 572.557617188 -378 l 1
 416.494140625 -378 l 1
 515.009765625 39 l 1
 473.067382812 68 447.70703125 122 447.70703125 179 c 0
 447.70703125 272 518.911132812 348 612.548828125 348 c 0
EndSplineSet
EndChar

StartChar: less
Encoding: 60 60 29
Width: 1229
GlyphClass: 2
Flags: W
LayerCount: 2
Fore
SplineSet
967.59375 1248 m 1
 1051.47753906 1112 l 1
 327.733398438 657 l 1
 1051.47753906 198 l 1
 958.815429688 69 l 1
 180.448242188 568 l 1
 180.448242188 749 l 1
 967.59375 1248 l 1
EndSplineSet
EndChar

StartChar: equal
Encoding: 61 61 30
Width: 1229
GlyphClass: 2
Flags: W
LayerCount: 2
Fore
SplineSet
1013.4375 928 m 1
 1013.4375 776 l 1
 216.538085938 776 l 1
 216.538085938 928 l 1
 1013.4375 928 l 1
1013.4375 530 m 1
 1013.4375 377 l 1
 216.538085938 377 l 1
 216.538085938 530 l 1
 1013.4375 530 l 1
EndSplineSet
EndChar

StartChar: greater
Encoding: 62 62 31
Width: 1229
GlyphClass: 2
Flags: W
LayerCount: 2
Fore
SplineSet
263.357421875 1248 m 1
 1051.47753906 749 l 1
 1051.47753906 568 l 1
 273.111328125 69 l 1
 180.448242188 200 l 1
 903.217773438 657 l 1
 180.448242188 1114 l 1
 263.357421875 1248 l 1
EndSplineSet
EndChar

StartChar: question
Encoding: 63 63 32
Width: 1229
GlyphClass: 2
Flags: W
LayerCount: 2
Fore
SplineSet
613.524414062 1469 m 0
 865.176757812 1469 1017.33886719 1312 1017.33886719 1146 c 0
 1017.33886719 810 648.638671875 840 648.638671875 549 c 2
 648.638671875 477 l 1
 475.018554688 477 l 1
 475.018554688 560 l 2
 475.018554688 900 838.840820312 905 838.840820312 1135 c 0
 838.840820312 1255 734.473632812 1322 595.967773438 1322 c 0
 498.427734375 1322 391.133789062 1276 306.274414062 1169 c 1
 183.375 1261 l 1
 302.373046875 1405 448.682617188 1469 613.524414062 1469 c 0
566.705078125 257 m 0
 646.688476562 257 706.1875 195 706.1875 118 c 0
 706.1875 39 646.688476562 -24 566.705078125 -24 c 0
 489.649414062 -24 431.125 39 431.125 118 c 0
 431.125 195 489.649414062 257 566.705078125 257 c 0
EndSplineSet
EndChar

StartChar: at
Encoding: 64 64 33
Width: 1229
GlyphClass: 2
Flags: MW
HStem: -47 117<583.5 659> 434 140<931 947 931 975.5> 434 156<458 504> 1078 132<638.5 869 678 714> 1482 116<566.5 656.5>
VStem: 2 124 231 163 712 155 1104 124
LayerCount: 2
Fore
SplineSet
923 200 m 1xdf80
 923 43 l 1
 867 6 817 -18 774 -29 c 0
 731 -41 684 -47 634 -47 c 0
 495 -47 382 -13 293 54 c 0
 117 190 4 432 4 781 c 0
 4 1024 60 1220 171 1371 c 0
 282 1522 433 1598 622 1598 c 0
 809 1598 957 1531 1066 1398 c 0
 1175 1265 1230 1089 1230 872 c 0
 1230 776 1216 697 1188 635 c 0
 1132 512 1041 434 910 434 c 0
 859 434 818 445 786 467 c 0xdf80
 754 490 730 541 714 622 c 1
 695 579 667 536 628 495 c 0
 589 454 537 434 471 434 c 0
 402 434 345 465 300 527 c 0xbf80
 255 590 233 666 233 757 c 0
 233 868 265 972 329 1067 c 0
 394 1162 510 1210 678 1210 c 2
 869 1210 l 1
 869 772 l 2
 869 714 871 673 875 648 c 0
 884 600 915 574 947 574 c 0
 1028 569 1112 705 1106 866 c 1
 1106 977 1086 1085 1045 1190 c 0
 1004 1295 944 1370 864 1415 c 0
 784 1460 700 1482 613 1482 c 0
 520 1482 439 1454 368 1398 c 0
 298 1343 240 1259 195 1148 c 0
 150 1037 128 914 128 779 c 0
 128 644 150 518 195 403 c 0
 240 288 300 203 376 150 c 0
 452 97 537 70 630 70 c 0
 736 70 834 113 923 200 c 1xdf80
714 809 m 1
 714 1078 l 1
 678 1078 l 2
 599 1078 543 1066 508 1041 c 0
 473 1016 446 978 426 925 c 0
 406 872 396 814 396 751 c 0
 396 648 430 590 486 590 c 0
 525 590 565 613 606 658 c 0xbf80
 647 704 683 754 714 809 c 1
EndSplineSet
EndChar

StartChar: A
Encoding: 65 65 34
Width: 1229
GlyphClass: 2
Flags: MW
HStem: 0 21G<65 259 65 65 1016 1016 1016 1229> 341 155<364 865 412 865 412 910> 1532 20G<543 748 748 748>
VStem: 33 1164
LayerCount: 2
Fore
SplineSet
364 341 m 1
 259 0 l 1
 65 0 l 1
 543 1552 l 1
 748 1552 l 1
 1229 0 l 1
 1016 0 l 1
 910 341 l 1
 364 341 l 1
595 1085 m 1
 412 496 l 1
 865 496 l 1
 678 1085 l 1
 634 1241 l 1
 595 1085 l 1
EndSplineSet
EndChar

StartChar: B
Encoding: 66 66 35
Width: 1229
GlyphClass: 2
Flags: MW
HStem: 0 155<545 720> 698 155<545 757 545 601> 1396 156<545 545 545 646 646 686>
VStem: 172 202 831 194 878 202
LayerCount: 2
Fore
SplineSet
720 0 m 2xf4
 343 0 l 1
 343 1552 l 1
 646 1552 l 2
 828 1552 950 1538 1011 1510 c 0
 1135 1455 1196 1342 1196 1203 c 0
 1196 1148 1187 1096 1169 1047 c 0xf8
 1133 950 1070 871 935 799 c 1
 1058 750 1142 689 1185 617 c 0
 1229 545 1251 473 1251 401 c 0
 1251 332 1232 266 1195 201 c 0
 1158 136 1107 87 1040 52 c 0
 973 17 867 0 720 0 c 2xf4
545 1396 m 1
 545 853 l 1
 757 853 l 1
 826 882 876 912 907 943 c 0
 971 1007 1002 1085 1002 1178 c 0
 1002 1251 980 1306 937 1342 c 0
 894 1378 811 1396 686 1396 c 2
 545 1396 l 1
545 698 m 1
 545 155 l 1
 736 155 l 2
 843 155 921 180 972 230 c 0
 1023 281 1049 341 1049 412 c 0
 1049 464 1035 512 1007 555 c 0xf4
 979 599 936 634 877 659 c 0
 818 685 726 698 601 698 c 2
 545 698 l 1
EndSplineSet
EndChar

StartChar: C
Encoding: 67 67 36
Width: 1229
GlyphClass: 2
Flags: MW
HStem: -47 155<832.5 937.5 805.5 939> 1443 156<845 938>
VStem: 118 209
LayerCount: 2
Fore
SplineSet
1205 201 m 1
 1205 18 l 1
 1089 -25 985 -47 893 -47 c 0
 772 -47 660 -15 558 50 c 0
 456 115 377 212 320 340 c 0
 263 469 235 614 235 776 c 0
 235 937 263 1081 319 1209 c 0
 375 1337 454 1434 556 1500 c 0
 658 1566 770 1599 893 1599 c 0
 985 1599 1089 1577 1205 1534 c 1
 1205 1350 l 1
 1098 1412 991 1443 885 1443 c 0
 805 1443 732 1416 665 1361 c 0
 599 1306 546 1226 505 1120 c 0
 464 1015 444 900 444 776 c 0
 444 650 465 534 507 427 c 0
 591 214 726 108 885 108 c 0
 990 108 1097 139 1205 201 c 1
EndSplineSet
EndChar

StartChar: D
Encoding: 68 68 37
Width: 1229
GlyphClass: 2
Flags: MW
HStem: 0 171<511 646 646 677> 1396 156<511 511 511 662>
VStem: 155 202 947 201
LayerCount: 2
Fore
SplineSet
677 0 m 2
 309 0 l 1
 309 1552 l 1
 677 1552 l 2
 846 1552 972 1522 1054 1463 c 0
 1137 1404 1199 1315 1240 1196 c 0
 1281 1077 1302 935 1302 772 c 0
 1302 617 1280 481 1236 364 c 0
 1193 247 1131 157 1051 94 c 0
 971 31 846 0 677 0 c 2
511 1396 m 1
 511 171 l 1
 646 171 l 2
 783 171 880 195 938 244 c 0
 997 293 1038 360 1063 446 c 0
 1088 533 1101 652 1101 804 c 0
 1101 953 1086 1067 1057 1147 c 0
 1028 1227 986 1288 931 1331 c 0
 876 1374 787 1396 662 1396 c 2
 511 1396 l 1
EndSplineSet
EndChar

StartChar: E
Encoding: 69 69 38
Width: 1229
GlyphClass: 2
Flags: MW
HStem: 0 171<607 1243 607 1243> 714 155<607 1165 607 1165> 1396 156<607 1227 607 607>
VStem: 203 202
LayerCount: 2
Fore
SplineSet
607 171 m 1
 1243 171 l 1
 1243 0 l 1
 405 0 l 1
 405 1552 l 1
 1227 1552 l 1
 1227 1396 l 1
 607 1396 l 1
 607 869 l 1
 1165 869 l 1
 1165 714 l 1
 607 714 l 1
 607 171 l 1
EndSplineSet
EndChar

StartChar: F
Encoding: 70 70 39
Width: 1229
GlyphClass: 2
Flags: MW
HStem: 0 21G<453 655 453 453> 714 155<655 1244 655 1244> 1396 156<655 1306 655 655>
VStem: 227 202
LayerCount: 2
Fore
SplineSet
655 0 m 1
 453 0 l 1
 453 1552 l 1
 1306 1552 l 1
 1306 1396 l 1
 655 1396 l 1
 655 869 l 1
 1244 869 l 1
 1244 714 l 1
 655 714 l 1
 655 0 l 1
EndSplineSet
EndChar

StartChar: G
Encoding: 71 71 40
Width: 1229
GlyphClass: 2
Flags: MW
HStem: -47 155<839.5 932.5 839.5 949.5> 613 155<848 1003 848 1205> 1443 156<844 937>
VStem: 118 209 886 202
LayerCount: 2
Fore
SplineSet
1205 768 m 1
 1205 1 l 1
 1096 -31 995 -47 904 -47 c 0
 775 -47 659 -15 558 49 c 0
 457 113 378 209 321 338 c 0
 264 467 235 613 235 776 c 0
 235 937 263 1081 319 1209 c 0
 375 1337 454 1434 556 1500 c 0
 658 1566 770 1599 892 1599 c 0
 984 1599 1088 1577 1204 1534 c 1
 1204 1350 l 1
 1097 1412 990 1443 884 1443 c 0
 804 1443 731 1416 664 1361 c 0
 598 1306 545 1226 504 1120 c 0
 464 1015 444 899 444 774 c 0
 444 606 482 453 559 315 c 0
 636 177 757 108 922 108 c 0
 943 108 970 110 1003 113 c 1
 1003 613 l 1
 848 613 l 1
 848 768 l 1
 1205 768 l 1
EndSplineSet
EndChar

StartChar: H
Encoding: 72 72 41
Width: 1229
GlyphClass: 2
Flags: MW
HStem: 0 21G<251 453 251 251 1027 1027 1027 1228> 729 155<453 1027 453 1027> 1532 20G<251 453 453 453 1027 1228 1228 1228>
VStem: 126 202 902 201
LayerCount: 2
Fore
SplineSet
453 0 m 1
 251 0 l 1
 251 1552 l 1
 453 1552 l 1
 453 884 l 1
 1027 884 l 1
 1027 1552 l 1
 1228 1552 l 1
 1228 0 l 1
 1027 0 l 1
 1027 729 l 1
 453 729 l 1
 453 0 l 1
EndSplineSet
EndChar

StartChar: I
Encoding: 73 73 42
Width: 1229
GlyphClass: 2
Flags: MW
HStem: 0 155<343 684 886 1227 343 684> 1396 156<343 684 343 1227 886 886 886 1227>
VStem: 513 202
LayerCount: 2
Fore
SplineSet
1227 0 m 1
 343 0 l 1
 343 155 l 1
 684 155 l 1
 684 1396 l 1
 343 1396 l 1
 343 1552 l 1
 1227 1552 l 1
 1227 1396 l 1
 886 1396 l 1
 886 155 l 1
 1227 155 l 1
 1227 0 l 1
EndSplineSet
EndChar

StartChar: J
Encoding: 74 74 43
Width: 1229
GlyphClass: 2
Flags: MW
HStem: -47 156<535 609.5 535 695> 1396 156<514 863 514 1065>
VStem: 754 202
LayerCount: 2
Fore
SplineSet
219 34 m 1
 219 224 l 1
 364 147 486 109 584 109 c 0
 635 109 682 119 724 139 c 0
 767 159 800 192 825 239 c 0
 850 286 863 387 863 541 c 2
 863 1396 l 1
 514 1396 l 1
 514 1552 l 1
 1065 1552 l 1
 1065 536 l 2
 1065 371 1046 252 1008 179 c 0
 933 34 801 -47 589 -47 c 0
 470 -47 347 -20 219 34 c 1
EndSplineSet
EndChar

StartChar: K
Encoding: 75 75 44
Width: 1229
GlyphClass: 2
Flags: MW
HStem: 0 21G<313 515 313 313 1131 1131 1131 1384> 1532 20G<313 515 515 515 1092 1306 1306 1306>
VStem: 157 202
LayerCount: 2
Fore
SplineSet
515 0 m 1
 313 0 l 1
 313 1552 l 1
 515 1552 l 1
 515 791 l 1
 1092 1552 l 1
 1306 1552 l 1
 749 815 l 1
 1384 0 l 1
 1131 0 l 1
 515 791 l 1
 515 0 l 1
EndSplineSet
EndChar

StartChar: L
Encoding: 76 76 45
Width: 1229
GlyphClass: 2
Flags: MW
HStem: 0 171<639 1275 639 1275> 1532 20G<437 639 639 639>
VStem: 219 202
LayerCount: 2
Fore
SplineSet
639 171 m 1
 1275 171 l 1
 1275 0 l 1
 437 0 l 1
 437 1552 l 1
 639 1552 l 1
 639 171 l 1
EndSplineSet
EndChar

StartChar: M
Encoding: 77 77 46
Width: 1229
GlyphClass: 2
Flags: MW
HStem: 0 21G<111 274 111 111 1042 1042 1042 1228> 1105 20G<269 274 269 269 1042 1047 1042 1042> 1532 20G<111 314 314 314 1030 1228 1228 1228>
VStem: 56 163 987 186
LayerCount: 2
Fore
SplineSet
274 989 m 1
 274 0 l 1
 111 0 l 1
 111 1552 l 1
 314 1552 l 1
 672 530 l 1
 1030 1552 l 1
 1228 1552 l 1
 1228 0 l 1
 1042 0 l 1
 1042 989 l 1
 1047 1125 l 1
 1042 1125 l 1
 998 989 l 1
 758 310 l 1
 556 310 l 1
 313 989 l 1
 274 1125 l 1
 269 1125 l 1
 274 989 l 1
EndSplineSet
EndChar

StartChar: N
Encoding: 78 78 47
Width: 1229
GlyphClass: 2
Flags: MW
HStem: 0 21G<251 437 251 251 1042 1042 1042 1228> 1532 20G<251 433 433 433 1042 1228 1228 1228>
VStem: 126 186 917 186
LayerCount: 2
Fore
SplineSet
437 1018 m 1
 437 0 l 1
 251 0 l 1
 251 1552 l 1
 433 1552 l 1
 982 519 l 1
 1042 365 l 1
 1047 365 l 1
 1042 519 l 1
 1042 1552 l 1
 1228 1552 l 1
 1228 0 l 1
 1042 0 l 1
 508 1016 l 1
 433 1179 l 1
 437 1018 l 1
EndSplineSet
EndChar

StartChar: O
Encoding: 79 79 48
Width: 1229
GlyphClass: 2
Flags: MW
HStem: -47 156<635.5 732.5 635.5 772.5> 1443 155<635.5 732.5>
VStem: 71 202 955 202
LayerCount: 2
Fore
SplineSet
684 -47 m 0
 508 -47 373 27 280 175 c 0
 187 324 141 524 141 776 c 0
 141 1027 187 1227 280 1375 c 0
 373 1524 508 1598 684 1598 c 0
 861 1598 995 1524 1088 1375 c 0
 1181 1227 1227 1027 1227 776 c 0
 1227 524 1181 324 1088 175 c 0
 995 27 861 -47 684 -47 c 0
684 109 m 0
 781 109 862 164 927 274 c 0
 992 385 1025 552 1025 776 c 0
 1025 1000 992 1167 927 1277 c 0
 862 1388 781 1443 684 1443 c 0
 587 1443 505 1388 440 1277 c 0
 375 1167 343 1000 343 776 c 0
 343 552 375 385 440 274 c 0
 505 164 587 109 684 109 c 0
EndSplineSet
EndChar

StartChar: P
Encoding: 80 80 49
Width: 1229
GlyphClass: 2
Flags: MW
HStem: 0 21G<351 553 351 351> 566 155<553 635 553 640> 1396 156<553 553 553 674>
VStem: 176 202 932 202
LayerCount: 2
Fore
SplineSet
635 566 m 2
 553 566 l 1
 553 0 l 1
 351 0 l 1
 351 1552 l 1
 737 1552 l 2
 896 1552 1011 1534 1084 1498 c 0
 1157 1463 1212 1411 1251 1342 c 0
 1290 1273 1309 1197 1309 1112 c 0
 1309 1013 1283 920 1231 834 c 0
 1179 748 1106 682 1013 635 c 0
 920 589 794 566 635 566 c 2
553 1396 m 1
 553 721 l 1
 640 721 l 2
 765 721 857 737 918 769 c 0
 1039 834 1107 965 1107 1106 c 0
 1107 1195 1078 1266 1019 1318 c 0
 961 1370 846 1396 674 1396 c 2
 553 1396 l 1
EndSplineSet
EndChar

StartChar: Q
Encoding: 81 81 50
Width: 1229
GlyphClass: 2
Flags: MW
HStem: -434 155<1185.5 1297 1279 1297 1279 1297> -29 21G 1443 155<635.5 732.5>
VStem: 71 202 955 202
LayerCount: 2
Fore
SplineSet
816 -29 m 1
 863 -106 904 -160 941 -190 c 0
 1014 -250 1136 -279 1279 -279 c 2
 1297 -279 l 1
 1297 -434 l 1
 1250 -434 l 2
 1121 -434 1028 -421 969 -394 c 0
 852 -341 746 -236 661 -45 c 1
 539 -32 442 7 371 71 c 0
 300 135 244 234 203 368 c 0
 162 502 141 646 141 800 c 0
 141 1025 186 1215 276 1368 c 0
 366 1521 502 1598 684 1598 c 0
 860 1598 994 1524 1087 1376 c 0
 1180 1228 1227 1028 1227 775 c 0
 1227 655 1215 540 1190 430 c 0
 1166 321 1124 224 1064 141 c 0
 1005 58 922 2 816 -29 c 1
684 1443 m 0
 587 1443 505 1388 440 1277 c 0
 375 1167 343 1000 343 776 c 0
 343 552 375 385 440 274 c 0
 505 164 587 109 684 109 c 0
 781 109 862 164 927 274 c 0
 992 385 1025 552 1025 776 c 0
 1025 1000 992 1167 927 1277 c 0
 862 1388 781 1443 684 1443 c 0
EndSplineSet
EndChar

StartChar: R
Encoding: 82 82 51
Width: 1229
GlyphClass: 2
Flags: MW
HStem: 0 21G<297 499 297 297 1112 1112 1112 1352> 659 156<499 701 499 782> 1396 156<499 499 499 650>
VStem: 149 202 870 194
LayerCount: 2
Fore
SplineSet
701 659 m 1
 499 659 l 1
 499 0 l 1
 297 0 l 1
 297 1552 l 1
 712 1552 l 2
 847 1552 947 1538 1011 1510 c 0
 1075 1483 1124 1441 1159 1385 c 0
 1194 1329 1212 1269 1212 1204 c 0
 1212 1144 1200 1084 1177 1023 c 0
 1154 962 1121 908 1080 860 c 0
 1039 813 980 768 903 725 c 1
 1352 0 l 1
 1112 0 l 1
 701 659 l 1
499 1396 m 1
 499 815 l 1
 782 815 l 1
 845 850 892 885 923 921 c 0
 986 993 1018 1077 1018 1158 c 0
 1018 1231 991 1288 938 1331 c 0
 885 1374 789 1396 650 1396 c 2
 499 1396 l 1
EndSplineSet
EndChar

StartChar: S
Encoding: 83 83 52
Width: 1229
GlyphClass: 2
Flags: MW
HStem: -47 156<683.5 776.5 683.5 804.5> 1443 155<775 872>
VStem: 173 201 902 201
LayerCount: 2
Fore
SplineSet
313 33 m 1
 313 223 l 1
 473 147 618 109 749 109 c 0
 804 109 856 119 906 140 c 0
 1006 183 1058 267 1058 359 c 0
 1058 413 1040 463 1005 510 c 0
 970 557 903 609 806 666 c 2
 704 725 l 1
 601 784 l 2
 420 891 329 1025 329 1184 c 0
 329 1301 369 1399 450 1478 c 0
 531 1558 658 1598 830 1598 c 0
 941 1598 1048 1582 1151 1550 c 1
 1151 1377 l 1
 1037 1421 926 1443 818 1443 c 0
 732 1443 662 1420 609 1375 c 0
 556 1330 530 1275 530 1211 c 0
 530 1148 550 1095 591 1053 c 0
 632 1011 684 972 747 937 c 2
 825 890 l 1
 922 831 l 1
 1004 783 l 2
 1174 679 1259 548 1259 391 c 0
 1259 271 1215 168 1128 82 c 0
 1041 -4 901 -47 708 -47 c 0
 647 -47 588 -42 532 -31 c 0
 477 -21 404 0 313 33 c 1
EndSplineSet
EndChar

StartChar: T
Encoding: 84 84 53
Width: 1229
GlyphClass: 2
Flags: MW
HStem: 0 21G<560 762 560 560> 1381 171<95 560 95 1228 762 762 762 1228>
VStem: 513 202
LayerCount: 2
Fore
SplineSet
762 0 m 1
 560 0 l 1
 560 1381 l 1
 95 1381 l 1
 95 1552 l 1
 1228 1552 l 1
 1228 1381 l 1
 762 1381 l 1
 762 0 l 1
EndSplineSet
EndChar

StartChar: U
Encoding: 85 85 54
Width: 1229
GlyphClass: 2
Flags: MW
HStem: -47 155<687.5 774 687.5 838.5> 1532 20G<251 453 453 453 1042 1228 1228 1228>
VStem: 126 202 917 186
LayerCount: 2
Fore
SplineSet
251 559 m 2
 251 1552 l 1
 453 1552 l 1
 453 533 l 2
 453 399 464 307 486 258 c 0
 531 161 631 108 744 108 c 0
 804 108 857 122 904 149 c 0
 951 177 986 220 1008 279 c 0
 1031 338 1042 449 1042 612 c 2
 1042 1552 l 1
 1228 1552 l 1
 1228 539 l 2
 1228 394 1206 281 1163 199 c 0
 1078 36 944 -47 733 -47 c 0
 636 -47 550 -29 476 7 c 0
 402 43 346 97 308 169 c 0
 270 241 251 371 251 559 c 2
EndSplineSet
EndChar

StartChar: V
Encoding: 86 86 55
Width: 1229
GlyphClass: 2
Flags: MW
HStem: 0 21G<546 751 546 546> 1532 20G<65 278 278 278 1035 1229 1229 1229>
VStem: 33 1164
LayerCount: 2
Fore
SplineSet
698 467 m 1
 1035 1552 l 1
 1229 1552 l 1
 751 0 l 1
 546 0 l 1
 65 1552 l 1
 278 1552 l 1
 615 468 l 1
 659 310 l 1
 698 467 l 1
EndSplineSet
EndChar

StartChar: W
Encoding: 87 87 56
Width: 1229
GlyphClass: 2
Flags: MW
HStem: 0 21G<235 424 235 235 849 849 849 1040> 1532 20G<55 239 239 239 547 731 731 731 1070 1228 1228 1228>
VStem: 28 1173
LayerCount: 2
Fore
SplineSet
424 0 m 1
 235 0 l 1
 55 1552 l 1
 239 1552 l 1
 345 607 l 1
 359 450 l 1
 364 450 l 1
 384 607 l 1
 547 1552 l 1
 731 1552 l 1
 917 569 l 1
 936 419 l 1
 941 419 l 1
 953 570 l 1
 1070 1552 l 1
 1228 1552 l 1
 1040 0 l 1
 849 0 l 1
 649 1052 l 1
 628 1210 l 1
 623 1210 l 1
 604 1052 l 1
 424 0 l 1
EndSplineSet
EndChar

StartChar: X
Encoding: 88 88 57
Width: 1229
GlyphClass: 2
Flags: MW
HStem: 0 21G<95 305 95 95 995 995 995 1228> 1532 20G<139 368 368 368 969 1180 1180 1180>
VStem: 48 1133
LayerCount: 2
Fore
SplineSet
654 619 m 1
 305 0 l 1
 95 0 l 1
 549 811 l 1
 139 1552 l 1
 368 1552 l 1
 665 1017 l 1
 969 1552 l 1
 1180 1552 l 1
 770 826 l 1
 1228 0 l 1
 995 0 l 1
 654 619 l 1
EndSplineSet
EndChar

StartChar: Y
Encoding: 89 89 58
Width: 1229
GlyphClass: 2
Flags: MW
HStem: 0 21G<565 767 565 565> 1532 20G<103 332 332 332 1021 1228 1228 1228>
VStem: 514 202
LayerCount: 2
Fore
SplineSet
767 0 m 1
 565 0 l 1
 565 718 l 1
 103 1552 l 1
 332 1552 l 1
 677 936 l 1
 1021 1552 l 1
 1228 1552 l 1
 767 718 l 1
 767 0 l 1
EndSplineSet
EndChar

StartChar: Z
Encoding: 90 90 59
Width: 1229
GlyphClass: 2
Flags: MW
HStem: 0 171<477 1228 243 243> 1396 156<266 980 266 1213 266 1213>
VStem: 122 985
LayerCount: 2
Fore
SplineSet
1228 0 m 1
 243 0 l 1
 243 171 l 1
 980 1396 l 1
 266 1396 l 1
 266 1552 l 1
 1213 1552 l 1
 1213 1396 l 1
 477 171 l 1
 1228 171 l 1
 1228 0 l 1
EndSplineSet
EndChar

StartChar: bracketleft
Encoding: 91 91 60
Width: 1229
GlyphClass: 2
Flags: MW
HStem: -372 155<895 1516 895 1516> 1489 156<895 1516 895 895>
VStem: 355 186
LayerCount: 2
Fore
SplineSet
1516 -372 m 1
 709 -372 l 1
 709 1645 l 1
 1516 1645 l 1
 1516 1489 l 1
 895 1489 l 1
 895 -217 l 1
 1516 -217 l 1
 1516 -372 l 1
EndSplineSet
EndChar

StartChar: backslash
Encoding: 92 92 61
Width: 1229
GlyphClass: 2
Flags: W
LayerCount: 2
Fore
SplineSet
107.293945312 1631 m 1
 244.82421875 1700 l 1
 1121.70605469 -153 l 1
 982.224609375 -216 l 1
 107.293945312 1631 l 1
EndSplineSet
EndChar

StartChar: bracketright
Encoding: 93 93 62
Width: 1229
GlyphClass: 2
Flags: MW
HStem: -372 155<133 754 133 940 133 754> 1489 156<133 754 133 940>
VStem: 688 186
LayerCount: 2
Fore
SplineSet
133 1645 m 1
 940 1645 l 1
 940 -372 l 1
 133 -372 l 1
 133 -217 l 1
 754 -217 l 1
 754 1489 l 1
 133 1489 l 1
 133 1645 l 1
EndSplineSet
EndChar

StartChar: asciicircum
Encoding: 94 94 63
Width: 1229
GlyphClass: 2
Flags: W
LayerCount: 2
Fore
SplineSet
691.556640625 1763 m 1
 1078.7890625 1107 l 1
 891.512695312 1107 l 1
 612.548828125 1605 l 1
 334.561523438 1107 l 1
 150.2109375 1107 l 1
 537.443359375 1763 l 1
 691.556640625 1763 l 1
EndSplineSet
EndChar

StartChar: underscore
Encoding: 95 95 64
Width: 1229
GlyphClass: 2
Flags: W
LayerCount: 2
Fore
SplineSet
102.416992188 -381 m 1
 102.416992188 -227 l 1
 1126.58300781 -227 l 1
 1126.58300781 -381 l 1
 102.416992188 -381 l 1
EndSplineSet
EndChar

StartChar: quoteleft
Encoding: 96 96 65
Width: 1229
GlyphClass: 2
Flags: MW
HStem: 1288 326<639 1151 639 981>
VStem: 320 512
LayerCount: 2
Fore
SplineSet
855 1614 m 1
 1151 1288 l 1
 981 1288 l 1
 639 1614 l 1
 855 1614 l 1
EndSplineSet
EndChar

StartChar: a
Encoding: 97 97 66
Width: 1229
GlyphClass: 2
Flags: MW
HStem: -31 178<583.5 599.5> 0 21G<1025 1219 1025 1025> 977 156<748.5 799.5 660 834.5> 1097 20G<990 1177 1177 1177>
VStem: 102 202 889 187
LayerCount: 2
Fore
SplineSet
990 251 m 1x64
 933 158 865 87 785 40 c 0
 706 -7 633 -31 566 -31 c 0
 473 -31 389 9 314 90 c 0
 240 171 203 293 203 457 c 0
 203 586 228 702 277 803 c 0
 376 1007 538 1133 782 1133 c 0xac
 817 1133 871 1129 942 1122 c 2
 990 1117 l 1
 1177 1117 l 1x54
 1177 328 l 2
 1177 193 1191 84 1219 0 c 1
 1025 0 l 1
 1010 61 999 145 990 251 c 1x64
990 472 m 1
 990 951 l 1
 924 968 863 977 806 977 c 0
 691 977 596 933 519 844 c 0
 443 755 405 635 405 482 c 0
 405 371 426 288 467 231 c 0
 509 175 557 147 610 147 c 0
 668 147 732 176 802 235 c 0
 872 294 935 373 990 472 c 1
EndSplineSet
EndChar

StartChar: b
Encoding: 98 98 67
Width: 1229
GlyphClass: 2
Flags: MW
HStem: -16 156<657.5 709.5 624.5 736> 0 21G<281 467 281 281> 970 178<857.5 873.5>
VStem: 141 186 913 202
LayerCount: 2
Fore
SplineSet
467 1614 m 1xb0
 467 866 l 1
 524 959 593 1030 672 1077 c 0
 751 1124 824 1148 891 1148 c 0
 984 1148 1068 1108 1143 1027 c 0
 1218 946 1255 824 1255 660 c 0
 1255 531 1230 415 1180 313 c 0
 1131 212 1065 131 982 72 c 0
 899 13 797 -16 675 -16 c 0xb8
 640 -16 587 -12 515 -5 c 2
 467 0 l 1
 281 0 l 1x70
 281 1614 l 1
 467 1614 l 1xb0
467 645 m 1
 467 166 l 1
 534 149 596 140 653 140 c 0
 766 140 860 184 937 272 c 0
 1014 361 1053 482 1053 635 c 0
 1053 746 1032 830 990 886 c 0
 948 942 900 970 847 970 c 0
 789 970 725 941 655 882 c 0
 586 823 523 744 467 645 c 1
EndSplineSet
EndChar

StartChar: c
Encoding: 99 99 68
Width: 1229
GlyphClass: 2
Flags: MW
HStem: -31 171<902 940.5 852.5 958.5> 993 155<875 949.5 814 960.5>
VStem: 164 202
LayerCount: 2
Fore
SplineSet
1258 211 m 1
 1258 32 l 1
 1133 -10 1015 -31 902 -31 c 0
 568 -33 323 224 327 558 c 0
 327 727 382 868 492 980 c 0
 603 1092 736 1148 892 1148 c 0
 1007 1148 1129 1126 1258 1083 c 1
 1258 904 l 1
 1128 963 1012 993 909 993 c 0
 841 993 777 976 717 942 c 0
 657 909 611 856 578 785 c 0
 545 714 529 640 529 565 c 0
 529 464 560 368 623 277 c 0
 686 186 785 140 920 140 c 0
 961 140 1001 143 1040 148 c 0
 1079 154 1152 175 1258 211 c 1
EndSplineSet
EndChar

StartChar: d
Encoding: 100 100 69
Width: 1229
GlyphClass: 2
Flags: MW
HStem: -31 178<607.5 623.5> 0 21G<1014 1014 1014 1201> 977 156<772.5 823.5 684 858.5> 1097 20G<1014 1014> 1102 20G<966 966>
VStem: 114 202 901 187
LayerCount: 2
Fore
SplineSet
1014 0 m 1x62
 1014 251 l 1
 957 158 889 87 809 40 c 0
 730 -7 657 -31 590 -31 c 0
 497 -31 413 9 338 90 c 0
 264 171 227 293 227 457 c 0
 227 586 252 702 301 803 c 0
 400 1007 562 1133 806 1133 c 0xa6
 841 1133 895 1129 966 1122 c 2x4a
 1014 1117 l 1x52
 1014 1614 l 1
 1201 1614 l 1
 1201 0 l 1
 1014 0 l 1x62
1014 472 m 1
 1014 951 l 1
 948 968 887 977 830 977 c 0
 715 977 620 933 543 844 c 0
 467 755 429 635 429 482 c 0
 429 371 450 288 491 231 c 0
 533 175 581 147 634 147 c 0
 692 147 756 176 826 235 c 0
 896 294 959 373 1014 472 c 1
EndSplineSet
EndChar

StartChar: e
Encoding: 101 101 70
Width: 1229
GlyphClass: 2
Flags: MW
HStem: -32 156<747.5 857.5> 528 139<470 1027 470 1229 459 1027> 993 155<739 818.5>
VStem: 130 200 898 202
LayerCount: 2
Fore
SplineSet
1213 244 m 1
 1213 74 l 1
 1064 3 924 -32 791 -32 c 0
 690 -32 600 -7 521 43 c 0
 442 93 378 164 330 257 c 0
 283 350 259 450 259 556 c 0
 259 658 282 756 327 850 c 0
 372 944 436 1017 517 1069 c 0
 598 1122 689 1148 789 1148 c 0
 922 1148 1028 1101 1108 1006 c 0
 1189 911 1229 765 1229 568 c 2
 1229 528 l 1
 459 528 l 1
 459 451 475 380 507 316 c 0
 572 188 680 124 815 124 c 0
 935 124 1068 164 1213 244 c 1
470 667 m 1
 1027 667 l 1
 1027 694 l 2
 1027 785 1005 858 960 912 c 0
 915 966 856 993 781 993 c 0
 630 993 514 882 470 667 c 1
EndSplineSet
EndChar

StartChar: f
Encoding: 102 102 71
Width: 1229
GlyphClass: 2
Flags: MW
HStem: 0 21G<581 767 581 581> 869 155<333 581 333 581 767 1210> 1489 156<1039.5 1105.5 1004.5 1106.5>
VStem: 415 186
LayerCount: 2
Fore
SplineSet
767 0 m 1
 581 0 l 1
 581 869 l 1
 333 869 l 1
 333 1024 l 1
 581 1024 l 1
 581 1076 l 2
 581 1223 598 1332 631 1403 c 0
 664 1474 716 1532 785 1577 c 0
 855 1622 947 1645 1062 1645 c 0
 1149 1645 1237 1636 1326 1618 c 1
 1326 1441 l 1
 1229 1473 1144 1489 1069 1489 c 0
 1010 1489 957 1478 912 1456 c 0
 867 1434 831 1398 805 1348 c 0
 780 1299 767 1215 767 1096 c 2
 767 1024 l 1
 1210 1024 l 1
 1210 869 l 1
 767 869 l 1
 767 0 l 1
EndSplineSet
EndChar

StartChar: g
Encoding: 103 103 72
Width: 1229
GlyphClass: 2
Flags: MW
HStem: -465 155<613 705.5 613 709.5> -31 178<607.5 623.5> 977 156<772.5 823.5 684 858.5> 1097 20G<1014 1201 1201 1201>
VStem: 114 202 901 187
LayerCount: 2
Fore
SplineSet
1014 93 m 2xe4
 1014 251 l 1
 957 158 889 87 809 40 c 0
 730 -7 657 -31 590 -31 c 0
 497 -31 413 9 338 90 c 0
 264 171 227 293 227 457 c 0
 227 586 252 702 301 803 c 0
 400 1007 562 1133 806 1133 c 0xec
 841 1133 895 1129 966 1122 c 2
 1014 1117 l 1
 1201 1117 l 1xd4
 1201 327 l 2
 1201 139 1198 24 1193 -17 c 0
 1188 -59 1180 -101 1169 -144 c 0
 1142 -243 1081 -322 986 -379 c 0
 891 -436 777 -465 642 -465 c 0
 507 -465 370 -430 231 -361 c 1
 231 -173 l 1
 284 -209 348 -241 425 -268 c 0
 502 -296 577 -310 649 -310 c 0
 762 -310 870 -273 933 -205 c 0
 964 -171 986 -131 997 -86 c 0
 1008 -41 1014 18 1014 93 c 2xe4
1014 472 m 1
 1014 951 l 1
 948 968 887 977 830 977 c 0
 715 977 620 933 543 844 c 0
 467 755 429 635 429 482 c 0
 429 371 450 288 491 231 c 0
 533 175 581 147 634 147 c 0
 692 147 756 176 826 235 c 0
 896 294 959 373 1014 472 c 1
EndSplineSet
EndChar

StartChar: h
Encoding: 104 104 73
Width: 1229
GlyphClass: 2
Flags: MW
HStem: 0 21G<309 495 309 309 1054 1054 1054 1240> 977 171<876.5 923.5>
VStem: 155 186 900 186
LayerCount: 2
Fore
SplineSet
495 0 m 1
 309 0 l 1
 309 1614 l 1
 495 1614 l 1
 495 873 l 1
 548 959 613 1026 688 1075 c 0
 763 1124 839 1148 914 1148 c 0
 977 1148 1035 1132 1087 1099 c 0
 1140 1067 1176 1028 1197 982 c 0
 1214 947 1225 909 1231 869 c 0
 1237 830 1240 748 1240 624 c 2
 1240 0 l 1
 1054 0 l 1
 1054 647 l 2
 1054 754 1049 825 1038 859 c 0
 1018 928 956 977 891 977 c 0
 826 977 755 946 680 884 c 0
 605 822 544 744 495 651 c 1
 495 0 l 1
EndSplineSet
EndChar

StartChar: i
Encoding: 105 105 74
Width: 1229
GlyphClass: 2
Flags: MW
HStem: 0 155<811 1122 811 1122> 962 155<315 625 315 811>
VStem: 468 186
LayerCount: 2
Fore
SplineSet
1122 0 m 1
 625 0 l 1
 625 962 l 1
 315 962 l 1
 315 1117 l 1
 811 1117 l 1
 811 155 l 1
 1122 155 l 1
 1122 0 l 1
594 1520 m 0
 594 1562 608 1593 637 1614 c 0
 666 1635 693 1645 718 1645 c 0
 744 1645 771 1635 800 1614 c 0
 829 1593 843 1562 843 1520 c 0
 843 1479 829 1448 800 1427 c 0
 771 1406 744 1396 718 1396 c 0
 693 1396 666 1406 637 1427 c 0
 608 1448 594 1479 594 1520 c 0
EndSplineSet
EndChar

StartChar: j
Encoding: 106 106 75
Width: 1229
GlyphClass: 2
Flags: MW
HStem: -466 156<570.5 637 570.5 654> -438 21G<343 343> 962 155<428 902 428 1088>
VStem: 731 186
LayerCount: 2
Fore
SplineSet
343 -438 m 1xb0
 343 -264 l 1
 447 -295 535 -310 606 -310 c 0
 668 -310 721 -299 764 -277 c 0
 807 -256 841 -219 865 -168 c 0
 890 -117 902 -27 902 100 c 2
 902 962 l 1
 428 962 l 1
 428 1117 l 1
 1088 1117 l 1
 1088 135 l 2
 1088 -54 1066 -186 1021 -259 c 0
 976 -333 922 -386 859 -418 c 0
 796 -450 709 -466 599 -466 c 0
 520 -466 434 -457 343 -438 c 1xb0
871 1520 m 0
 871 1562 885 1593 913 1614 c 0
 942 1635 969 1645 995 1645 c 0
 1021 1645 1048 1635 1076 1614 c 0
 1105 1593 1119 1562 1119 1520 c 0
 1119 1479 1105 1448 1076 1427 c 0
 1048 1406 1021 1396 995 1396 c 0
 969 1396 942 1406 913 1427 c 0
 885 1448 871 1479 871 1520 c 0
EndSplineSet
EndChar

StartChar: k
Encoding: 107 107 76
Width: 1229
GlyphClass: 2
Flags: MW
HStem: 0 21G<409 595 409 409 1138 1138 1138 1394> 1097 20G<1132 1380 1380 1380>
VStem: 205 186
LayerCount: 2
Fore
SplineSet
595 0 m 1
 409 0 l 1
 409 1614 l 1
 595 1614 l 1
 595 600 l 1
 1132 1117 l 1
 1380 1117 l 1
 844 600 l 1
 1394 0 l 1
 1138 0 l 1
 595 600 l 1
 595 0 l 1
EndSplineSet
EndChar

StartChar: l
Encoding: 108 108 77
Width: 1229
GlyphClass: 2
Flags: MW
HStem: 0 155<761 1110 761 1110> 1458 156<241 575 241 761>
VStem: 455 186
LayerCount: 2
Fore
SplineSet
1110 0 m 1
 575 0 l 1
 575 1458 l 1
 241 1458 l 1
 241 1614 l 1
 761 1614 l 1
 761 155 l 1
 1110 155 l 1
 1110 0 l 1
EndSplineSet
EndChar

StartChar: m
Encoding: 109 109 78
Width: 1229
GlyphClass: 2
Flags: MW
HStem: 0 21G<141 304 141 141 606 606 606 762 1064 1064 1064 1227> 962 186<508 636> 1097 20G<141 304 304 304> 1128 20G<559.5 636 1009.5 1077>
VStem: 71 163 536 156 994 163
CounterMasks: 1 0e
LayerCount: 2
Fore
SplineSet
304 0 m 1xbe
 141 0 l 1
 141 1117 l 1
 304 1117 l 1
 304 861 l 1
 355 970 403 1045 447 1086 c 0
 492 1127 537 1148 582 1148 c 0
 690 1148 762 1060 762 904 c 2
 762 844 l 1
 784 912 810 967 841 1009 c 0
 904 1094 966 1148 1053 1148 c 0
 1101 1148 1142 1128 1176 1087 c 0
 1210 1046 1227 965 1227 844 c 2
 1227 0 l 1
 1064 0 l 1
 1064 763 l 2
 1064 826 1062 868 1058 891 c 0
 1050 938 1023 962 995 962 c 0
 960 962 923 935 883 882 c 0
 844 829 803 742 762 619 c 1
 762 0 l 1
 606 0 l 1
 606 762 l 2
 606 861 596 919 577 936 c 0
 558 953 540 962 525 962 c 0
 491 962 454 932 415 873 c 0xce
 376 814 339 738 304 645 c 1
 304 0 l 1xbe
EndSplineSet
EndChar

StartChar: n
Encoding: 110 110 79
Width: 1229
GlyphClass: 2
Flags: MW
HStem: 0 21G<309 495 309 309 1054 1054 1054 1240> 977 171<876.5 923.5> 1097 20G<309 495 495 495>
VStem: 155 186 900 186
LayerCount: 2
Fore
SplineSet
495 0 m 1xb8
 309 0 l 1
 309 1117 l 1
 495 1117 l 1xb8
 495 873 l 1
 548 959 613 1026 688 1075 c 0
 763 1124 839 1148 914 1148 c 0
 980 1148 1040 1130 1094 1095 c 0
 1148 1060 1186 1015 1207 958 c 0
 1229 901 1240 790 1240 624 c 2
 1240 0 l 1
 1054 0 l 1
 1054 647 l 2
 1054 754 1049 825 1038 859 c 0
 1018 928 956 977 891 977 c 0
 826 977 755 946 680 884 c 0xd8
 605 822 544 744 495 651 c 1
 495 0 l 1xb8
EndSplineSet
EndChar

StartChar: o
Encoding: 111 111 80
Width: 1229
GlyphClass: 2
Flags: MW
HStem: -31 155<651 750.5 651 780.5> 993 155<651 750.5>
VStem: 87 202 940 202
LayerCount: 2
Fore
SplineSet
701 -31 m 0
 541 -31 413 25 317 136 c 0
 221 248 173 389 173 559 c 0
 173 729 221 870 317 981 c 0
 413 1092 541 1148 701 1148 c 0
 860 1148 988 1092 1084 981 c 0
 1180 870 1228 729 1228 559 c 0
 1228 389 1180 248 1084 136 c 0
 988 25 860 -31 701 -31 c 0
701 124 m 0
 800 124 879 163 938 240 c 0
 997 317 1026 424 1026 559 c 0
 1026 694 997 800 938 877 c 0
 879 954 800 993 701 993 c 0
 601 993 522 954 463 877 c 0
 404 800 375 694 375 559 c 0
 375 424 404 317 463 240 c 0
 522 163 601 124 701 124 c 0
EndSplineSet
EndChar

StartChar: p
Encoding: 112 112 81
Width: 1229
GlyphClass: 2
Flags: MW
HStem: -434 21G<281 467 281 281> -16 156<657.5 709.5 624.5 736> -5 21G<515 515> 0 21G<467 467> 970 178<857.5 873.5> 1097 20G<281 467 467 467>
VStem: 141 186 913 202
LayerCount: 2
Fore
SplineSet
467 1117 m 1xc6
 467 866 l 1
 524 959 593 1030 672 1077 c 0
 751 1124 824 1148 891 1148 c 0
 984 1148 1068 1108 1143 1027 c 0
 1218 946 1255 824 1255 660 c 0
 1255 531 1230 415 1180 313 c 0
 1131 212 1065 131 982 72 c 0
 899 13 797 -16 675 -16 c 0xcb
 640 -16 587 -12 515 -5 c 2xa6
 467 0 l 1x96
 467 -434 l 1
 281 -434 l 1
 281 1117 l 1
 467 1117 l 1xc6
467 645 m 1
 467 166 l 1
 534 149 596 140 653 140 c 0
 766 140 860 184 937 272 c 0
 1014 361 1053 482 1053 635 c 0
 1053 746 1032 830 990 886 c 0
 948 942 900 970 847 970 c 0
 789 970 725 941 655 882 c 0
 586 823 523 744 467 645 c 1
EndSplineSet
EndChar

StartChar: q
Encoding: 113 113 82
Width: 1229
GlyphClass: 2
Flags: MW
HStem: -434 21G<1014 1014 1014 1201> -31 178<607.5 623.5> 977 156<772.5 823.5 684 858.5> 1097 20G<1014 1201 1201 1201>
VStem: 114 202 901 187
LayerCount: 2
Fore
SplineSet
1014 -434 m 1xe4
 1014 251 l 1
 957 158 889 87 809 40 c 0
 730 -7 657 -31 590 -31 c 0
 497 -31 413 9 338 90 c 0
 264 171 227 293 227 457 c 0
 227 586 252 702 301 803 c 0
 400 1007 562 1133 806 1133 c 0xec
 841 1133 895 1129 966 1122 c 2
 1014 1117 l 1
 1201 1117 l 1xd4
 1201 -434 l 1
 1014 -434 l 1xe4
1014 472 m 1
 1014 951 l 1
 948 968 887 977 830 977 c 0
 715 977 620 933 543 844 c 0
 467 755 429 635 429 482 c 0
 429 371 450 288 491 231 c 0
 533 175 581 147 634 147 c 0
 692 147 756 176 826 235 c 0
 896 294 959 373 1014 472 c 1
EndSplineSet
EndChar

StartChar: r
Encoding: 114 114 83
Width: 1229
GlyphClass: 2
Flags: MW
HStem: 0 21G<499 685 499 499> 977 171<1043 1093> 1097 20G<499 685 685 685 1337 1337>
VStem: 250 186 909 179
LayerCount: 2
Fore
SplineSet
685 0 m 1xd8
 499 0 l 1
 499 1117 l 1
 685 1117 l 1xb8
 685 873 l 1
 801 1057 951 1148 1135 1148 c 0xd8
 1202 1148 1270 1138 1337 1117 c 1xb8
 1337 714 l 1
 1158 714 l 1
 1158 969 l 1
 1127 974 1102 977 1084 977 c 0
 945 977 812 868 685 649 c 1
 685 0 l 1xd8
EndSplineSet
EndChar

StartChar: s
Encoding: 115 115 84
Width: 1229
GlyphClass: 2
Flags: MW
HStem: -31 155<755 831 755 856.5> 993 155<771.5 865>
VStem: 199 194 882 194
LayerCount: 2
Fore
SplineSet
335 59 m 1
 335 256 l 1
 410 207 489 173 572 153 c 0
 655 134 726 124 784 124 c 0
 878 124 946 139 987 169 c 0
 1028 200 1049 238 1049 283 c 0
 1049 313 1039 339 1020 360 c 0
 1001 381 953 408 876 439 c 2
 812 465 l 1
 683 516 l 2
 544 570 457 620 421 666 c 0
 384 711 366 767 366 832 c 0
 366 924 401 1000 472 1059 c 0
 543 1118 659 1148 818 1148 c 0
 937 1148 1050 1131 1157 1096 c 1
 1157 927 l 1
 1034 971 919 993 811 993 c 0
 732 993 671 979 626 951 c 0
 582 924 560 889 560 848 c 0
 560 808 579 776 618 752 c 0
 656 728 718 700 804 669 c 2
 930 623 l 2
 1045 581 1126 535 1173 486 c 0
 1220 437 1243 375 1243 301 c 0
 1243 204 1206 125 1131 62 c 0
 1057 0 938 -31 775 -31 c 0
 632 -31 486 -1 335 59 c 1
EndSplineSet
EndChar

StartChar: t
Encoding: 116 116 85
Width: 1229
GlyphClass: 2
Flags: MW
HStem: -31 155<851.5 898.5> 869 155<191 470 191 470 656 1153>
VStem: 375 186
LayerCount: 2
Fore
SplineSet
1184 209 m 1
 1184 45 l 1
 1097 8 1033 -13 994 -20 c 0
 955 -27 917 -31 880 -31 c 0
 802 -31 731 -16 666 14 c 0
 601 44 552 88 519 147 c 0
 486 206 470 296 470 419 c 2
 470 869 l 1
 191 869 l 1
 191 1024 l 1
 470 1024 l 1
 470 1474 l 1
 656 1474 l 1
 656 1024 l 1
 1153 1024 l 1
 1153 869 l 1
 656 869 l 1
 656 422 l 2
 656 332 667 268 688 231 c 0
 731 158 803 124 900 124 c 0
 990 124 1085 152 1184 209 c 1
EndSplineSet
EndChar

StartChar: u
Encoding: 117 117 86
Width: 1229
GlyphClass: 2
Flags: MW
HStem: -31 171<601 665.5 601 683.5> 0 21G<1030 1216 1030 1030> 1097 20G<285 471 471 471 1030 1216 1216 1216>
VStem: 143 186 888 186
LayerCount: 2
Fore
SplineSet
1030 1117 m 1xb8
 1216 1117 l 1
 1216 0 l 1
 1030 0 l 1x78
 1030 245 l 1
 910 61 757 -31 610 -31 c 0
 545 -31 485 -14 430 21 c 0
 376 56 338 102 317 159 c 0
 296 216 285 328 285 493 c 2
 285 1117 l 1
 471 1117 l 1
 471 470 l 2
 471 363 476 292 486 257 c 0
 507 189 569 140 633 140 c 0
 698 140 768 171 843 232 c 0
 918 294 981 372 1030 466 c 1
 1030 1117 l 1xb8
EndSplineSet
EndChar

StartChar: v
Encoding: 118 118 87
Width: 1229
GlyphClass: 2
Flags: MW
HStem: 0 21G<550 740 550 550> 1097 20G<65 269 269 269 1043 1229 1229 1229>
VStem: 33 1164
LayerCount: 2
Fore
SplineSet
740 0 m 1
 550 0 l 1
 65 1117 l 1
 269 1117 l 1
 652 233 l 1
 1043 1117 l 1
 1229 1117 l 1
 740 0 l 1
EndSplineSet
EndChar

StartChar: w
Encoding: 119 119 88
Width: 1229
GlyphClass: 2
Flags: MW
HStem: 0 21G<221 402 221 221 872 872 872 1046> 1097 20G<39 212 212 212 551 718 718 718 1084 1227 1227 1227>
VStem: 20 1188
LayerCount: 2
Fore
SplineSet
402 0 m 1
 221 0 l 1
 39 1117 l 1
 212 1117 l 1
 318 437 l 1
 346 279 l 1
 373 437 l 1
 551 1117 l 1
 718 1117 l 1
 919 437 l 1
 954 279 l 1
 977 437 l 1
 1084 1117 l 1
 1227 1117 l 1
 1046 0 l 1
 872 0 l 1
 658 719 l 1
 624 877 l 1
 619 877 l 1
 588 720 l 1
 402 0 l 1
EndSplineSet
EndChar

StartChar: x
Encoding: 120 120 89
Width: 1229
GlyphClass: 2
Flags: MW
HStem: 0 21G<111 326 111 111 997 997 997 1236> 1097 20G<140 378 378 378 952 1163 1163 1163>
VStem: 56 1125
LayerCount: 2
Fore
SplineSet
657 445 m 1
 326 0 l 1
 111 0 l 1
 550 585 l 1
 140 1117 l 1
 378 1117 l 1
 669 742 l 1
 952 1117 l 1
 1163 1117 l 1
 775 603 l 1
 1236 0 l 1
 997 0 l 1
 657 445 l 1
EndSplineSet
EndChar

StartChar: y
Encoding: 121 121 90
Width: 1229
GlyphClass: 2
Flags: MW
HStem: -466 155<186.5 240 186.5 280.5> -451 21G<63 63> 1097 20G<81 286 286 286 1041 1228 1228 1228>
VStem: 32 1165
LayerCount: 2
Fore
SplineSet
580 2 m 2xb0
 597 45 l 1
 81 1117 l 1
 286 1117 l 1
 697 279 l 1
 1041 1117 l 1
 1228 1117 l 1
 795 79 l 2
 704 -140 617 -286 534 -358 c 0
 452 -430 346 -466 215 -466 c 0xb0
 158 -466 108 -461 63 -451 c 1x70
 63 -287 l 1
 114 -303 163 -311 210 -311 c 0
 270 -311 323 -299 370 -276 c 0
 417 -253 459 -211 498 -152 c 0
 537 -93 564 -41 580 2 c 2xb0
EndSplineSet
EndChar

StartChar: z
Encoding: 122 122 91
Width: 1229
GlyphClass: 2
Flags: MW
HStem: 0 171<506 1219 265 265> 962 155<281 950 281 1196 281 1196>
VStem: 133 954
LayerCount: 2
Fore
SplineSet
1219 0 m 1
 265 0 l 1
 265 171 l 1
 950 962 l 1
 281 962 l 1
 281 1117 l 1
 1196 1117 l 1
 1196 962 l 1
 506 171 l 1
 1219 171 l 1
 1219 0 l 1
EndSplineSet
EndChar

StartChar: braceleft
Encoding: 123 123 92
Width: 1229
GlyphClass: 2
Flags: MW
HStem: -372 155<1064.5 1313 1158 1313 1158 1313> 559 155<421 510 421 510> 1489 156<1156 1158 1158 1313>
VStem: 514 191 583 187
LayerCount: 2
Fore
SplineSet
757 636 m 1xe8
 819 603 864 571 893 540 c 0
 952 477 980 415 980 330 c 0
 980 292 973 242 960 181 c 2xe8
 935 67 l 2
 922 5 915 -41 915 -71 c 0
 915 -112 931 -146 962 -174 c 0
 994 -203 1059 -217 1158 -217 c 2
 1313 -217 l 1
 1313 -372 l 1
 1156 -372 l 2
 973 -372 856 -343 803 -284 c 0
 750 -225 724 -159 724 -85 c 0
 724 -46 729 -3 739 42 c 2
 757 122 l 1
 774 209 l 1xf0
 786 262 l 2
 791 287 793 311 793 334 c 0
 793 396 772 449 730 493 c 0
 689 537 615 559 510 559 c 2
 421 559 l 1
 421 714 l 1
 510 714 l 2
 614 714 687 736 729 779 c 0
 772 822 793 876 793 941 c 0
 793 965 791 988 786 1011 c 2
 774 1063 l 1
 757 1150 l 1xe8
 739 1230 l 2
 729 1276 724 1319 724 1358 c 0
 724 1431 750 1497 803 1556 c 0
 856 1615 973 1645 1156 1645 c 2
 1313 1645 l 1
 1313 1489 l 1
 1158 1489 l 2
 1060 1489 995 1475 963 1446 c 0
 931 1418 915 1383 915 1342 c 0
 915 1313 922 1267 935 1205 c 2xf0
 960 1091 l 2
 973 1030 980 980 980 942 c 0
 980 899 973 861 958 828 c 0
 930 763 881 701 757 636 c 1xe8
EndSplineSet
EndChar

StartChar: bar
Encoding: 124 124 93
Width: 1229
GlyphClass: 2
Flags: W
LayerCount: 2
Fore
SplineSet
690.581054688 1890 m 1
 690.581054688 -630 l 1
 536.467773438 -630 l 1
 536.467773438 1890 l 1
 690.581054688 1890 l 1
EndSplineSet
EndChar

StartChar: braceright
Encoding: 125 125 94
Width: 1229
GlyphClass: 2
Flags: MW
HStem: -372 155<251 406 406 408 251 406> 559 155<1002 1143 1054 1143> 1489 156<251 406 251 408>
VStem: 460 186 524 192
LayerCount: 2
Fore
SplineSet
807 636 m 1xf0
 745 669 699 701 670 732 c 0
 613 795 585 857 585 942 c 0
 585 980 591 1030 604 1091 c 2xf0
 629 1205 l 2
 642 1267 649 1313 649 1343 c 0
 649 1384 633 1418 601 1446 c 0
 570 1475 505 1489 406 1489 c 2
 251 1489 l 1
 251 1645 l 1
 408 1645 l 2
 591 1645 708 1615 761 1556 c 0
 814 1497 841 1431 841 1358 c 0
 841 1318 836 1275 825 1230 c 2
 807 1150 l 1
 790 1063 l 1xe8
 778 1011 l 2
 773 986 771 961 771 938 c 0
 771 877 792 824 833 780 c 0
 875 736 949 714 1054 714 c 2
 1143 714 l 1
 1143 559 l 1
 1054 559 l 2
 950 559 877 537 834 493 c 0
 792 450 771 396 771 331 c 0
 771 308 773 285 778 262 c 2
 790 209 l 1
 807 122 l 1xf0
 825 42 l 2
 836 -4 841 -47 841 -86 c 0
 841 -160 814 -226 761 -284 c 0
 708 -343 591 -372 408 -372 c 2
 251 -372 l 1
 251 -217 l 1
 406 -217 l 2
 505 -217 570 -203 601 -174 c 0
 633 -146 649 -111 649 -70 c 0
 649 -41 642 5 629 67 c 2xe8
 604 181 l 2
 591 242 585 292 585 330 c 0
 585 373 592 410 606 443 c 0
 620 476 641 509 670 540 c 0
 699 571 745 603 807 636 c 1xf0
EndSplineSet
EndChar

StartChar: asciitilde
Encoding: 126 126 95
Width: 1229
GlyphClass: 2
Flags: W
LayerCount: 2
Fore
SplineSet
421.37109375 841 m 0
 626.205078125 841 689.60546875 631 814.456054688 631 c 0
 899.315429688 631 963.692382812 710 1017.33886719 810 c 1
 1140.23925781 745 l 1
 1079.76464844 625 989.052734375 479 808.603515625 479 c 0
 617.42578125 479 543.295898438 689 414.543945312 689 c 0
 325.782226562 689 265.307617188 612 211.661132812 511 c 1
 88.7607421875 573 l 1
 150.2109375 696 238.97265625 841 421.37109375 841 c 0
EndSplineSet
EndChar

StartChar: exclamdown
Encoding: 161 161 97
Width: 1229
GlyphClass: 2
Flags: MW
HStem: -450 21G<968 1216 968 968> 1128 20G<1066 1103.5>
VStem: 471 287
LayerCount: 2
Fore
SplineSet
1015 659 m 1
 1170 659 l 1
 1216 -450 l 1
 968 -450 l 1
 1015 659 l 1
1085 1148 m 0
 1122 1148 1155 1134 1184 1105 c 0
 1213 1076 1228 1043 1228 1005 c 0
 1228 966 1213 933 1184 904 c 0
 1155 875 1122 861 1085 861 c 0
 1047 861 1013 875 984 904 c 0
 955 933 941 966 941 1005 c 0
 941 1043 955 1076 984 1105 c 0
 1013 1134 1047 1148 1085 1148 c 0
EndSplineSet
EndChar

StartChar: cent
Encoding: 162 162 98
Width: 1229
GlyphClass: 2
Flags: MW
HStem: -155 1862<724 879 724 879> 191 146<879 879>
VStem: 118 202 607 155
LayerCount: 2
Fore
SplineSet
879 -155 m 1x90
 724 -155 l 1
 724 191 l 1
 625 203 539 235 468 287 c 0
 327 391 235 558 235 766 c 0
 235 870 255 962 294 1043 c 0
 373 1204 508 1314 724 1353 c 1
 724 1707 l 1
 879 1707 l 1
 879 1353 l 1
 990 1340 1085 1322 1166 1297 c 1
 1166 1118 l 1
 1090 1158 1006 1190 879 1203 c 1
 879 337 l 1
 932 343 973 350 1002 358 c 0
 1031 366 1074 383 1132 410 c 2
 1166 426 l 1
 1166 246 l 1
 1067 213 971 195 879 191 c 1x70
 879 -155 l 1x90
724 345 m 1
 724 1195 l 1
 621 1163 548 1108 503 1030 c 0
 459 952 437 864 437 765 c 0
 437 681 457 598 497 515 c 0
 537 433 613 376 724 345 c 1
EndSplineSet
EndChar

StartChar: sterling
Encoding: 163 163 99
Width: 1229
GlyphClass: 2
Flags: MW
HStem: 0 171<542 1251 281 281> 768 155<281 506 281 506 692 1018> 1443 155<886 947>
VStem: 366 186
LayerCount: 2
Fore
SplineSet
1251 0 m 1
 281 0 l 1
 281 171 l 1
 343 185 388 206 417 233 c 0
 476 289 506 393 506 557 c 2
 506 768 l 1
 281 768 l 1
 281 923 l 1
 506 923 l 1
 506 992 l 2
 506 1169 523 1296 557 1372 c 0
 625 1524 752 1598 927 1598 c 0
 1010 1598 1097 1579 1189 1540 c 1
 1189 1360 l 1
 1084 1415 989 1443 905 1443 c 0
 867 1443 830 1430 795 1405 c 0
 760 1380 734 1342 717 1291 c 0
 700 1240 692 1143 692 1002 c 2
 692 923 l 1
 1018 923 l 1
 1018 768 l 1
 692 768 l 1
 692 651 l 2
 692 526 685 431 670 366 c 0
 655 301 613 236 542 171 c 1
 1251 171 l 1
 1251 0 l 1
EndSplineSet
EndChar

StartChar: currency
Encoding: 164 164 100
Width: 1229
GlyphClass: 2
Flags: MW
HStem: 310 155<667.5 700.5> 1086 155<669.5 698.5 669.5 709>
VStem: 150 156 922 156
LayerCount: 2
Fore
SplineSet
927 1170 m 1
 1112 1381 l 1
 1227 1280 l 1
 1043 1068 l 1
 1092 1000 1121 945 1132 903 c 0
 1143 862 1148 819 1148 774 c 0
 1148 729 1143 685 1132 642 c 0
 1121 600 1092 545 1043 477 c 1
 1227 266 l 1
 1112 171 l 1
 927 377 l 1
 866 345 819 326 784 319 c 0
 750 313 717 310 684 310 c 0
 651 310 618 313 583 319 c 0
 549 326 502 345 441 377 c 1
 256 171 l 1
 141 266 l 1
 325 477 l 1
 276 545 247 600 236 642 c 0
 225 685 220 729 220 774 c 0
 220 819 225 862 236 903 c 0
 247 945 276 1000 325 1068 c 1
 141 1280 l 1
 256 1381 l 1
 441 1170 l 1
 500 1206 547 1227 584 1232 c 0
 621 1238 655 1241 684 1241 c 0
 713 1241 746 1238 783 1232 c 0
 820 1227 868 1206 927 1170 c 1
684 465 m 0
 763 465 834 494 897 551 c 0
 960 609 992 682 992 770 c 0
 992 827 978 881 950 930 c 0
 923 980 884 1018 834 1045 c 0
 784 1072 734 1086 684 1086 c 0
 634 1086 584 1072 534 1045 c 0
 484 1018 445 980 417 930 c 0
 390 881 376 827 376 770 c 0
 376 682 407 609 470 551 c 0
 533 494 605 465 684 465 c 0
EndSplineSet
EndChar

StartChar: yen
Encoding: 165 165 101
Width: 1229
GlyphClass: 2
Flags: MW
HStem: 0 21G<573 759 573 573> 248 140<247 573 247 573 759 1077> 582 139<247 564 247 573 247 564 759 1077> 1532 20G<103 308 308 308 1043 1228 1228 1228>
VStem: 522 186
LayerCount: 2
Fore
SplineSet
759 0 m 1
 573 0 l 1
 573 248 l 1
 247 248 l 1
 247 388 l 1
 573 388 l 1
 573 582 l 1
 247 582 l 1
 247 721 l 1
 564 721 l 1
 103 1552 l 1
 308 1552 l 1
 675 910 l 1
 1043 1552 l 1
 1228 1552 l 1
 759 721 l 1
 1077 721 l 1
 1077 582 l 1
 759 582 l 1
 759 388 l 1
 1077 388 l 1
 1077 248 l 1
 759 248 l 1
 759 0 l 1
EndSplineSet
EndChar

StartChar: brokenbar
Encoding: 166 166 102
Width: 1229
GlyphClass: 2
Flags: MW
HStem: -47 21G<1065 1228 1065 1065> 1578 20G<1065 1228 1228 1228>
VStem: 533 163
LayerCount: 2
Fore
SplineSet
1228 -47 m 1
 1065 -47 l 1
 1065 683 l 1
 1228 683 l 1
 1228 -47 l 1
1228 869 m 1
 1065 869 l 1
 1065 1598 l 1
 1228 1598 l 1
 1228 869 l 1
EndSplineSet
EndChar

StartChar: section
Encoding: 167 167 103
Width: 1229
GlyphClass: 2
Flags: MW
HStem: -372 155<694.5 775.5 694.5 825.5> 1443 155<806 823>
VStem: 172 186 188 201 886 202 933 170
LayerCount: 2
Fore
SplineSet
297 -301 m 1xd4
 297 -100 l 1
 365 -137 438 -165 515 -186 c 0
 593 -207 663 -217 726 -217 c 0
 825 -217 901 -197 954 -156 c 0
 1007 -115 1034 -72 1034 -25 c 0
 1034 14 1021 48 995 77 c 0
 968 106 911 145 824 194 c 2
 677 277 l 2
 546 350 454 420 400 486 c 0
 347 552 320 621 320 694 c 0xe8
 320 803 368 901 465 990 c 1
 380 1054 336 1136 336 1236 c 0
 341 1428 497 1602 806 1598 c 0
 905 1598 1017 1579 1143 1541 c 1
 1143 1363 l 1
 1102 1384 1047 1403 978 1419 c 0
 909 1435 849 1443 797 1443 c 0
 706 1443 640 1425 599 1389 c 0
 558 1353 537 1313 537 1269 c 0
 537 1222 560 1181 607 1144 c 0
 653 1107 695 1078 733 1055 c 2
 796 1020 l 1
 945 932 l 2
 1074 856 1157 789 1195 732 c 0
 1232 674 1251 610 1251 541 c 0xd4
 1251 432 1203 333 1107 244 c 1
 1168 193 1205 148 1217 108 c 0
 1230 68 1236 33 1236 2 c 0
 1236 -61 1214 -123 1169 -185 c 0xd8
 1081 -310 932 -372 719 -372 c 0
 572 -372 432 -348 297 -301 c 1xd4
814 416 m 2
 981 319 l 1
 1048 372 1081 434 1081 505 c 0
 1081 553 1059 600 1016 645 c 0xd4
 973 691 924 730 868 762 c 2
 774 815 l 1
 590 920 l 1
 551 876 528 840 519 813 c 0
 510 786 506 761 506 736 c 0
 506 682 524 634 561 592 c 0
 598 551 682 492 814 416 c 2
EndSplineSet
EndChar

StartChar: dieresis
Encoding: 168 168 104
Width: 1229
GlyphClass: 2
Flags: MW
HStem: 1288 248<652.5 685.5 652.5 686 1087.5 1120.5>
VStem: 273 683
LayerCount: 2
Fore
SplineSet
669 1288 m 0
 635 1288 606 1300 581 1324 c 0
 557 1348 545 1377 545 1412 c 0
 545 1447 557 1476 582 1500 c 0
 607 1524 636 1536 669 1536 c 0
 702 1536 731 1524 756 1500 c 0
 781 1476 793 1447 793 1412 c 0
 793 1377 781 1348 756 1324 c 0
 732 1300 703 1288 669 1288 c 0
1104 1288 m 0
 1070 1288 1041 1300 1016 1324 c 0
 991 1348 979 1377 979 1412 c 0
 979 1447 991 1476 1016 1500 c 0
 1041 1524 1071 1536 1104 1536 c 0
 1137 1536 1166 1524 1191 1500 c 0
 1216 1476 1228 1447 1228 1412 c 0
 1228 1377 1216 1348 1191 1324 c 0
 1166 1300 1137 1288 1104 1288 c 0
EndSplineSet
EndChar

StartChar: copyright
Encoding: 169 169 105
Width: 1229
GlyphClass: 2
Flags: MW
HStem: -47 125<574.5 659.5 574.5 746.5> 248 140<682 723.5> 1149 154<633.5 696> 1474 124<573.5 659.5>
VStem: 2 124 227 171 1104 124
LayerCount: 2
Fore
SplineSet
617 -47 m 0
 488 -47 380 -13 294 54 c 0
 208 121 138 218 84 345 c 0
 31 472 4 615 4 776 c 0
 4 931 29 1070 78 1194 c 0
 128 1318 197 1416 284 1489 c 0
 372 1562 483 1598 617 1598 c 0
 746 1598 854 1564 940 1496 c 0
 1027 1428 1097 1331 1150 1205 c 0
 1203 1079 1230 936 1230 776 c 0
 1230 615 1203 472 1149 345 c 0
 1042 92 876 -47 617 -47 c 0
617 78 m 0
 702 78 782 105 857 158 c 0
 932 212 992 296 1037 411 c 0
 1083 526 1106 647 1106 776 c 0
 1106 904 1083 1026 1037 1141 c 0
 991 1256 931 1341 856 1394 c 0
 781 1447 702 1474 617 1474 c 0
 530 1474 449 1446 373 1390 c 0
 298 1335 238 1250 194 1135 c 0
 150 1021 128 901 128 776 c 0
 128 646 151 523 198 407 c 0
 245 291 305 207 379 155 c 0
 453 104 532 78 617 78 c 0
896 433 m 1
 896 281 l 1
 836 259 765 248 682 248 c 0
 424 244 228 485 229 775 c 0
 229 872 248 962 286 1044 c 0
 363 1208 486 1303 667 1303 c 0
 735 1303 811 1292 896 1271 c 1
 896 1112 l 1
 818 1136 716 1149 676 1149 c 0
 591 1149 524 1115 474 1046 c 0
 425 977 400 886 400 773 c 0
 400 648 429 553 487 487 c 0
 546 421 617 388 702 388 c 0
 757 388 821 403 896 433 c 1
EndSplineSet
EndChar

StartChar: ordfeminine
Encoding: 170 170 106
Width: 1229
GlyphClass: 2
Flags: MW
HStem: 892 132<721.5 740> 1474 124<855.5 899 784.5 924> 1570 20G<1049 1189 1189 1189>
VStem: 211 155 838 140
LayerCount: 2
Fore
SplineSet
1050 1060 m 1xc8
 1011 1009 960 969 895 938 c 0
 830 907 769 892 711 892 c 0
 636 892 569 916 510 965 c 0
 451 1014 421 1089 421 1190 c 0
 421 1269 440 1338 479 1399 c 0
 558 1522 685 1598 884 1598 c 0xd8
 914 1598 957 1596 1013 1593 c 2
 1049 1590 l 1
 1189 1590 l 1xa8
 1189 1114 l 2
 1189 1081 1191 1050 1194 1019 c 0
 1198 989 1212 952 1236 908 c 1
 1081 908 l 1
 1068 947 1057 997 1050 1060 c 1xc8
1049 1208 m 1
 1048 1463 l 1
 996 1470 947 1474 901 1474 c 0
 810 1474 733 1450 670 1402 c 0
 607 1354 576 1287 576 1201 c 0
 576 1142 593 1097 626 1068 c 0
 659 1039 699 1024 744 1024 c 0
 792 1024 845 1041 903 1076 c 0
 961 1111 1010 1155 1049 1208 c 1
EndSplineSet
EndChar

StartChar: guillemotleft
Encoding: 171 171 107
Width: 1229
GlyphClass: 2
Flags: MW
HStem: 62 993<689 689 689 1162>
VStem: 153 970
LayerCount: 2
Fore
SplineSet
1162 62 m 1
 778 481 l 1
 778 636 l 1
 1162 1055 l 1
 1275 946 l 1
 963 559 l 1
 1275 160 l 1
 1162 62 l 1
689 62 m 1
 305 481 l 1
 305 636 l 1
 689 1055 l 1
 801 946 l 1
 490 559 l 1
 801 160 l 1
 689 62 l 1
EndSplineSet
EndChar

StartChar: logicalnot
Encoding: 172 172 108
Width: 1229
GlyphClass: 2
Flags: MW
HStem: 465 156<141 1072 141 1227>
VStem: 1002 155
LayerCount: 2
Fore
SplineSet
141 621 m 1
 1227 621 l 1
 1227 155 l 1
 1072 155 l 1
 1072 465 l 1
 141 465 l 1
 141 621 l 1
EndSplineSet
EndChar

StartChar: sfthyphen
Encoding: 173 173 109
Width: 1229
GlyphClass: 2
Flags: MW
HStem: 551 155<453 1229 453 1229>
VStem: 227 776
LayerCount: 2
Fore
SplineSet
1229 551 m 1
 453 551 l 1
 453 706 l 1
 1229 706 l 1
 1229 551 l 1
EndSplineSet
EndChar

StartChar: registered
Encoding: 174 174 110
Width: 1229
GlyphClass: 2
Flags: MW
HStem: -47 125<574.5 659.5 574.5 746.5> 718 111<496 578 496 612> 1143 110<496 496 496 541> 1474 124<573.5 659.5>
VStem: 2 124 355 139 737 139 1104 124
LayerCount: 2
Fore
SplineSet
617 -47 m 0
 488 -47 380 -13 294 54 c 0
 208 121 138 218 84 345 c 0
 31 472 4 615 4 776 c 0
 4 931 29 1070 78 1194 c 0
 128 1318 197 1416 284 1489 c 0
 372 1562 483 1598 617 1598 c 0
 746 1598 854 1564 940 1496 c 0
 1027 1428 1097 1331 1150 1205 c 0
 1203 1079 1230 936 1230 776 c 0
 1230 615 1203 472 1149 345 c 0
 1042 92 876 -47 617 -47 c 0
617 78 m 0
 702 78 782 105 857 158 c 0
 932 212 992 296 1037 411 c 0
 1083 526 1106 647 1106 776 c 0
 1106 904 1083 1026 1037 1141 c 0
 991 1256 931 1341 856 1394 c 0
 781 1447 702 1474 617 1474 c 0
 530 1474 449 1446 373 1390 c 0
 298 1335 238 1250 194 1135 c 0
 150 1021 128 901 128 776 c 0
 128 646 151 523 198 407 c 0
 245 291 305 207 379 155 c 0
 453 104 532 78 617 78 c 0
578 718 m 1
 496 718 l 1
 496 339 l 1
 357 339 l 1
 357 1253 l 1
 577 1253 l 2
 694 1253 774 1231 815 1188 c 0
 857 1145 878 1097 878 1042 c 0
 878 942 824 831 704 763 c 1
 940 339 l 1
 774 339 l 1
 578 718 l 1
496 1143 m 1
 496 829 l 1
 612 829 l 1
 697 877 739 939 739 1016 c 0
 739 1055 725 1086 697 1109 c 0
 670 1132 618 1143 541 1143 c 2
 496 1143 l 1
EndSplineSet
EndChar

StartChar: macron
Encoding: 175 175 111
Width: 1229
GlyphClass: 2
Flags: MW
HStem: 1288 124<669 1228 669 1228>
VStem: 335 559
LayerCount: 2
Fore
SplineSet
1228 1288 m 1
 669 1288 l 1
 669 1412 l 1
 1228 1412 l 1
 1228 1288 l 1
EndSplineSet
EndChar

StartChar: degree
Encoding: 176 176 112
Width: 1229
GlyphClass: 2
Flags: MW
HStem: 1055 93<931.5 982 931.5 994.5> 1505 93<932.5 981.5>
VStem: 343 93 793 93
LayerCount: 2
Fore
SplineSet
957 1055 m 0
 881 1055 817 1082 764 1135 c 0
 711 1189 685 1253 685 1326 c 0
 685 1401 712 1465 765 1518 c 0
 819 1571 883 1598 957 1598 c 0
 1031 1598 1095 1571 1148 1518 c 0
 1201 1465 1228 1401 1228 1326 c 0
 1228 1253 1202 1189 1149 1135 c 0
 1096 1082 1032 1055 957 1055 c 0
957 1148 m 0
 1007 1148 1049 1166 1083 1202 c 0
 1118 1238 1135 1279 1135 1326 c 0
 1135 1375 1117 1417 1082 1452 c 0
 1047 1487 1006 1505 957 1505 c 0
 908 1505 865 1487 830 1452 c 0
 795 1417 778 1375 778 1326 c 0
 778 1279 795 1238 829 1202 c 0
 864 1166 906 1148 957 1148 c 0
EndSplineSet
EndChar

StartChar: plusminus
Encoding: 177 177 113
Width: 1229
GlyphClass: 2
Flags: MW
HStem: 0 155<141 1227 141 1227> 776 155<141 606 141 606 762 1227>
VStem: 536 156
LayerCount: 2
Fore
SplineSet
762 931 m 1
 1227 931 l 1
 1227 776 l 1
 762 776 l 1
 762 310 l 1
 606 310 l 1
 606 776 l 1
 141 776 l 1
 141 931 l 1
 606 931 l 1
 606 1396 l 1
 762 1396 l 1
 762 931 l 1
141 155 m 1
 1227 155 l 1
 1227 0 l 1
 141 0 l 1
 141 155 l 1
EndSplineSet
EndChar

StartChar: twosuperior
Encoding: 178 178 114
Width: 1229
GlyphClass: 2
Flags: MW
HStem: 644 132<636 1227 636 1227> 1474 124<830.5 871.5>
VStem: 238 161 820 155
LayerCount: 2
Fore
SplineSet
1227 776 m 1
 1227 644 l 1
 475 644 l 1
 475 760 l 2
 475 799 491 841 524 886 c 0
 557 931 618 987 707 1054 c 2
 791 1116 l 2
 888 1189 956 1243 997 1279 c 0
 1037 1314 1057 1346 1057 1375 c 0
 1057 1408 1034 1433 987 1449 c 0
 941 1466 895 1474 848 1474 c 0
 813 1474 772 1472 726 1467 c 0
 681 1462 607 1446 506 1417 c 1
 506 1542 l 1
 624 1579 746 1598 872 1598 c 0
 991 1598 1077 1578 1131 1539 c 0
 1185 1500 1212 1451 1212 1392 c 0
 1212 1348 1196 1304 1163 1261 c 0
 1130 1217 1067 1161 974 1094 c 2
 883 1029 l 1
 807 975 l 2
 711 904 645 847 636 776 c 1
 1227 776 l 1
EndSplineSet
EndChar

StartChar: threesuperior
Encoding: 179 179 115
Width: 1229
GlyphClass: 2
Flags: MW
HStem: 621 124<1072 1162.5 1072 1169.5> 1086 124<931 1014 931 1045> 1474 124<1067 1177.5 1064.5 1188.5>
VStem: 951 155 1013 155
LayerCount: 2
Fore
SplineSet
799 661 m 1xe8
 799 804 l 1
 918 765 1025 745 1119 745 c 0
 1206 745 1276 762 1330 795 c 0
 1385 829 1412 870 1412 917 c 0xe8
 1412 1030 1279 1086 1014 1086 c 2
 931 1086 l 1
 931 1210 l 1
 1045 1210 l 2
 1148 1210 1224 1226 1274 1258 c 0
 1325 1290 1350 1325 1350 1364 c 0
 1350 1428 1266 1474 1111 1474 c 0
 1023 1474 927 1460 822 1431 c 1
 822 1563 l 1
 927 1586 1022 1598 1107 1598 c 0
 1248 1598 1351 1576 1416 1531 c 0
 1469 1495 1505 1433 1505 1377 c 0
 1505 1342 1492 1305 1467 1266 c 0xf0
 1442 1227 1398 1195 1336 1168 c 1
 1484 1129 1567 1043 1567 926 c 0
 1567 835 1524 761 1438 705 c 0
 1353 649 1240 621 1099 621 c 0
 992 621 892 634 799 661 c 1xe8
EndSplineSet
EndChar

StartChar: acute
Encoding: 180 180 116
Width: 1229
GlyphClass: 2
Flags: MW
HStem: 1288 326<639 1151 639 1151>
VStem: 320 512
LayerCount: 2
Fore
SplineSet
809 1288 m 1
 639 1288 l 1
 935 1614 l 1
 1151 1614 l 1
 809 1288 l 1
EndSplineSet
EndChar

StartChar: mu
Encoding: 181 181 117
Width: 1229
GlyphClass: 2
Flags: MW
HStem: -31 162<628.5 664.5 605.5 704.5> 0 21G<1011 1197 1011 1011> 1097 20G<243 429 429 429 1011 1197 1197 1197>
VStem: 122 186 890 186
LayerCount: 2
Fore
SplineSet
1011 1117 m 1x78
 1197 1117 l 1
 1197 0 l 1
 1011 0 l 1x78
 1011 242 l 1
 910 53 769 -31 640 -31 c 0
 617 -31 593 -28 568 -23 c 0
 543 -18 522 -11 503 -2 c 0
 484 6 460 22 429 47 c 1
 429 -372 l 1
 243 -372 l 1
 243 1117 l 1
 429 1117 l 1
 429 468 l 2
 429 342 449 254 488 205 c 0
 527 156 576 131 635 131 c 0
 694 131 750 153 805 196 c 0xb8
 860 240 929 327 1011 458 c 1
 1011 1117 l 1x78
EndSplineSet
EndChar

StartChar: paragraph
Encoding: 182 182 118
Width: 1229
GlyphClass: 2
Flags: MW
HStem: 1396 156<794 949 794 794 1104 1267 1104 1104>
VStem: 552 156 863 155
LayerCount: 2
Fore
SplineSet
794 -372 m 1
 638 -372 l 1
 638 683 l 1
 481 699 365 749 288 833 c 0
 211 918 173 1015 173 1124 c 0
 173 1199 192 1270 229 1339 c 0
 266 1408 318 1460 385 1497 c 0
 452 1534 567 1552 730 1552 c 2
 1267 1552 l 1
 1267 1396 l 1
 1104 1396 l 1
 1104 -372 l 1
 949 -372 l 1
 949 1396 l 1
 794 1396 l 1
 794 -372 l 1
EndSplineSet
EndChar

StartChar: periodcentered
Encoding: 183 183 119
Width: 1229
GlyphClass: 2
Flags: MW
HStem: 380 326<1040.5 1087.5>
VStem: 451 326
LayerCount: 2
Fore
SplineSet
1064 706 m 0
 1111 706 1149 689 1180 655 c 0
 1211 622 1227 584 1227 543 c 0
 1227 502 1211 464 1180 430 c 0
 1149 397 1111 380 1064 380 c 0
 1017 380 978 397 947 430 c 0
 916 464 901 502 901 543 c 0
 901 584 916 622 947 655 c 0
 978 689 1017 706 1064 706 c 0
EndSplineSet
EndChar

StartChar: cedilla
Encoding: 184 184 120
Width: 1229
GlyphClass: 2
Flags: MW
HStem: -435 86<985.5 1077.5>
VStem: 444 341 654 131
LayerCount: 2
Fore
SplineSet
1020 0 m 1xc0
 1128 0 l 1
 1055 -131 l 1
 1126 -145 1173 -167 1195 -196 c 0
 1217 -226 1228 -257 1228 -289 c 0
 1228 -326 1213 -359 1184 -389 c 0
 1155 -420 1109 -435 1046 -435 c 0
 991 -435 938 -426 887 -407 c 1
 887 -318 l 1
 926 -339 965 -349 1006 -349 c 0
 1029 -349 1050 -342 1069 -328 c 0
 1088 -314 1097 -299 1097 -284 c 0xa0
 1097 -239 1035 -210 911 -197 c 1
 1020 0 l 1xc0
EndSplineSet
EndChar

StartChar: onesuperior
Encoding: 185 185 121
Width: 1229
GlyphClass: 2
Flags: MW
HStem: 644 124<537 847 987 1289 537 847> 1555 20G<851 987 987 987>
VStem: 579 140
LayerCount: 2
Fore
SplineSet
537 768 m 1
 847 768 l 1
 847 1431 l 1
 750 1377 647 1336 537 1309 c 1
 537 1435 l 1
 658 1471 763 1518 851 1575 c 1
 987 1575 l 1
 987 768 l 1
 1289 768 l 1
 1289 644 l 1
 537 644 l 1
 537 768 l 1
EndSplineSet
EndChar

StartChar: ordmasculine
Encoding: 186 186 122
Width: 1229
GlyphClass: 2
Flags: MW
HStem: 884 124<752 834.5 752 866> 1474 124<752 834.5>
VStem: 180 155 894 155
LayerCount: 2
Fore
SplineSet
793 884 m 0
 648 884 539 920 467 991 c 0
 395 1062 359 1146 359 1241 c 0
 359 1337 395 1420 467 1491 c 0
 539 1562 648 1598 793 1598 c 0
 939 1598 1048 1562 1120 1491 c 0
 1192 1420 1228 1337 1228 1241 c 0
 1228 1146 1192 1062 1120 991 c 0
 1048 920 939 884 793 884 c 0
793 1008 m 0
 876 1008 943 1028 995 1068 c 0
 1047 1108 1073 1166 1073 1241 c 0
 1073 1316 1047 1374 995 1414 c 0
 943 1454 876 1474 793 1474 c 0
 711 1474 644 1454 592 1414 c 0
 540 1374 514 1316 514 1241 c 0
 514 1166 540 1108 592 1068 c 0
 644 1028 711 1008 793 1008 c 0
EndSplineSet
EndChar

StartChar: guillemotright
Encoding: 187 187 123
Width: 1229
GlyphClass: 2
Flags: MW
HStem: 62 993<324 324 324 797>
VStem: 106 970
LayerCount: 2
Fore
SplineSet
324 1055 m 1
 707 636 l 1
 707 481 l 1
 324 62 l 1
 211 171 l 1
 523 559 l 1
 211 957 l 1
 324 1055 l 1
797 1055 m 1
 1181 636 l 1
 1181 481 l 1
 797 62 l 1
 684 171 l 1
 996 559 l 1
 684 957 l 1
 797 1055 l 1
EndSplineSet
EndChar

StartChar: onequarter
Encoding: 188 188 124
Width: 1229
GlyphClass: 2
Flags: MW
HStem: -47 21G<4 168 4 4> 0 21G<927 1082 927 927> 155 124<682 927 516 516 1082 1230> 776 124<4 237 400 516 4 237> 1532 20G<237 400 400 400> 1578 20G<1061 1230 1230 1230>
VStem: 235 163 925 155
LayerCount: 2
Fore
SplineSet
516 776 m 1
 4 776 l 1
 4 900 l 1
 237 900 l 1
 237 1398 l 1
 4 1243 l 1
 4 1398 l 1
 237 1552 l 1
 400 1552 l 1
 400 900 l 1
 516 900 l 1
 516 776 l 1
1230 1598 m 1
 168 -47 l 1
 4 -47 l 1
 1061 1598 l 1
 1230 1598 l 1
1082 155 m 1
 1082 0 l 1
 927 0 l 1
 927 155 l 1
 516 155 l 1
 516 279 l 1
 927 768 l 1
 1082 768 l 1
 1082 279 l 1
 1230 279 l 1
 1230 155 l 1
 1082 155 l 1
682 279 m 1
 927 279 l 1
 927 572 l 1
 682 279 l 1
EndSplineSet
EndChar

StartChar: onehalf
Encoding: 189 189 125
Width: 1229
GlyphClass: 2
Flags: MW
HStem: -47 21G<4 164 4 4> 0 124<795 1183 632 632> 644 124<899.5 912.5> 776 124<4 237 400 516 4 237> 1532 20G<237 400 400 400> 1578 20G<1062 1230 1230 1230>
VStem: 235 163 1026 155
LayerCount: 2
Fore
SplineSet
516 776 m 1
 4 776 l 1
 4 900 l 1
 237 900 l 1
 237 1398 l 1
 4 1243 l 1
 4 1398 l 1
 237 1552 l 1
 400 1552 l 1
 400 900 l 1
 516 900 l 1
 516 776 l 1
1230 1598 m 1
 164 -47 l 1
 4 -47 l 1
 1062 1598 l 1
 1230 1598 l 1
1183 124 m 1
 1183 0 l 1
 632 0 l 1
 632 124 l 2
 632 164 690 253 850 366 c 2
 910 408 l 2
 967 449 1001 478 1012 495 c 0
 1023 512 1028 531 1028 553 c 0
 1028 587 1014 611 987 624 c 0
 960 637 929 644 896 644 c 0
 841 644 777 624 702 584 c 1
 702 714 l 1
 791 750 868 768 931 768 c 0
 1010 768 1072 748 1116 709 c 0
 1161 670 1183 621 1183 561 c 0
 1183 512 1165 469 1130 430 c 0
 1095 391 1047 351 986 312 c 2
 941 282 l 2
 904 258 874 235 850 212 c 0
 826 189 811 175 795 124 c 1
 1183 124 l 1
EndSplineSet
EndChar

StartChar: threequarters
Encoding: 190 190 126
Width: 1229
GlyphClass: 2
Flags: MW
HStem: -47 21G<4 168 4 4> 0 21G<927 1082 927 927> 155 124<682 927 516 516 1082 1230> 776 124<273.5 334 273.5 337.5> 1102 124<128 201 128 209> 1427 125<286.5 303.5> 1578 20G<1061 1230 1230 1230>
VStem: 406 155 429 155 925 155
LayerCount: 2
Fore
SplineSet
201 1102 m 2xfec0
 128 1102 l 1
 128 1226 l 1
 209 1226 l 2
 301 1226 357 1238 377 1262 c 0
 398 1287 408 1310 408 1332 c 0
 408 1354 398 1375 378 1396 c 0
 359 1417 326 1427 281 1427 c 0
 235 1427 169 1414 82 1387 c 1
 82 1509 l 1
 170 1538 250 1552 323 1552 c 0
 410 1552 471 1531 508 1489 c 0
 545 1447 563 1403 563 1357 c 0
 563 1284 525 1223 446 1175 c 1
 539 1138 586 1081 586 1004 c 0
 586 948 561 896 511 848 c 0
 461 800 387 776 288 776 c 0
 219 776 151 787 82 809 c 1
 82 947 l 1
 177 916 249 900 298 900 c 0
 370 900 431 939 431 995 c 0
 431 1026 416 1051 386 1071 c 0
 357 1092 295 1102 201 1102 c 2xfec0
1230 1598 m 1
 168 -47 l 1
 4 -47 l 1xff40
 1061 1598 l 1
 1230 1598 l 1
1082 155 m 1
 1082 0 l 1
 927 0 l 1
 927 155 l 1
 516 155 l 1
 516 279 l 1
 927 768 l 1
 1082 768 l 1
 1082 279 l 1
 1230 279 l 1
 1230 155 l 1
 1082 155 l 1
682 279 m 1
 927 279 l 1
 927 572 l 1
 682 279 l 1
EndSplineSet
EndChar

StartChar: questiondown
Encoding: 191 191 127
Width: 1229
GlyphClass: 2
Flags: MW
HStem: -497 156<762.5 836 762.5 876.5> 1120 20G<880.5 919.5>
VStem: 176 202 641 187
LayerCount: 2
Fore
SplineSet
816 659 m 1
 1003 659 l 1
 1003 624 l 2
 1003 569 998 523 989 486 c 0
 970 413 921 340 816 228 c 2
 754 161 l 2
 743 149 725 129 702 100 c 2
 636 17 l 2
 581 -52 553 -112 553 -163 c 0
 553 -210 573 -251 613 -287 c 0
 653 -323 718 -341 807 -341 c 0
 865 -341 924 -333 985 -318 c 0
 1046 -303 1116 -272 1197 -227 c 1
 1197 -406 l 1
 1073 -467 944 -497 809 -497 c 0
 660 -497 546 -466 468 -405 c 0
 390 -344 351 -265 351 -168 c 0
 351 -72 401 28 502 132 c 2
 569 200 l 1
 646 280 l 1
 718 353 l 2
 744 383 767 417 786 454 c 0
 806 492 816 545 816 613 c 2
 816 659 l 1
900 853 m 0
 861 853 827 867 799 895 c 0
 771 924 757 958 757 997 c 0
 757 1036 771 1070 799 1098 c 0
 827 1126 861 1140 900 1140 c 0
 939 1140 972 1126 1001 1098 c 0
 1030 1071 1044 1037 1044 997 c 0
 1044 957 1030 923 1001 895 c 0
 972 867 939 853 900 853 c 0
EndSplineSet
EndChar

StartChar: Agrave
Encoding: 192 192 128
Width: 1229
GlyphClass: 2
Flags: MW
HStem: 0 21G<65 259 65 65 1016 1016 1016 1229> 341 155<364 865 412 865 412 910> 1532 20G<543 748 748 748>
VStem: 33 1164
LayerCount: 2
Fore
SplineSet
364 341 m 1
 259 0 l 1
 65 0 l 1
 543 1552 l 1
 748 1552 l 1
 1229 0 l 1
 1016 0 l 1
 910 341 l 1
 364 341 l 1
595 1085 m 1
 412 496 l 1
 865 496 l 1
 678 1085 l 1
 634 1241 l 1
 595 1085 l 1
604 2048 m 1
 900 1722 l 1
 730 1722 l 1
 388 2048 l 1
 604 2048 l 1
EndSplineSet
EndChar

StartChar: Aacute
Encoding: 193 193 129
Width: 1229
GlyphClass: 2
Flags: MW
HStem: 0 21G<65 259 65 65 1016 1016 1016 1229> 341 155<364 865 412 865 412 910> 1532 20G<543 748 748 748>
VStem: 33 1164
LayerCount: 2
Fore
SplineSet
364 341 m 1
 259 0 l 1
 65 0 l 1
 543 1552 l 1
 748 1552 l 1
 1229 0 l 1
 1016 0 l 1
 910 341 l 1
 364 341 l 1
595 1085 m 1
 412 496 l 1
 865 496 l 1
 678 1085 l 1
 634 1241 l 1
 595 1085 l 1
558 1722 m 1
 388 1722 l 1
 684 2048 l 1
 900 2048 l 1
 558 1722 l 1
EndSplineSet
EndChar

StartChar: Acircumflex
Encoding: 194 194 130
Width: 1229
GlyphClass: 2
Flags: MW
HStem: 0 21G<65 259 65 65 1016 1016 1016 1229> 341 155<364 865 412 865 412 910> 1532 20G<543 748 748 748>
VStem: 33 1164
LayerCount: 2
Fore
SplineSet
364 341 m 1
 259 0 l 1
 65 0 l 1
 543 1552 l 1
 748 1552 l 1
 1229 0 l 1
 1016 0 l 1
 910 341 l 1
 364 341 l 1
595 1085 m 1
 412 496 l 1
 865 496 l 1
 678 1085 l 1
 634 1241 l 1
 595 1085 l 1
786 1722 m 1
 647 1890 l 1
 507 1722 l 1
 352 1722 l 1
 585 2048 l 1
 709 2048 l 1
 942 1722 l 1
 786 1722 l 1
EndSplineSet
EndChar

StartChar: Atilde
Encoding: 195 195 131
Width: 1229
GlyphClass: 2
Flags: MW
HStem: 0 21G<65 259 65 65 1016 1016 1016 1229> 341 155<364 865 412 865 412 910> 1532 20G<543 748 748 748> 1721 140<784 815 784 829.5> 1838 140<513.5 531.5>
VStem: 298 125 823 127
LayerCount: 2
Fore
SplineSet
364 341 m 1xf6
 259 0 l 1
 65 0 l 1
 543 1552 l 1
 748 1552 l 1
 1229 0 l 1
 1016 0 l 1
 910 341 l 1
 364 341 l 1xf6
595 1085 m 1
 412 496 l 1
 865 496 l 1
 678 1085 l 1
 634 1241 l 1
 595 1085 l 1
455 1722 m 1
 330 1722 l 1
 330 1898 407 1978 511 1978 c 0
 552 1978 594 1965 637 1938 c 2xee
 679 1913 l 2
 734 1878 773 1861 795 1861 c 0
 835 1861 855 1900 855 1978 c 1
 982 1978 l 1
 978 1910 969 1860 955 1829 c 0
 927 1766 864 1721 795 1721 c 0
 752 1721 705 1737 654 1770 c 2
 610 1798 l 1xf6
 586 1815 l 2
 563 1830 542 1838 521 1838 c 0
 506 1838 492 1830 477 1815 c 0xee
 462 1800 455 1769 455 1722 c 1
EndSplineSet
EndChar

StartChar: Adieresis
Encoding: 196 196 132
Width: 1229
GlyphClass: 2
Flags: MW
HStem: 0 21G<65 259 65 65 1016 1016 1016 1229> 341 155<364 865 412 865 412 910> 1532 20G<543 748 748 748> 1722 248<412.5 445.5 412.5 446 847.5 880.5>
VStem: 33 1164
LayerCount: 2
Fore
SplineSet
364 341 m 1
 259 0 l 1
 65 0 l 1
 543 1552 l 1
 748 1552 l 1
 1229 0 l 1
 1016 0 l 1
 910 341 l 1
 364 341 l 1
595 1085 m 1
 412 496 l 1
 865 496 l 1
 678 1085 l 1
 634 1241 l 1
 595 1085 l 1
429 1722 m 0
 395 1722 366 1734 341 1758 c 0
 317 1782 305 1811 305 1846 c 0
 305 1881 317 1910 342 1934 c 0
 367 1958 396 1970 429 1970 c 0
 462 1970 491 1958 516 1934 c 0
 541 1910 553 1881 553 1846 c 0
 553 1811 541 1782 516 1758 c 0
 492 1734 463 1722 429 1722 c 0
864 1722 m 0
 830 1722 801 1734 776 1758 c 0
 751 1782 739 1811 739 1846 c 0
 739 1881 751 1910 776 1934 c 0
 801 1958 831 1970 864 1970 c 0
 897 1970 926 1958 951 1934 c 0
 976 1910 988 1881 988 1846 c 0
 988 1811 976 1782 951 1758 c 0
 926 1734 897 1722 864 1722 c 0
EndSplineSet
EndChar

StartChar: Aring
Encoding: 197 197 133
Width: 1229
GlyphClass: 2
Flags: MW
HStem: 0 21G<65 259 65 65 1016 1229 1016 1016> 341 155<412 865 412 910 364 865> 1532 20G<543 543 748 748> 1800 93<632.5 670.5>
VStem: 427 93 706 93
LayerCount: 2
Fore
SplineSet
748 1552 m 1
 1229 0 l 1
 1016 0 l 1
 910 341 l 1
 364 341 l 1
 259 0 l 1
 65 0 l 1
 543 1552 l 1
 487 1593 459 1644 459 1707 c 0
 459 1757 477 1800 513 1837 c 0
 550 1874 594 1893 645 1893 c 0
 696 1893 740 1875 776 1838 c 0
 813 1801 831 1758 831 1707 c 0
 831 1646 804 1593 748 1552 c 1
595 1085 m 1
 412 496 l 1
 865 496 l 1
 678 1085 l 1
 634 1241 l 1
 595 1085 l 1
552 1707 m 0
 552 1656 594 1614 645 1614 c 0
 696 1614 738 1656 738 1707 c 0
 738 1758 696 1800 645 1800 c 0
 620 1800 598 1791 579 1772 c 0
 561 1753 552 1732 552 1707 c 0
EndSplineSet
EndChar

StartChar: AE
Encoding: 198 198 134
Width: 1229
GlyphClass: 2
Flags: MW
HStem: 0 171<826 1183 826 1183> 372 140<383 640 383 640 326 640> 706 155<826 1168 826 1168> 1396 156<826 1183 826 826>
VStem: 638 186
LayerCount: 2
Fore
SplineSet
1183 0 m 1
 640 0 l 1
 640 372 l 1
 326 372 l 1
 174 0 l 1
 4 0 l 1
 640 1552 l 1
 1183 1552 l 1
 1183 1396 l 1
 826 1396 l 1
 826 861 l 1
 1168 861 l 1
 1168 706 l 1
 826 706 l 1
 826 171 l 1
 1183 171 l 1
 1183 0 l 1
640 1134 m 1
 383 512 l 1
 640 512 l 1
 640 1134 l 1
EndSplineSet
EndChar

StartChar: Ccedilla
Encoding: 199 199 135
Width: 1229
GlyphClass: 2
Flags: MW
HStem: -435 86<754.5 846.5> -49 157<869 895.5> -37 21G<768 768> 1443 156<845 938>
VStem: 118 209 749 131
LayerCount: 2
Fore
SplineSet
1205 1534 m 1xbc
 1205 1350 l 1
 1098 1412 991 1443 885 1443 c 0
 805 1443 732 1416 665 1361 c 0
 599 1306 546 1226 505 1120 c 0
 464 1015 444 900 444 776 c 0
 444 650 465 534 507 427 c 0
 591 214 726 108 885 108 c 0
 990 108 1097 139 1205 201 c 1
 1205 18 l 1
 1120 -13 1056 -31 1013 -38 c 0
 970 -45 922 -49 869 -49 c 1
 824 -131 l 1xdc
 895 -145 942 -167 964 -196 c 0
 986 -226 997 -257 997 -289 c 0
 997 -326 982 -359 953 -389 c 0
 924 -420 878 -435 815 -435 c 0
 760 -435 707 -426 656 -407 c 1
 656 -318 l 1
 695 -339 734 -349 775 -349 c 0
 798 -349 819 -342 838 -328 c 0
 857 -314 866 -299 866 -284 c 0
 866 -239 804 -210 680 -197 c 1
 768 -37 l 1
 639 -4 535 50 458 127 c 0
 305 282 235 482 235 754 c 0
 235 1023 297 1231 422 1378 c 0
 547 1525 704 1599 893 1599 c 0
 985 1599 1089 1577 1205 1534 c 1xbc
EndSplineSet
EndChar

StartChar: Egrave
Encoding: 200 200 136
Width: 1229
GlyphClass: 2
Flags: MW
HStem: 0 171<607 1243 607 1243> 714 155<607 1165 607 1165> 1396 156<607 1227 607 607>
VStem: 203 202
LayerCount: 2
Fore
SplineSet
607 171 m 1
 1243 171 l 1
 1243 0 l 1
 405 0 l 1
 405 1552 l 1
 1227 1552 l 1
 1227 1396 l 1
 607 1396 l 1
 607 869 l 1
 1165 869 l 1
 1165 714 l 1
 607 714 l 1
 607 171 l 1
785 2048 m 1
 1081 1722 l 1
 911 1722 l 1
 569 2048 l 1
 785 2048 l 1
EndSplineSet
EndChar

StartChar: Eacute
Encoding: 201 201 137
Width: 1229
GlyphClass: 2
Flags: MW
HStem: 0 171<607 1243 607 1243> 714 155<607 1165 607 1165> 1396 156<607 1227 607 607>
VStem: 203 202
LayerCount: 2
Fore
SplineSet
607 171 m 1
 1243 171 l 1
 1243 0 l 1
 405 0 l 1
 405 1552 l 1
 1227 1552 l 1
 1227 1396 l 1
 607 1396 l 1
 607 869 l 1
 1165 869 l 1
 1165 714 l 1
 607 714 l 1
 607 171 l 1
739 1722 m 1
 569 1722 l 1
 865 2048 l 1
 1081 2048 l 1
 739 1722 l 1
EndSplineSet
EndChar

StartChar: Ecircumflex
Encoding: 202 202 138
Width: 1229
GlyphClass: 2
Flags: MW
HStem: 0 171<607 1243 607 1243> 714 155<607 1165 607 1165> 1396 156<607 1227 607 607>
VStem: 203 202
LayerCount: 2
Fore
SplineSet
607 171 m 1
 1243 171 l 1
 1243 0 l 1
 405 0 l 1
 405 1552 l 1
 1227 1552 l 1
 1227 1396 l 1
 607 1396 l 1
 607 869 l 1
 1165 869 l 1
 1165 714 l 1
 607 714 l 1
 607 171 l 1
956 1722 m 1
 817 1890 l 1
 677 1722 l 1
 522 1722 l 1
 755 2048 l 1
 879 2048 l 1
 1112 1722 l 1
 956 1722 l 1
EndSplineSet
EndChar

StartChar: Edieresis
Encoding: 203 203 139
Width: 1229
GlyphClass: 2
Flags: MW
HStem: 0 171<607 1243 607 1243> 714 155<607 1165 607 1165> 1396 156<607 1227 607 607> 1722 248<590.5 623.5 590.5 624 1025.5 1058.5>
VStem: 203 202 715 326
LayerCount: 2
Fore
SplineSet
607 171 m 1
 1243 171 l 1
 1243 0 l 1
 405 0 l 1
 405 1552 l 1
 1227 1552 l 1
 1227 1396 l 1
 607 1396 l 1
 607 869 l 1
 1165 869 l 1
 1165 714 l 1
 607 714 l 1
 607 171 l 1
607 1722 m 0
 573 1722 544 1734 519 1758 c 0
 495 1782 483 1811 483 1846 c 0
 483 1881 495 1910 520 1934 c 0
 545 1958 574 1970 607 1970 c 0
 640 1970 669 1958 694 1934 c 0
 719 1910 731 1881 731 1846 c 0
 731 1811 719 1782 694 1758 c 0
 670 1734 641 1722 607 1722 c 0
1042 1722 m 0
 1008 1722 979 1734 954 1758 c 0
 929 1782 917 1811 917 1846 c 0
 917 1881 929 1910 954 1934 c 0
 979 1958 1009 1970 1042 1970 c 0
 1075 1970 1104 1958 1129 1934 c 0
 1154 1910 1166 1881 1166 1846 c 0
 1166 1811 1154 1782 1129 1758 c 0
 1104 1734 1075 1722 1042 1722 c 0
EndSplineSet
EndChar

StartChar: Igrave
Encoding: 204 204 140
Width: 1229
GlyphClass: 2
Flags: MW
HStem: 0 155<343 684 886 1227 343 684> 1396 156<343 684 343 1227 886 886 886 1227>
VStem: 513 202
LayerCount: 2
Fore
SplineSet
1227 0 m 1
 343 0 l 1
 343 155 l 1
 684 155 l 1
 684 1396 l 1
 343 1396 l 1
 343 1552 l 1
 1227 1552 l 1
 1227 1396 l 1
 886 1396 l 1
 886 155 l 1
 1227 155 l 1
 1227 0 l 1
746 2048 m 1
 1042 1722 l 1
 872 1722 l 1
 530 2048 l 1
 746 2048 l 1
EndSplineSet
EndChar

StartChar: Iacute
Encoding: 205 205 141
Width: 1229
GlyphClass: 2
Flags: MW
HStem: 0 155<343 684 886 1227 343 684> 1396 156<343 684 343 1227 886 886 886 1227>
VStem: 513 202
LayerCount: 2
Fore
SplineSet
1227 0 m 1
 343 0 l 1
 343 155 l 1
 684 155 l 1
 684 1396 l 1
 343 1396 l 1
 343 1552 l 1
 1227 1552 l 1
 1227 1396 l 1
 886 1396 l 1
 886 155 l 1
 1227 155 l 1
 1227 0 l 1
700 1722 m 1
 530 1722 l 1
 826 2048 l 1
 1042 2048 l 1
 700 1722 l 1
EndSplineSet
EndChar

StartChar: Icircumflex
Encoding: 206 206 142
Width: 1229
GlyphClass: 2
Flags: MW
HStem: 0 155<343 684 886 1227 343 684> 1396 156<343 684 343 1227 886 886 886 1227>
VStem: 513 202
LayerCount: 2
Fore
SplineSet
1227 0 m 1
 343 0 l 1
 343 155 l 1
 684 155 l 1
 684 1396 l 1
 343 1396 l 1
 343 1552 l 1
 1227 1552 l 1
 1227 1396 l 1
 886 1396 l 1
 886 155 l 1
 1227 155 l 1
 1227 0 l 1
925 1722 m 1
 786 1890 l 1
 646 1722 l 1
 491 1722 l 1
 724 2048 l 1
 848 2048 l 1
 1081 1722 l 1
 925 1722 l 1
EndSplineSet
EndChar

StartChar: Idieresis
Encoding: 207 207 143
Width: 1229
GlyphClass: 2
Flags: MW
HStem: 0 155<343 684 886 1227 343 684> 1396 156<343 684 343 1227 886 886 886 1227> 1722 248<551.5 584.5 551.5 585 986.5 1019.5>
VStem: 513 202
LayerCount: 2
Fore
SplineSet
1227 0 m 1
 343 0 l 1
 343 155 l 1
 684 155 l 1
 684 1396 l 1
 343 1396 l 1
 343 1552 l 1
 1227 1552 l 1
 1227 1396 l 1
 886 1396 l 1
 886 155 l 1
 1227 155 l 1
 1227 0 l 1
568 1722 m 0
 534 1722 505 1734 480 1758 c 0
 456 1782 444 1811 444 1846 c 0
 444 1881 456 1910 481 1934 c 0
 506 1958 535 1970 568 1970 c 0
 601 1970 630 1958 655 1934 c 0
 680 1910 692 1881 692 1846 c 0
 692 1811 680 1782 655 1758 c 0
 631 1734 602 1722 568 1722 c 0
1003 1722 m 0
 969 1722 940 1734 915 1758 c 0
 890 1782 878 1811 878 1846 c 0
 878 1881 890 1910 915 1934 c 0
 940 1958 970 1970 1003 1970 c 0
 1036 1970 1065 1958 1090 1934 c 0
 1115 1910 1127 1881 1127 1846 c 0
 1127 1811 1115 1782 1090 1758 c 0
 1065 1734 1036 1722 1003 1722 c 0
EndSplineSet
EndChar

StartChar: Eth
Encoding: 208 208 144
Width: 1229
GlyphClass: 2
Flags: MW
HStem: 0 171<361 496 496 569> 714 155<4 159 4 159 361 609> 1396 156<361 512 361 361>
VStem: 157 202 949 201
LayerCount: 2
Fore
SplineSet
569 0 m 2
 159 0 l 1
 159 714 l 1
 4 714 l 1
 4 869 l 1
 159 869 l 1
 159 1552 l 1
 527 1552 l 2
 709 1552 836 1526 909 1475 c 0
 982 1424 1040 1334 1085 1207 c 0
 1130 1080 1152 935 1152 772 c 0
 1152 617 1130 479 1085 358 c 0
 1040 237 982 147 909 88 c 0
 836 29 723 0 569 0 c 2
361 714 m 1
 361 171 l 1
 496 171 l 2
 642 171 740 192 791 234 c 0
 894 319 951 500 951 804 c 0
 951 953 937 1069 909 1153 c 0
 882 1238 844 1299 795 1338 c 0
 747 1377 653 1396 512 1396 c 2
 361 1396 l 1
 361 869 l 1
 609 869 l 1
 609 714 l 1
 361 714 l 1
EndSplineSet
EndChar

StartChar: Ntilde
Encoding: 209 209 145
Width: 1229
GlyphClass: 2
Flags: MW
HStem: 0 21G<251 437 251 251 1042 1042 1042 1228> 1532 20G<251 433 433 433 1042 1228 1228 1228> 1721 140<877 908 877 922.5> 1838 140<606.5 624.5>
VStem: 126 186 298 125 823 127 917 186
LayerCount: 2
Fore
SplineSet
437 1018 m 1xe9
 437 0 l 1
 251 0 l 1
 251 1552 l 1
 433 1552 l 1
 982 519 l 1
 1042 365 l 1
 1047 365 l 1
 1042 519 l 1
 1042 1552 l 1
 1228 1552 l 1
 1228 0 l 1
 1042 0 l 1
 508 1016 l 1
 433 1179 l 1
 437 1018 l 1xe9
548 1722 m 1
 423 1722 l 1
 423 1898 500 1978 604 1978 c 0
 645 1978 687 1965 730 1938 c 2xd5
 772 1913 l 2
 827 1878 866 1861 888 1861 c 0
 928 1861 948 1900 948 1978 c 1xea
 1075 1978 l 1
 1071 1910 1062 1860 1048 1829 c 0
 1020 1766 957 1721 888 1721 c 0
 845 1721 798 1737 747 1770 c 2
 703 1798 l 1xe9
 679 1815 l 2
 656 1830 635 1838 614 1838 c 0
 599 1838 585 1830 570 1815 c 0xd5
 555 1800 548 1769 548 1722 c 1
EndSplineSet
EndChar

StartChar: Ograve
Encoding: 210 210 146
Width: 1229
GlyphClass: 2
Flags: MW
HStem: -47 156<635.5 732.5 635.5 772.5> 1443 155<635.5 732.5>
VStem: 71 202 955 202
LayerCount: 2
Fore
SplineSet
684 -47 m 0
 508 -47 373 27 280 175 c 0
 187 324 141 524 141 776 c 0
 141 1027 187 1227 280 1375 c 0
 373 1524 508 1598 684 1598 c 0
 861 1598 995 1524 1088 1375 c 0
 1181 1227 1227 1027 1227 776 c 0
 1227 524 1181 324 1088 175 c 0
 995 27 861 -47 684 -47 c 0
684 109 m 0
 781 109 862 164 927 274 c 0
 992 385 1025 552 1025 776 c 0
 1025 1000 992 1167 927 1277 c 0
 862 1388 781 1443 684 1443 c 0
 587 1443 505 1388 440 1277 c 0
 375 1167 343 1000 343 776 c 0
 343 552 375 385 440 274 c 0
 505 164 587 109 684 109 c 0
645 2048 m 1
 941 1722 l 1
 771 1722 l 1
 429 2048 l 1
 645 2048 l 1
EndSplineSet
EndChar

StartChar: Oacute
Encoding: 211 211 147
Width: 1229
GlyphClass: 2
Flags: MW
HStem: -47 156<635.5 732.5 635.5 772.5> 1443 155<635.5 732.5>
VStem: 71 202 955 202
LayerCount: 2
Fore
SplineSet
684 -47 m 0
 508 -47 373 27 280 175 c 0
 187 324 141 524 141 776 c 0
 141 1027 187 1227 280 1375 c 0
 373 1524 508 1598 684 1598 c 0
 861 1598 995 1524 1088 1375 c 0
 1181 1227 1227 1027 1227 776 c 0
 1227 524 1181 324 1088 175 c 0
 995 27 861 -47 684 -47 c 0
684 109 m 0
 781 109 862 164 927 274 c 0
 992 385 1025 552 1025 776 c 0
 1025 1000 992 1167 927 1277 c 0
 862 1388 781 1443 684 1443 c 0
 587 1443 505 1388 440 1277 c 0
 375 1167 343 1000 343 776 c 0
 343 552 375 385 440 274 c 0
 505 164 587 109 684 109 c 0
599 1722 m 1
 429 1722 l 1
 725 2048 l 1
 941 2048 l 1
 599 1722 l 1
EndSplineSet
EndChar

StartChar: Ocircumflex
Encoding: 212 212 148
Width: 1229
GlyphClass: 2
Flags: MW
HStem: -47 156<635.5 732.5 635.5 772.5> 1443 155<635.5 732.5>
VStem: 71 202 955 202
LayerCount: 2
Fore
SplineSet
684 -47 m 0
 508 -47 373 27 280 175 c 0
 187 324 141 524 141 776 c 0
 141 1027 187 1227 280 1375 c 0
 373 1524 508 1598 684 1598 c 0
 861 1598 995 1524 1088 1375 c 0
 1181 1227 1227 1027 1227 776 c 0
 1227 524 1181 324 1088 175 c 0
 995 27 861 -47 684 -47 c 0
684 109 m 0
 781 109 862 164 927 274 c 0
 992 385 1025 552 1025 776 c 0
 1025 1000 992 1167 927 1277 c 0
 862 1388 781 1443 684 1443 c 0
 587 1443 505 1388 440 1277 c 0
 375 1167 343 1000 343 776 c 0
 343 552 375 385 440 274 c 0
 505 164 587 109 684 109 c 0
824 1722 m 1
 685 1890 l 1
 545 1722 l 1
 390 1722 l 1
 623 2048 l 1
 747 2048 l 1
 980 1722 l 1
 824 1722 l 1
EndSplineSet
EndChar

StartChar: Otilde
Encoding: 213 213 149
Width: 1229
GlyphClass: 2
Flags: MW
HStem: -47 156<635.5 732.5 635.5 772.5> 1443 155<635.5 732.5> 1721 140<813 844 813 858.5> 1838 140<542.5 560.5>
VStem: 71 202 289 125 814 127 955 202
LayerCount: 2
Fore
SplineSet
684 -47 m 0xe9
 508 -47 373 27 280 175 c 0
 187 324 141 524 141 776 c 0
 141 1027 187 1227 280 1375 c 0
 373 1524 508 1598 684 1598 c 0
 861 1598 995 1524 1088 1375 c 0
 1181 1227 1227 1027 1227 776 c 0
 1227 524 1181 324 1088 175 c 0
 995 27 861 -47 684 -47 c 0xe9
684 109 m 0
 781 109 862 164 927 274 c 0
 992 385 1025 552 1025 776 c 0
 1025 1000 992 1167 927 1277 c 0
 862 1388 781 1443 684 1443 c 0
 587 1443 505 1388 440 1277 c 0
 375 1167 343 1000 343 776 c 0
 343 552 375 385 440 274 c 0
 505 164 587 109 684 109 c 0
484 1722 m 1xed
 359 1722 l 1
 359 1898 436 1978 540 1978 c 0
 581 1978 623 1965 666 1938 c 2xdd
 708 1913 l 2
 763 1878 802 1861 824 1861 c 0
 864 1861 884 1900 884 1978 c 1
 1011 1978 l 1
 1007 1910 998 1860 984 1829 c 0
 956 1766 893 1721 824 1721 c 0
 781 1721 734 1737 683 1770 c 2
 639 1798 l 1xeb
 615 1815 l 2
 592 1830 571 1838 550 1838 c 0
 535 1838 521 1830 506 1815 c 0xdd
 491 1800 484 1769 484 1722 c 1xed
EndSplineSet
EndChar

StartChar: Odieresis
Encoding: 214 214 150
Width: 1229
GlyphClass: 2
Flags: MW
HStem: -47 156<635.5 732.5 635.5 772.5> 1443 155<635.5 732.5> 1722 248<450.5 483.5 450.5 484 885.5 918.5>
VStem: 71 202 955 202
LayerCount: 2
Fore
SplineSet
684 -47 m 0
 508 -47 373 27 280 175 c 0
 187 324 141 524 141 776 c 0
 141 1027 187 1227 280 1375 c 0
 373 1524 508 1598 684 1598 c 0
 861 1598 995 1524 1088 1375 c 0
 1181 1227 1227 1027 1227 776 c 0
 1227 524 1181 324 1088 175 c 0
 995 27 861 -47 684 -47 c 0
684 109 m 0
 781 109 862 164 927 274 c 0
 992 385 1025 552 1025 776 c 0
 1025 1000 992 1167 927 1277 c 0
 862 1388 781 1443 684 1443 c 0
 587 1443 505 1388 440 1277 c 0
 375 1167 343 1000 343 776 c 0
 343 552 375 385 440 274 c 0
 505 164 587 109 684 109 c 0
467 1722 m 0
 433 1722 404 1734 379 1758 c 0
 355 1782 343 1811 343 1846 c 0
 343 1881 355 1910 380 1934 c 0
 405 1958 434 1970 467 1970 c 0
 500 1970 529 1958 554 1934 c 0
 579 1910 591 1881 591 1846 c 0
 591 1811 579 1782 554 1758 c 0
 530 1734 501 1722 467 1722 c 0
902 1722 m 0
 868 1722 839 1734 814 1758 c 0
 789 1782 777 1811 777 1846 c 0
 777 1881 789 1910 814 1934 c 0
 839 1958 869 1970 902 1970 c 0
 935 1970 964 1958 989 1934 c 0
 1014 1910 1026 1881 1026 1846 c 0
 1026 1811 1014 1782 989 1758 c 0
 964 1734 935 1722 902 1722 c 0
EndSplineSet
EndChar

StartChar: multiply
Encoding: 215 215 151
Width: 1229
GlyphClass: 2
Flags: MW
HStem: 0 21G<254 254 1114 1114>
VStem: 71 1086
LayerCount: 2
Fore
SplineSet
1227 112 m 1
 1114 0 l 1
 685 436 l 1
 254 0 l 1
 141 112 l 1
 576 541 l 1
 141 979 l 1
 254 1086 l 1
 685 656 l 1
 1114 1086 l 1
 1227 979 l 1
 795 541 l 1
 1227 112 l 1
EndSplineSet
EndChar

StartChar: Oslash
Encoding: 216 216 152
Width: 1229
GlyphClass: 2
Flags: MW
HStem: -47 156<646.5 737 642.5 738.5> 1443 155<632.5 697 598 702.5>
VStem: 71 202 955 202
LayerCount: 2
Fore
SplineSet
376 69 m 1
 279 -109 l 1
 141 -109 l 1
 289 167 l 1
 247 234 217 297 199 356 c 0
 163 476 141 624 141 785 c 0
 141 1050 190 1252 288 1390 c 0
 387 1529 517 1598 679 1598 c 0
 715 1598 752 1594 790 1586 c 0
 829 1579 863 1569 893 1556 c 0
 923 1543 959 1521 1001 1488 c 1
 1094 1660 l 1
 1227 1660 l 1
 1085 1387 l 1
 1126 1318 1155 1257 1172 1202 c 0
 1189 1147 1203 1080 1212 1000 c 0
 1222 921 1227 842 1227 765 c 0
 1227 599 1205 454 1160 329 c 0
 1116 204 1056 110 980 47 c 0
 905 -16 803 -47 674 -47 c 0
 619 -47 571 -41 530 -28 c 0
 489 -15 438 17 376 69 c 1
391 360 m 1
 916 1329 l 1
 875 1378 835 1409 796 1422 c 0
 758 1436 721 1443 684 1443 c 0
 581 1443 499 1385 436 1268 c 0
 374 1152 343 992 343 789 c 0
 343 757 344 708 346 642 c 0
 348 577 352 527 357 493 c 0
 363 459 374 415 391 360 c 1
981 1195 m 1
 460 225 l 1
 531 137 606 109 679 109 c 0
 795 109 882 170 939 293 c 0
 996 416 1025 578 1025 777 c 0
 1025 812 1024 858 1022 915 c 0
 1020 972 1016 1019 1011 1055 c 0
 1006 1092 996 1138 981 1195 c 1
EndSplineSet
EndChar

StartChar: Ugrave
Encoding: 217 217 153
Width: 1229
GlyphClass: 2
Flags: MW
HStem: -47 155<687.5 774 687.5 838.5> 1532 20G<251 453 453 453 1042 1228 1228 1228>
VStem: 126 202 917 186
LayerCount: 2
Fore
SplineSet
251 559 m 2
 251 1552 l 1
 453 1552 l 1
 453 533 l 2
 453 399 464 307 486 258 c 0
 531 161 631 108 744 108 c 0
 804 108 857 122 904 149 c 0
 951 177 986 220 1008 279 c 0
 1031 338 1042 449 1042 612 c 2
 1042 1552 l 1
 1228 1552 l 1
 1228 539 l 2
 1228 394 1206 281 1163 199 c 0
 1078 36 944 -47 733 -47 c 0
 636 -47 550 -29 476 7 c 0
 402 43 346 97 308 169 c 0
 270 241 251 371 251 559 c 2
700 2048 m 1
 996 1722 l 1
 826 1722 l 1
 484 2048 l 1
 700 2048 l 1
EndSplineSet
EndChar

StartChar: Uacute
Encoding: 218 218 154
Width: 1229
GlyphClass: 2
Flags: MW
HStem: -47 155<687.5 774 687.5 838.5> 1532 20G<251 453 453 453 1042 1228 1228 1228>
VStem: 126 202 917 186
LayerCount: 2
Fore
SplineSet
251 559 m 2
 251 1552 l 1
 453 1552 l 1
 453 533 l 2
 453 399 464 307 486 258 c 0
 531 161 631 108 744 108 c 0
 804 108 857 122 904 149 c 0
 951 177 986 220 1008 279 c 0
 1031 338 1042 449 1042 612 c 2
 1042 1552 l 1
 1228 1552 l 1
 1228 539 l 2
 1228 394 1206 281 1163 199 c 0
 1078 36 944 -47 733 -47 c 0
 636 -47 550 -29 476 7 c 0
 402 43 346 97 308 169 c 0
 270 241 251 371 251 559 c 2
654 1722 m 1
 484 1722 l 1
 780 2048 l 1
 996 2048 l 1
 654 1722 l 1
EndSplineSet
EndChar

StartChar: Ucircumflex
Encoding: 219 219 155
Width: 1229
GlyphClass: 2
Flags: MW
HStem: -47 155<687.5 774 687.5 838.5> 1532 20G<251 453 453 453 1042 1228 1228 1228>
VStem: 126 202 917 186
LayerCount: 2
Fore
SplineSet
251 559 m 2
 251 1552 l 1
 453 1552 l 1
 453 533 l 2
 453 399 464 307 486 258 c 0
 531 161 631 108 744 108 c 0
 804 108 857 122 904 149 c 0
 951 177 986 220 1008 279 c 0
 1031 338 1042 449 1042 612 c 2
 1042 1552 l 1
 1228 1552 l 1
 1228 539 l 2
 1228 394 1206 281 1163 199 c 0
 1078 36 944 -47 733 -47 c 0
 636 -47 550 -29 476 7 c 0
 402 43 346 97 308 169 c 0
 270 241 251 371 251 559 c 2
879 1722 m 1
 740 1890 l 1
 600 1722 l 1
 445 1722 l 1
 678 2048 l 1
 802 2048 l 1
 1035 1722 l 1
 879 1722 l 1
EndSplineSet
EndChar

StartChar: Udieresis
Encoding: 220 220 156
Width: 1229
GlyphClass: 2
Flags: MW
HStem: -47 155<687.5 774 687.5 838.5> 1532 20G<251 453 453 453 1042 1228 1228 1228> 1722 248<505.5 538.5 505.5 539 940.5 973.5>
VStem: 126 202 917 186
LayerCount: 2
Fore
SplineSet
251 559 m 2
 251 1552 l 1
 453 1552 l 1
 453 533 l 2
 453 399 464 307 486 258 c 0
 531 161 631 108 744 108 c 0
 804 108 857 122 904 149 c 0
 951 177 986 220 1008 279 c 0
 1031 338 1042 449 1042 612 c 2
 1042 1552 l 1
 1228 1552 l 1
 1228 539 l 2
 1228 394 1206 281 1163 199 c 0
 1078 36 944 -47 733 -47 c 0
 636 -47 550 -29 476 7 c 0
 402 43 346 97 308 169 c 0
 270 241 251 371 251 559 c 2
522 1722 m 0
 488 1722 459 1734 434 1758 c 0
 410 1782 398 1811 398 1846 c 0
 398 1881 410 1910 435 1934 c 0
 460 1958 489 1970 522 1970 c 0
 555 1970 584 1958 609 1934 c 0
 634 1910 646 1881 646 1846 c 0
 646 1811 634 1782 609 1758 c 0
 585 1734 556 1722 522 1722 c 0
957 1722 m 0
 923 1722 894 1734 869 1758 c 0
 844 1782 832 1811 832 1846 c 0
 832 1881 844 1910 869 1934 c 0
 894 1958 924 1970 957 1970 c 0
 990 1970 1019 1958 1044 1934 c 0
 1069 1910 1081 1881 1081 1846 c 0
 1081 1811 1069 1782 1044 1758 c 0
 1019 1734 990 1722 957 1722 c 0
EndSplineSet
EndChar

StartChar: Yacute
Encoding: 221 221 157
Width: 1229
GlyphClass: 2
Flags: MW
HStem: 0 21G<565 767 565 565> 1532 20G<103 332 332 332 1021 1228 1228 1228>
VStem: 514 202
LayerCount: 2
Fore
SplineSet
767 0 m 1
 565 0 l 1
 565 718 l 1
 103 1552 l 1
 332 1552 l 1
 677 936 l 1
 1021 1552 l 1
 1228 1552 l 1
 767 718 l 1
 767 0 l 1
580 1722 m 1
 410 1722 l 1
 706 2048 l 1
 922 2048 l 1
 580 1722 l 1
EndSplineSet
EndChar

StartChar: Thorn
Encoding: 222 222 158
Width: 1229
GlyphClass: 2
Flags: MW
HStem: 0 21G<351 553 351 351> 303 155<553 635 553 640> 1133 155<553 737 553 674> 1532 20G<351 553 553 553>
VStem: 176 202 932 202
LayerCount: 2
Fore
SplineSet
635 303 m 2
 553 303 l 1
 553 0 l 1
 351 0 l 1
 351 1552 l 1
 553 1552 l 1
 553 1288 l 1
 737 1288 l 2
 896 1288 1011 1270 1084 1234 c 0
 1157 1199 1212 1147 1251 1078 c 0
 1290 1009 1309 933 1309 849 c 0
 1309 749 1283 656 1231 570 c 0
 1179 484 1106 418 1013 372 c 0
 920 326 794 303 635 303 c 2
553 1133 m 1
 553 458 l 1
 640 458 l 2
 765 458 857 474 918 506 c 0
 979 538 1025 584 1058 645 c 0
 1091 706 1107 772 1107 842 c 0
 1107 931 1078 1002 1019 1054 c 0
 961 1107 846 1133 674 1133 c 2
 553 1133 l 1
EndSplineSet
EndChar

StartChar: germandbls
Encoding: 223 223 159
Width: 1229
GlyphClass: 2
Flags: MW
HStem: -31 155<853.5 880.5 845.5 924.5> 0 21G<259 445 259 259 608 608> 1489 156<680 723>
VStem: 130 186 425 194 758 202 952 187
LayerCount: 2
Fore
SplineSet
445 0 m 1x7c
 259 0 l 1
 259 1122 l 2
 259 1254 278 1355 316 1425 c 0
 393 1566 532 1645 727 1645 c 0
 854 1645 946 1615 1003 1555 c 0
 1060 1496 1089 1433 1089 1368 c 0
 1089 1327 1077 1286 1054 1246 c 0x7c
 1031 1207 985 1157 916 1098 c 2
 848 1040 l 2
 835 1029 815 1010 788 984 c 0
 761 959 748 933 748 906 c 0
 748 887 752 871 760 858 c 0
 768 845 792 824 831 795 c 2
 895 748 l 1
 1021 661 l 2
 1092 613 1151 561 1198 504 c 0
 1245 447 1268 381 1268 304 c 0
 1268 207 1230 126 1155 63 c 0
 1080 0 983 -31 866 -31 c 0
 841 -31 810 -30 775 -27 c 0
 740 -25 712 -23 692 -20 c 0xba
 673 -17 645 -11 608 0 c 1x7c
 608 185 l 1
 648 168 682 155 710 148 c 0
 766 135 827 124 864 124 c 0
 897 124 932 130 969 142 c 0
 1042 166 1081 227 1081 283 c 0
 1081 324 1065 365 1033 405 c 0xba
 1000 445 946 490 870 541 c 2
 750 621 l 2
 627 704 554 777 554 876 c 0
 554 913 564 949 583 984 c 0
 603 1019 647 1068 714 1130 c 2
 773 1185 l 2
 837 1244 887 1300 887 1363 c 0
 887 1406 866 1438 825 1458 c 0
 784 1479 743 1489 703 1489 c 0
 657 1489 614 1478 575 1455 c 0
 536 1433 505 1399 481 1353 c 0
 457 1308 445 1231 445 1122 c 2
 445 0 l 1x7c
EndSplineSet
EndChar

StartChar: agrave
Encoding: 224 224 160
Width: 1229
GlyphClass: 2
Flags: MW
HStem: -31 178<583.5 599.5> 0 21G<1025 1219 1025 1025> 977 156<748.5 799.5 660 834.5> 1097 20G<990 1177 1177 1177>
VStem: 102 202 889 187
LayerCount: 2
Fore
SplineSet
990 251 m 1x64
 933 158 865 87 785 40 c 0
 706 -7 633 -31 566 -31 c 0
 473 -31 389 9 314 90 c 0
 240 171 203 293 203 457 c 0
 203 586 228 702 277 803 c 0
 376 1007 538 1133 782 1133 c 0xac
 817 1133 871 1129 942 1122 c 2
 990 1117 l 1
 1177 1117 l 1x54
 1177 328 l 2
 1177 193 1191 84 1219 0 c 1
 1025 0 l 1
 1010 61 999 145 990 251 c 1x64
990 472 m 1
 990 951 l 1
 924 968 863 977 806 977 c 0
 691 977 596 933 519 844 c 0
 443 755 405 635 405 482 c 0
 405 371 426 288 467 231 c 0
 509 175 557 147 610 147 c 0
 668 147 732 176 802 235 c 0
 872 294 935 373 990 472 c 1
703 1614 m 1
 999 1288 l 1
 829 1288 l 1
 487 1614 l 1
 703 1614 l 1
EndSplineSet
EndChar

StartChar: aacute
Encoding: 225 225 161
Width: 1229
GlyphClass: 2
Flags: MW
HStem: -31 178<583.5 599.5> 0 21G<1025 1219 1025 1025> 977 156<748.5 799.5 660 834.5> 1097 20G<990 1177 1177 1177>
VStem: 102 202 889 187
LayerCount: 2
Fore
SplineSet
990 251 m 1x64
 933 158 865 87 785 40 c 0
 706 -7 633 -31 566 -31 c 0
 473 -31 389 9 314 90 c 0
 240 171 203 293 203 457 c 0
 203 586 228 702 277 803 c 0
 376 1007 538 1133 782 1133 c 0xac
 817 1133 871 1129 942 1122 c 2
 990 1117 l 1
 1177 1117 l 1x54
 1177 328 l 2
 1177 193 1191 84 1219 0 c 1
 1025 0 l 1
 1010 61 999 145 990 251 c 1x64
990 472 m 1
 990 951 l 1
 924 968 863 977 806 977 c 0
 691 977 596 933 519 844 c 0
 443 755 405 635 405 482 c 0
 405 371 426 288 467 231 c 0
 509 175 557 147 610 147 c 0
 668 147 732 176 802 235 c 0
 872 294 935 373 990 472 c 1
750 1288 m 1
 580 1288 l 1
 876 1614 l 1
 1092 1614 l 1
 750 1288 l 1
EndSplineSet
EndChar

StartChar: acircumflex
Encoding: 226 226 162
Width: 1229
GlyphClass: 2
Flags: MW
HStem: -31 178<583.5 599.5> 0 21G<1025 1219 1025 1025> 977 156<748.5 799.5 660 834.5> 1097 20G<990 1177 1177 1177>
VStem: 102 202 889 187
LayerCount: 2
Fore
SplineSet
990 251 m 1x64
 933 158 865 87 785 40 c 0
 706 -7 633 -31 566 -31 c 0
 473 -31 389 9 314 90 c 0
 240 171 203 293 203 457 c 0
 203 586 228 702 277 803 c 0
 376 1007 538 1133 782 1133 c 0xac
 817 1133 871 1129 942 1122 c 2
 990 1117 l 1
 1177 1117 l 1x54
 1177 328 l 2
 1177 193 1191 84 1219 0 c 1
 1025 0 l 1
 1010 61 999 145 990 251 c 1x64
990 472 m 1
 990 951 l 1
 924 968 863 977 806 977 c 0
 691 977 596 933 519 844 c 0
 443 755 405 635 405 482 c 0
 405 371 426 288 467 231 c 0
 509 175 557 147 610 147 c 0
 668 147 732 176 802 235 c 0
 872 294 935 373 990 472 c 1
944 1288 m 1
 805 1456 l 1
 665 1288 l 1
 510 1288 l 1
 743 1614 l 1
 867 1614 l 1
 1100 1288 l 1
 944 1288 l 1
EndSplineSet
EndChar

StartChar: atilde
Encoding: 227 227 163
Width: 1229
GlyphClass: 2
Flags: MW
HStem: -31 178<583.5 599.5> 0 21G<1025 1219 1025 1025> 977 156<748.5 799.5 660 834.5> 1097 20G<990 1177 1177 1177> 1287 140<887 918 887 932.5> 1404 140<616.5 634.5>
VStem: 102 202 332 125 857 127 889 187
LayerCount: 2
Fore
SplineSet
990 251 m 1x6840
 933 158 865 87 785 40 c 0
 706 -7 633 -31 566 -31 c 0
 473 -31 389 9 314 90 c 0
 240 171 203 293 203 457 c 0
 203 586 228 702 277 803 c 0
 376 1007 538 1133 782 1133 c 0xaa40
 817 1133 871 1129 942 1122 c 2
 990 1117 l 1
 1177 1117 l 1x5840
 1177 328 l 2
 1177 193 1191 84 1219 0 c 1
 1025 0 l 1
 1010 61 999 145 990 251 c 1x6840
990 472 m 1
 990 951 l 1
 924 968 863 977 806 977 c 0
 691 977 596 933 519 844 c 0
 443 755 405 635 405 482 c 0
 405 371 426 288 467 231 c 0
 509 175 557 147 610 147 c 0
 668 147 732 176 802 235 c 0
 872 294 935 373 990 472 c 1
558 1288 m 1
 433 1288 l 1
 433 1464 510 1544 614 1544 c 0
 655 1544 697 1531 740 1504 c 2x6540
 782 1479 l 2
 837 1444 876 1427 898 1427 c 0
 938 1427 958 1466 958 1544 c 1
 1085 1544 l 1
 1081 1476 1072 1426 1058 1395 c 0
 1030 1332 967 1287 898 1287 c 0
 855 1287 808 1303 757 1336 c 2
 713 1364 l 1x6880
 689 1381 l 2
 666 1396 645 1404 624 1404 c 0
 609 1404 595 1396 580 1381 c 0
 565 1366 558 1335 558 1288 c 1
EndSplineSet
EndChar

StartChar: adieresis
Encoding: 228 228 164
Width: 1229
GlyphClass: 2
Flags: MW
HStem: -31 178<583.5 599.5> 0 21G<1025 1219 1025 1025> 977 156<748.5 799.5 660 834.5> 1097 20G<990 1177 1177 1177> 1288 248<539.5 572.5 539.5 573 974.5 1007.5>
VStem: 102 202 889 187
LayerCount: 2
Fore
SplineSet
990 251 m 1x62
 933 158 865 87 785 40 c 0
 706 -7 633 -31 566 -31 c 0
 473 -31 389 9 314 90 c 0
 240 171 203 293 203 457 c 0
 203 586 228 702 277 803 c 0
 376 1007 538 1133 782 1133 c 0xa6
 817 1133 871 1129 942 1122 c 2
 990 1117 l 1
 1177 1117 l 1x52
 1177 328 l 2
 1177 193 1191 84 1219 0 c 1
 1025 0 l 1
 1010 61 999 145 990 251 c 1x62
990 472 m 1
 990 951 l 1
 924 968 863 977 806 977 c 0
 691 977 596 933 519 844 c 0
 443 755 405 635 405 482 c 0
 405 371 426 288 467 231 c 0
 509 175 557 147 610 147 c 0
 668 147 732 176 802 235 c 0xae
 872 294 935 373 990 472 c 1
556 1288 m 0
 522 1288 493 1300 468 1324 c 0
 444 1348 432 1377 432 1412 c 0
 432 1447 444 1476 469 1500 c 0
 494 1524 523 1536 556 1536 c 0
 589 1536 618 1524 643 1500 c 0
 668 1476 680 1447 680 1412 c 0
 680 1377 668 1348 643 1324 c 0
 619 1300 590 1288 556 1288 c 0
991 1288 m 0
 957 1288 928 1300 903 1324 c 0
 878 1348 866 1377 866 1412 c 0
 866 1447 878 1476 903 1500 c 0
 928 1524 958 1536 991 1536 c 0
 1024 1536 1053 1524 1078 1500 c 0
 1103 1476 1115 1447 1115 1412 c 0
 1115 1377 1103 1348 1078 1324 c 0
 1053 1300 1024 1288 991 1288 c 0
EndSplineSet
EndChar

StartChar: aring
Encoding: 229 229 165
Width: 1229
GlyphClass: 2
Flags: MW
HStem: -31 178<583.5 599.5> 0 21G<1025 1219 1025 1025> 977 156<748.5 799.5 660 834.5> 1097 20G<990 1177 1177 1177> 1288 93<732.5 784 732.5 784> 1567 93<732.5 784>
VStem: 102 202 471 93 750 93 889 187
LayerCount: 2
Fore
SplineSet
990 251 m 1x6c40
 933 158 865 87 785 40 c 0
 706 -7 633 -31 566 -31 c 0
 473 -31 389 9 314 90 c 0
 240 171 203 293 203 457 c 0
 203 586 228 702 277 803 c 0
 376 1007 538 1133 782 1133 c 0xae40
 817 1133 871 1129 942 1122 c 2
 990 1117 l 1
 1177 1117 l 1x5c40
 1177 328 l 2
 1177 193 1191 84 1219 0 c 1
 1025 0 l 1
 1010 61 999 145 990 251 c 1x6c40
990 472 m 1
 990 951 l 1
 924 968 863 977 806 977 c 0
 691 977 596 933 519 844 c 0
 443 755 405 635 405 482 c 0
 405 371 426 288 467 231 c 0
 509 175 557 147 610 147 c 0
 668 147 732 176 802 235 c 0xafc0
 872 294 935 373 990 472 c 1
758 1381 m 0
 810 1381 851 1423 851 1474 c 0
 851 1525 810 1567 758 1567 c 0
 707 1567 665 1525 665 1474 c 0
 665 1423 707 1381 758 1381 c 0
758 1288 m 0
 706 1288 662 1307 626 1344 c 0
 590 1381 572 1425 572 1474 c 0
 572 1524 590 1567 626 1604 c 0
 663 1641 707 1660 758 1660 c 0
 810 1660 854 1641 890 1604 c 0
 926 1567 944 1524 944 1474 c 0
 944 1425 926 1381 890 1344 c 0
 854 1307 810 1288 758 1288 c 0
EndSplineSet
EndChar

StartChar: ae
Encoding: 230 230 166
Width: 1229
GlyphClass: 2
Flags: MW
HStem: -31 155<971.5 1012.5> -31 209 535 132<825 1042 825 1229 825 1042> 993 155<529 540.5 529 561.5 927.5 953.5>
VStem: 64 186 576 186 979 187
LayerCount: 2
Fore
SplineSet
655 226 m 1xbe
 586 53 488 -31 403 -31 c 0
 328 -31 264 17 209 113 c 0
 154 209 127 332 127 483 c 0
 122 880 319 1151 529 1148 c 0
 552 1148 577 1145 603 1140 c 0
 630 1135 653 1129 674 1121 c 0
 695 1114 722 1099 754 1077 c 1
 803 1113 840 1134 867 1139 c 0
 894 1145 917 1148 938 1148 c 0
 1023 1148 1092 1110 1147 1034 c 0
 1202 959 1229 809 1229 585 c 2
 1229 535 l 1
 825 535 l 1
 825 452 l 2
 825 353 832 284 847 243 c 0
 878 163 937 124 1006 124 c 0
 1073 124 1148 150 1229 203 c 1
 1229 33 l 1
 1135 -10 1050 -31 975 -31 c 0
 926 -31 880 -22 839 -5 c 0
 798 12 762 37 731 71 c 0
 701 105 676 157 655 226 c 1xbe
639 470 m 1
 639 959 l 1
 607 982 576 993 547 993 c 0
 469 993 410 938 371 828 c 0
 332 718 313 596 313 463 c 0
 313 384 324 317 346 260 c 0
 368 203 396 176 430 178 c 0x7e
 500 183 570 280 639 470 c 1
825 699 m 2
 825 667 l 1
 1042 667 l 1
 1042 699 l 2
 1042 816 1033 895 1015 934 c 0
 997 973 971 993 936 993 c 0
 863 993 825 895 825 699 c 2
EndSplineSet
EndChar

StartChar: ccedilla
Encoding: 231 231 167
Width: 1229
GlyphClass: 2
Flags: MW
HStem: -435 86<796 888> -34 21G<920 920> -34 174<920 920> -28 21G<815 815> 993 155<875 949.5 816.5 960.5>
VStem: 164 202 744 132
LayerCount: 2
Fore
SplineSet
920 -34 m 1x9e
 865 -131 l 1
 937 -145 984 -167 1006 -196 c 0
 1028 -226 1039 -257 1039 -289 c 0
 1039 -326 1024 -359 994 -389 c 0
 965 -420 919 -435 857 -435 c 0
 802 -435 749 -426 698 -407 c 1
 698 -318 l 1
 737 -339 776 -349 816 -349 c 0
 840 -349 861 -342 879 -328 c 0
 898 -314 907 -299 907 -284 c 0
 907 -239 845 -210 722 -197 c 1
 815 -28 l 1x9e
 705 -9 614 28 543 84 c 0
 400 196 327 342 327 547 c 0
 327 728 383 874 496 983 c 0
 609 1093 741 1148 892 1148 c 0
 1007 1148 1129 1126 1258 1083 c 1
 1258 904 l 1
 1128 963 1012 993 909 993 c 0
 841 993 777 976 717 942 c 0
 657 909 611 856 578 785 c 0
 545 714 529 640 529 565 c 0
 529 464 560 368 623 277 c 0
 686 186 785 140 920 140 c 0
 961 140 1001 143 1040 148 c 0
 1079 154 1152 175 1258 211 c 1xae
 1258 32 l 1
 1154 -5 1041 -27 920 -34 c 1x9e
EndSplineSet
EndChar

StartChar: egrave
Encoding: 232 232 168
Width: 1229
GlyphClass: 2
Flags: MW
HStem: -32 156<747.5 857.5> 528 139<470 1027 470 1229 459 1027> 993 155<739 818.5>
VStem: 130 200 898 202
LayerCount: 2
Fore
SplineSet
1213 244 m 1
 1213 74 l 1
 1064 3 924 -32 791 -32 c 0
 690 -32 600 -7 521 43 c 0
 442 93 378 164 330 257 c 0
 283 350 259 450 259 556 c 0
 259 658 282 756 327 850 c 0
 372 944 436 1017 517 1069 c 0
 598 1122 689 1148 789 1148 c 0
 922 1148 1028 1101 1108 1006 c 0
 1189 911 1229 765 1229 568 c 2
 1229 528 l 1
 459 528 l 1
 459 451 475 380 507 316 c 0
 572 188 680 124 815 124 c 0
 935 124 1068 164 1213 244 c 1
470 667 m 1
 1027 667 l 1
 1027 694 l 2
 1027 785 1005 858 960 912 c 0
 915 966 856 993 781 993 c 0
 630 993 514 882 470 667 c 1
743 1614 m 1
 1039 1288 l 1
 869 1288 l 1
 527 1614 l 1
 743 1614 l 1
EndSplineSet
EndChar

StartChar: eacute
Encoding: 233 233 169
Width: 1229
GlyphClass: 2
Flags: MW
HStem: -32 156<747.5 857.5> 528 139<470 1027 470 1229 459 1027> 993 155<739 818.5>
VStem: 130 200 898 202
LayerCount: 2
Fore
SplineSet
1213 244 m 1
 1213 74 l 1
 1064 3 924 -32 791 -32 c 0
 690 -32 600 -7 521 43 c 0
 442 93 378 164 330 257 c 0
 283 350 259 450 259 556 c 0
 259 658 282 756 327 850 c 0
 372 944 436 1017 517 1069 c 0
 598 1122 689 1148 789 1148 c 0
 922 1148 1028 1101 1108 1006 c 0
 1189 911 1229 765 1229 568 c 2
 1229 528 l 1
 459 528 l 1
 459 451 475 380 507 316 c 0
 572 188 680 124 815 124 c 0
 935 124 1068 164 1213 244 c 1
470 667 m 1
 1027 667 l 1
 1027 694 l 2
 1027 785 1005 858 960 912 c 0
 915 966 856 993 781 993 c 0
 630 993 514 882 470 667 c 1
743 1288 m 1
 573 1288 l 1
 869 1614 l 1
 1085 1614 l 1
 743 1288 l 1
EndSplineSet
EndChar

StartChar: ecircumflex
Encoding: 234 234 170
Width: 1229
GlyphClass: 2
Flags: MW
HStem: -32 156<747.5 857.5> 528 139<470 1027 470 1229 459 1027> 993 155<739 818.5>
VStem: 130 200 898 202
LayerCount: 2
Fore
SplineSet
1213 244 m 1
 1213 74 l 1
 1064 3 924 -32 791 -32 c 0
 690 -32 600 -7 521 43 c 0
 442 93 378 164 330 257 c 0
 283 350 259 450 259 556 c 0
 259 658 282 756 327 850 c 0
 372 944 436 1017 517 1069 c 0
 598 1122 689 1148 789 1148 c 0
 922 1148 1028 1101 1108 1006 c 0
 1189 911 1229 765 1229 568 c 2
 1229 528 l 1
 459 528 l 1
 459 451 475 380 507 316 c 0
 572 188 680 124 815 124 c 0
 935 124 1068 164 1213 244 c 1
470 667 m 1
 1027 667 l 1
 1027 694 l 2
 1027 785 1005 858 960 912 c 0
 915 966 856 993 781 993 c 0
 630 993 514 882 470 667 c 1
922 1288 m 1
 783 1456 l 1
 643 1288 l 1
 488 1288 l 1
 721 1614 l 1
 845 1614 l 1
 1078 1288 l 1
 922 1288 l 1
EndSplineSet
EndChar

StartChar: edieresis
Encoding: 235 235 171
Width: 1229
GlyphClass: 2
Flags: MW
HStem: -32 156<747.5 857.5> 528 139<470 1027 470 1229 459 1027> 993 155<739 818.5> 1288 248<563.5 596.5 563.5 597 998.5 1031.5>
VStem: 130 200 898 202
LayerCount: 2
Fore
SplineSet
1213 244 m 1
 1213 74 l 1
 1064 3 924 -32 791 -32 c 0
 690 -32 600 -7 521 43 c 0
 442 93 378 164 330 257 c 0
 283 350 259 450 259 556 c 0
 259 658 282 756 327 850 c 0
 372 944 436 1017 517 1069 c 0
 598 1122 689 1148 789 1148 c 0
 922 1148 1028 1101 1108 1006 c 0
 1189 911 1229 765 1229 568 c 2
 1229 528 l 1
 459 528 l 1
 459 451 475 380 507 316 c 0
 572 188 680 124 815 124 c 0
 935 124 1068 164 1213 244 c 1
470 667 m 1
 1027 667 l 1
 1027 694 l 2
 1027 785 1005 858 960 912 c 0
 915 966 856 993 781 993 c 0
 630 993 514 882 470 667 c 1
580 1288 m 0
 546 1288 517 1300 492 1324 c 0
 468 1348 456 1377 456 1412 c 0
 456 1447 468 1476 493 1500 c 0
 518 1524 547 1536 580 1536 c 0
 613 1536 642 1524 667 1500 c 0
 692 1476 704 1447 704 1412 c 0
 704 1377 692 1348 667 1324 c 0
 643 1300 614 1288 580 1288 c 0
1015 1288 m 0
 981 1288 952 1300 927 1324 c 0
 902 1348 890 1377 890 1412 c 0
 890 1447 902 1476 927 1500 c 0
 952 1524 982 1536 1015 1536 c 0
 1048 1536 1077 1524 1102 1500 c 0
 1127 1476 1139 1447 1139 1412 c 0
 1139 1377 1127 1348 1102 1324 c 0
 1077 1300 1048 1288 1015 1288 c 0
EndSplineSet
EndChar

StartChar: igrave
Encoding: 236 236 172
Width: 1229
GlyphClass: 2
Flags: MW
HStem: 0 155<809 1120 809 1120> 962 155<313 623 313 809>
VStem: 467 186
LayerCount: 2
Fore
SplineSet
1120 0 m 1
 623 0 l 1
 623 962 l 1
 313 962 l 1
 313 1117 l 1
 809 1117 l 1
 809 155 l 1
 1120 155 l 1
 1120 0 l 1
684 1614 m 1
 980 1288 l 1
 810 1288 l 1
 468 1614 l 1
 684 1614 l 1
EndSplineSet
EndChar

StartChar: iacute
Encoding: 237 237 173
Width: 1229
GlyphClass: 2
Flags: MW
HStem: 0 155<809 1120 809 1120> 962 155<313 623 313 809>
VStem: 467 186
LayerCount: 2
Fore
SplineSet
1120 0 m 1
 623 0 l 1
 623 962 l 1
 313 962 l 1
 313 1117 l 1
 809 1117 l 1
 809 155 l 1
 1120 155 l 1
 1120 0 l 1
638 1288 m 1
 468 1288 l 1
 764 1614 l 1
 980 1614 l 1
 638 1288 l 1
EndSplineSet
EndChar

StartChar: icircumflex
Encoding: 238 238 174
Width: 1229
GlyphClass: 2
Flags: MW
HStem: 0 155<809 1120 809 1120> 962 155<313 623 313 809>
VStem: 467 186
LayerCount: 2
Fore
SplineSet
1120 0 m 1
 623 0 l 1
 623 962 l 1
 313 962 l 1
 313 1117 l 1
 809 1117 l 1
 809 155 l 1
 1120 155 l 1
 1120 0 l 1
864 1288 m 1
 725 1456 l 1
 585 1288 l 1
 430 1288 l 1
 663 1614 l 1
 787 1614 l 1
 1020 1288 l 1
 864 1288 l 1
EndSplineSet
EndChar

StartChar: idieresis
Encoding: 239 239 175
Width: 1229
GlyphClass: 2
Flags: MW
HStem: 0 155<809 1120 809 1120> 962 155<313 623 313 809> 1288 248<490.5 523.5 490.5 524 925.5 958.5>
VStem: 467 186
LayerCount: 2
Fore
SplineSet
1120 0 m 1
 623 0 l 1
 623 962 l 1
 313 962 l 1
 313 1117 l 1
 809 1117 l 1
 809 155 l 1
 1120 155 l 1
 1120 0 l 1
507 1288 m 0
 473 1288 444 1300 419 1324 c 0
 395 1348 383 1377 383 1412 c 0
 383 1447 395 1476 420 1500 c 0
 445 1524 474 1536 507 1536 c 0
 540 1536 569 1524 594 1500 c 0
 619 1476 631 1447 631 1412 c 0
 631 1377 619 1348 594 1324 c 0
 570 1300 541 1288 507 1288 c 0
942 1288 m 0
 908 1288 879 1300 854 1324 c 0
 829 1348 817 1377 817 1412 c 0
 817 1447 829 1476 854 1500 c 0
 879 1524 909 1536 942 1536 c 0
 975 1536 1004 1524 1029 1500 c 0
 1054 1476 1066 1447 1066 1412 c 0
 1066 1377 1054 1348 1029 1324 c 0
 1004 1300 975 1288 942 1288 c 0
EndSplineSet
EndChar

StartChar: eth
Encoding: 240 240 176
Width: 1229
GlyphClass: 2
Flags: MW
HStem: -31 155<651.5 750 651.5 782.5> 931 155<651.5 701.5 638.5 750> 1458 156<258 283 258 292>
VStem: 87 194 948 194
LayerCount: 2
Fore
SplineSet
972 991 m 1
 947 1056 914 1116 875 1171 c 0
 836 1226 777 1284 696 1344 c 1
 471 1140 l 1
 368 1257 l 1
 549 1418 l 1
 464 1445 375 1458 283 1458 c 2
 258 1458 l 1
 258 1614 l 1
 292 1614 l 2
 371 1614 442 1610 503 1603 c 0
 564 1596 629 1578 696 1549 c 1
 911 1744 l 1
 1014 1628 l 1
 836 1468 l 1
 936 1387 1012 1305 1065 1220 c 0
 1118 1136 1159 1040 1186 932 c 0
 1214 825 1228 718 1228 613 c 0
 1228 417 1182 261 1090 144 c 0
 998 27 867 -31 698 -31 c 0
 540 -31 413 22 317 127 c 0
 221 233 173 369 173 536 c 0
 173 647 195 744 239 826 c 0
 283 908 346 972 427 1017 c 0
 508 1063 594 1086 683 1086 c 0
 720 1086 760 1081 802 1072 c 0
 844 1063 901 1036 972 991 c 1
701 124 m 0
 799 124 879 162 941 237 c 0
 1003 313 1034 410 1034 528 c 0
 1034 645 1003 742 941 817 c 0
 879 893 799 931 701 931 c 0
 602 931 522 893 460 817 c 0
 398 742 367 645 367 528 c 0
 367 410 398 313 460 237 c 0
 522 162 602 124 701 124 c 0
EndSplineSet
EndChar

StartChar: ntilde
Encoding: 241 241 177
Width: 1229
GlyphClass: 2
Flags: MW
HStem: 0 21G<313 499 313 313 1058 1058 1058 1244> 977 171<880.5 927.5> 1097 20G<313 499 499 499> 1287 140<915 946 915 960.5> 1404 140<644.5 662.5>
VStem: 157 186 305 125 830 127 902 186
LayerCount: 2
Fore
SplineSet
499 0 m 1xb480
 313 0 l 1
 313 1117 l 1
 499 1117 l 1xb480
 499 873 l 1
 552 959 617 1026 692 1075 c 0
 767 1124 843 1148 918 1148 c 0
 984 1148 1044 1130 1098 1095 c 0
 1152 1060 1190 1015 1211 958 c 0
 1233 901 1244 790 1244 624 c 2
 1244 0 l 1
 1058 0 l 1
 1058 647 l 2
 1058 754 1053 825 1042 859 c 0
 1022 928 960 977 895 977 c 0
 830 977 759 946 684 884 c 0xd480
 609 822 548 744 499 651 c 1
 499 0 l 1xb480
586 1288 m 1
 461 1288 l 1
 461 1464 538 1544 642 1544 c 0
 683 1544 725 1531 768 1504 c 2xaa80
 810 1479 l 2
 865 1444 904 1427 926 1427 c 0
 966 1427 986 1466 986 1544 c 1
 1113 1544 l 1
 1109 1476 1100 1426 1086 1395 c 0
 1058 1332 995 1287 926 1287 c 0
 883 1287 836 1303 785 1336 c 2
 741 1364 l 1xb5
 717 1381 l 2
 694 1396 673 1404 652 1404 c 0
 637 1404 623 1396 608 1381 c 0
 593 1366 586 1335 586 1288 c 1
EndSplineSet
EndChar

StartChar: ograve
Encoding: 242 242 178
Width: 1229
GlyphClass: 2
Flags: MW
HStem: -31 155<651 750.5 651 780.5> 993 155<651 750.5>
VStem: 87 202 940 202
LayerCount: 2
Fore
SplineSet
701 -31 m 0
 541 -31 413 25 317 136 c 0
 221 248 173 389 173 559 c 0
 173 729 221 870 317 981 c 0
 413 1092 541 1148 701 1148 c 0
 860 1148 988 1092 1084 981 c 0
 1180 870 1228 729 1228 559 c 0
 1228 389 1180 248 1084 136 c 0
 988 25 860 -31 701 -31 c 0
701 124 m 0
 800 124 879 163 938 240 c 0
 997 317 1026 424 1026 559 c 0
 1026 694 997 800 938 877 c 0
 879 954 800 993 701 993 c 0
 601 993 522 954 463 877 c 0
 404 800 375 694 375 559 c 0
 375 424 404 317 463 240 c 0
 522 163 601 124 701 124 c 0
661 1614 m 1
 957 1288 l 1
 787 1288 l 1
 445 1614 l 1
 661 1614 l 1
EndSplineSet
EndChar

StartChar: oacute
Encoding: 243 243 179
Width: 1229
GlyphClass: 2
Flags: MW
HStem: -31 155<651 750.5 651 780.5> 993 155<651 750.5>
VStem: 87 202 940 202
LayerCount: 2
Fore
SplineSet
701 -31 m 0
 541 -31 413 25 317 136 c 0
 221 248 173 389 173 559 c 0
 173 729 221 870 317 981 c 0
 413 1092 541 1148 701 1148 c 0
 860 1148 988 1092 1084 981 c 0
 1180 870 1228 729 1228 559 c 0
 1228 389 1180 248 1084 136 c 0
 988 25 860 -31 701 -31 c 0
701 124 m 0
 800 124 879 163 938 240 c 0
 997 317 1026 424 1026 559 c 0
 1026 694 997 800 938 877 c 0
 879 954 800 993 701 993 c 0
 601 993 522 954 463 877 c 0
 404 800 375 694 375 559 c 0
 375 424 404 317 463 240 c 0
 522 163 601 124 701 124 c 0
615 1288 m 1
 445 1288 l 1
 741 1614 l 1
 957 1614 l 1
 615 1288 l 1
EndSplineSet
EndChar

StartChar: ocircumflex
Encoding: 244 244 180
Width: 1229
GlyphClass: 2
Flags: MW
HStem: -31 155<651 750.5 651 780.5> 993 155<651 750.5>
VStem: 87 202 940 202
LayerCount: 2
Fore
SplineSet
701 -31 m 0
 541 -31 413 25 317 136 c 0
 221 248 173 389 173 559 c 0
 173 729 221 870 317 981 c 0
 413 1092 541 1148 701 1148 c 0
 860 1148 988 1092 1084 981 c 0
 1180 870 1228 729 1228 559 c 0
 1228 389 1180 248 1084 136 c 0
 988 25 860 -31 701 -31 c 0
701 124 m 0
 800 124 879 163 938 240 c 0
 997 317 1026 424 1026 559 c 0
 1026 694 997 800 938 877 c 0
 879 954 800 993 701 993 c 0
 601 993 522 954 463 877 c 0
 404 800 375 694 375 559 c 0
 375 424 404 317 463 240 c 0
 522 163 601 124 701 124 c 0
840 1288 m 1
 701 1456 l 1
 561 1288 l 1
 406 1288 l 1
 639 1614 l 1
 763 1614 l 1
 996 1288 l 1
 840 1288 l 1
EndSplineSet
EndChar

StartChar: otilde
Encoding: 245 245 181
Width: 1229
GlyphClass: 2
Flags: MW
HStem: -31 155<651 750.5 651 780.5> 993 155<651 750.5> 1287 140<829 860 829 874.5> 1404 140<558.5 576.5>
VStem: 87 202 289 125 814 127 940 202
LayerCount: 2
Fore
SplineSet
701 -31 m 0xe9
 541 -31 413 25 317 136 c 0
 221 248 173 389 173 559 c 0
 173 729 221 870 317 981 c 0
 413 1092 541 1148 701 1148 c 0
 860 1148 988 1092 1084 981 c 0
 1180 870 1228 729 1228 559 c 0
 1228 389 1180 248 1084 136 c 0
 988 25 860 -31 701 -31 c 0xe9
701 124 m 0
 800 124 879 163 938 240 c 0
 997 317 1026 424 1026 559 c 0
 1026 694 997 800 938 877 c 0
 879 954 800 993 701 993 c 0
 601 993 522 954 463 877 c 0
 404 800 375 694 375 559 c 0
 375 424 404 317 463 240 c 0
 522 163 601 124 701 124 c 0
500 1288 m 1xe5
 375 1288 l 1
 375 1464 452 1544 556 1544 c 0
 597 1544 639 1531 682 1504 c 2xd5
 724 1479 l 2
 779 1444 818 1427 840 1427 c 0
 880 1427 900 1466 900 1544 c 1
 1027 1544 l 1
 1023 1476 1014 1426 1000 1395 c 0
 972 1332 909 1287 840 1287 c 0
 797 1287 750 1303 699 1336 c 2
 655 1364 l 1xea
 631 1381 l 2
 608 1396 587 1404 566 1404 c 0
 551 1404 537 1396 522 1381 c 0xd5
 507 1366 500 1335 500 1288 c 1xe5
EndSplineSet
EndChar

StartChar: odieresis
Encoding: 246 246 182
Width: 1229
GlyphClass: 2
Flags: MW
HStem: -31 155<651 750.5 651 780.5> 993 155<651 750.5> 1288 248<466.5 499.5 466.5 500 901.5 934.5>
VStem: 87 202 940 202
LayerCount: 2
Fore
SplineSet
701 -31 m 0
 541 -31 413 25 317 136 c 0
 221 248 173 389 173 559 c 0
 173 729 221 870 317 981 c 0
 413 1092 541 1148 701 1148 c 0
 860 1148 988 1092 1084 981 c 0
 1180 870 1228 729 1228 559 c 0
 1228 389 1180 248 1084 136 c 0
 988 25 860 -31 701 -31 c 0
701 124 m 0
 800 124 879 163 938 240 c 0
 997 317 1026 424 1026 559 c 0
 1026 694 997 800 938 877 c 0
 879 954 800 993 701 993 c 0
 601 993 522 954 463 877 c 0
 404 800 375 694 375 559 c 0
 375 424 404 317 463 240 c 0
 522 163 601 124 701 124 c 0
483 1288 m 0
 449 1288 420 1300 395 1324 c 0
 371 1348 359 1377 359 1412 c 0
 359 1447 371 1476 396 1500 c 0
 421 1524 450 1536 483 1536 c 0
 516 1536 545 1524 570 1500 c 0
 595 1476 607 1447 607 1412 c 0
 607 1377 595 1348 570 1324 c 0
 546 1300 517 1288 483 1288 c 0
918 1288 m 0
 884 1288 855 1300 830 1324 c 0
 805 1348 793 1377 793 1412 c 0
 793 1447 805 1476 830 1500 c 0
 855 1524 885 1536 918 1536 c 0
 951 1536 980 1524 1005 1500 c 0
 1030 1476 1042 1447 1042 1412 c 0
 1042 1377 1030 1348 1005 1324 c 0
 980 1300 951 1288 918 1288 c 0
EndSplineSet
EndChar

StartChar: divide
Encoding: 247 247 183
Width: 1229
GlyphClass: 2
Flags: MW
HStem: 465 156<141 1227 141 1227>
VStem: 71 1086
LayerCount: 2
Fore
SplineSet
684 776 m 0
 646 776 613 790 584 819 c 0
 555 848 541 881 541 919 c 0
 541 958 555 991 584 1020 c 0
 613 1049 646 1063 684 1063 c 0
 722 1063 755 1049 784 1020 c 0
 813 991 828 958 828 919 c 0
 828 881 813 848 784 819 c 0
 755 790 722 776 684 776 c 0
141 621 m 1
 1227 621 l 1
 1227 465 l 1
 141 465 l 1
 141 621 l 1
684 23 m 0
 646 23 613 37 584 66 c 0
 555 95 541 128 541 167 c 0
 541 206 555 239 584 267 c 0
 613 296 646 310 684 310 c 0
 722 310 755 296 784 267 c 0
 813 239 828 206 828 167 c 0
 828 128 813 95 784 66 c 0
 755 37 722 23 684 23 c 0
EndSplineSet
EndChar

StartChar: oslash
Encoding: 248 248 184
Width: 1229
GlyphClass: 2
Flags: MW
HStem: -31 155<679 752 662.5 788> 993 155<648 715.5 613.5 734.5>
VStem: 87 202 940 202
LayerCount: 2
Fore
SplineSet
418 44 m 1
 322 -93 l 1
 173 -93 l 1
 323 128 l 1
 223 254 173 399 173 564 c 0
 173 726 218 864 308 977 c 0
 398 1091 528 1148 699 1148 c 0
 732 1148 766 1146 799 1141 c 0
 832 1136 862 1130 888 1121 c 0
 915 1112 947 1097 984 1075 c 1
 1078 1210 l 1
 1228 1210 l 1
 1079 995 l 1
 1178 866 1228 721 1228 559 c 0
 1228 401 1184 263 1096 145 c 0
 1008 28 876 -31 700 -31 c 0
 658 -31 617 -27 576 -20 c 0
 536 -13 483 8 418 44 c 1
427 280 m 1
 891 943 l 1
 832 976 768 993 701 993 c 0
 595 993 514 954 458 877 c 0
 403 800 375 696 375 564 c 0
 375 464 392 369 427 280 c 1
975 845 m 1
 510 177 l 1
 574 142 634 124 691 124 c 0
 813 124 899 165 950 246 c 0
 1001 328 1026 431 1026 554 c 0
 1026 661 1009 758 975 845 c 1
EndSplineSet
EndChar

StartChar: ugrave
Encoding: 249 249 185
Width: 1229
GlyphClass: 2
Flags: MW
HStem: -31 171<601 665.5 601 683.5> 0 21G<1030 1216 1030 1030> 1097 20G<285 471 471 471 1030 1216 1216 1216>
VStem: 143 186 888 186
LayerCount: 2
Fore
SplineSet
1030 1117 m 1xb8
 1216 1117 l 1
 1216 0 l 1
 1030 0 l 1x78
 1030 245 l 1
 910 61 757 -31 610 -31 c 0
 545 -31 485 -14 430 21 c 0
 376 56 338 102 317 159 c 0
 296 216 285 328 285 493 c 2
 285 1117 l 1
 471 1117 l 1
 471 470 l 2
 471 363 476 292 486 257 c 0
 507 189 569 140 633 140 c 0
 698 140 768 171 843 232 c 0
 918 294 981 372 1030 466 c 1
 1030 1117 l 1xb8
718 1614 m 1
 1014 1288 l 1
 844 1288 l 1
 502 1614 l 1
 718 1614 l 1
EndSplineSet
EndChar

StartChar: uacute
Encoding: 250 250 186
Width: 1229
GlyphClass: 2
Flags: MW
HStem: -31 171<601 665.5 601 683.5> 0 21G<1030 1216 1030 1030> 1097 20G<285 471 471 471 1030 1216 1216 1216>
VStem: 143 186 888 186
LayerCount: 2
Fore
SplineSet
1030 1117 m 1xb8
 1216 1117 l 1
 1216 0 l 1
 1030 0 l 1x78
 1030 245 l 1
 910 61 757 -31 610 -31 c 0
 545 -31 485 -14 430 21 c 0
 376 56 338 102 317 159 c 0
 296 216 285 328 285 493 c 2
 285 1117 l 1
 471 1117 l 1
 471 470 l 2
 471 363 476 292 486 257 c 0
 507 189 569 140 633 140 c 0
 698 140 768 171 843 232 c 0
 918 294 981 372 1030 466 c 1
 1030 1117 l 1xb8
719 1288 m 1
 549 1288 l 1
 845 1614 l 1
 1061 1614 l 1
 719 1288 l 1
EndSplineSet
EndChar

StartChar: ucircumflex
Encoding: 251 251 187
Width: 1229
GlyphClass: 2
Flags: MW
HStem: -31 171<601 665.5 601 683.5> 0 21G<1030 1216 1030 1030> 1097 20G<285 471 471 471 1030 1216 1216 1216>
VStem: 143 186 888 186
LayerCount: 2
Fore
SplineSet
1030 1117 m 1xb8
 1216 1117 l 1
 1216 0 l 1
 1030 0 l 1x78
 1030 245 l 1
 910 61 757 -31 610 -31 c 0
 545 -31 485 -14 430 21 c 0
 376 56 338 102 317 159 c 0
 296 216 285 328 285 493 c 2
 285 1117 l 1
 471 1117 l 1
 471 470 l 2
 471 363 476 292 486 257 c 0
 507 189 569 140 633 140 c 0
 698 140 768 171 843 232 c 0
 918 294 981 372 1030 466 c 1
 1030 1117 l 1xb8
898 1288 m 1
 759 1456 l 1
 619 1288 l 1
 464 1288 l 1
 697 1614 l 1
 821 1614 l 1
 1054 1288 l 1
 898 1288 l 1
EndSplineSet
EndChar

StartChar: udieresis
Encoding: 252 252 188
Width: 1229
GlyphClass: 2
Flags: MW
HStem: -31 171<601 665.5 601 683.5> 0 21G<1030 1216 1030 1030> 1097 20G<285 471 471 471 1030 1216 1216 1216> 1288 248<524.5 557.5 524.5 558 959.5 992.5>
VStem: 143 186 888 186
LayerCount: 2
Fore
SplineSet
1030 1117 m 1xac
 1216 1117 l 1
 1216 0 l 1
 1030 0 l 1x7c
 1030 245 l 1
 910 61 757 -31 610 -31 c 0
 545 -31 485 -14 430 21 c 0
 376 56 338 102 317 159 c 0
 296 216 285 328 285 493 c 2
 285 1117 l 1
 471 1117 l 1
 471 470 l 2
 471 363 476 292 486 257 c 0
 507 189 569 140 633 140 c 0
 698 140 768 171 843 232 c 0
 918 294 981 372 1030 466 c 1
 1030 1117 l 1xac
541 1288 m 0
 507 1288 478 1300 453 1324 c 0
 429 1348 417 1377 417 1412 c 0
 417 1447 429 1476 454 1500 c 0
 479 1524 508 1536 541 1536 c 0
 574 1536 603 1524 628 1500 c 0
 653 1476 665 1447 665 1412 c 0
 665 1377 653 1348 628 1324 c 0
 604 1300 575 1288 541 1288 c 0
976 1288 m 0
 942 1288 913 1300 888 1324 c 0
 863 1348 851 1377 851 1412 c 0
 851 1447 863 1476 888 1500 c 0
 913 1524 943 1536 976 1536 c 0
 1009 1536 1038 1524 1063 1500 c 0
 1088 1476 1100 1447 1100 1412 c 0
 1100 1377 1088 1348 1063 1324 c 0
 1038 1300 1009 1288 976 1288 c 0
EndSplineSet
EndChar

StartChar: yacute
Encoding: 253 253 189
Width: 1229
GlyphClass: 2
Flags: MW
HStem: -466 155<220.5 274 220.5 314.5> -451 21G<97 97> 1097 20G<115 320 320 320 1075 1262 1262 1262>
VStem: 49 1165
LayerCount: 2
Fore
SplineSet
614 2 m 2xb0
 631 45 l 1
 115 1117 l 1
 320 1117 l 1
 731 279 l 1
 1075 1117 l 1
 1262 1117 l 1
 829 79 l 2
 738 -140 651 -286 568 -358 c 0
 486 -430 380 -466 249 -466 c 0xb0
 192 -466 142 -461 97 -451 c 1x70
 97 -287 l 1
 148 -303 197 -311 244 -311 c 0
 304 -311 357 -299 404 -276 c 0
 451 -253 493 -211 532 -152 c 0
 571 -93 598 -41 614 2 c 2xb0
671 1288 m 1
 501 1288 l 1
 797 1614 l 1
 1013 1614 l 1
 671 1288 l 1
EndSplineSet
EndChar

StartChar: thorn
Encoding: 254 254 190
Width: 1229
GlyphClass: 2
Flags: MW
HStem: -434 21G<273 459 273 273> -16 156<649.5 701.5 616.5 714.5> -5 21G<507 507> 0 21G<459 459> 970 178<849.5 865.5> 1532 20G<273 459 459 459>
VStem: 137 186 909 202
LayerCount: 2
Fore
SplineSet
459 1552 m 1x9e
 459 866 l 1
 516 959 585 1030 664 1077 c 0
 743 1124 816 1148 883 1148 c 0
 976 1148 1060 1108 1135 1027 c 0
 1210 946 1247 824 1247 660 c 0
 1247 467 1192 304 1081 172 c 0
 1029 111 971 64 906 32 c 0
 841 0 762 -16 667 -16 c 0xcf
 632 -16 579 -12 507 -5 c 2xae
 459 0 l 1
 459 -434 l 1
 273 -434 l 1
 273 1552 l 1
 459 1552 l 1x9e
459 645 m 1
 459 166 l 1
 526 149 588 140 645 140 c 0
 758 140 852 184 929 272 c 0
 1006 361 1045 482 1045 635 c 0
 1045 746 1024 830 982 886 c 0
 940 942 892 970 839 970 c 0
 781 970 717 941 647 882 c 0
 578 823 515 744 459 645 c 1
EndSplineSet
EndChar

StartChar: Ydieresis
Encoding: 255 255 191
Width: 1229
GlyphClass: 2
Flags: MW
HStem: -466 155<220.5 274 220.5 314.5> -451 21G<97 97> 1097 20G<115 320 320 320 1075 1262 1262 1262> 1288 248<476.5 509.5 476.5 510 911.5 944.5>
VStem: 49 1165
LayerCount: 2
Fore
SplineSet
614 2 m 2xa8
 631 45 l 1
 115 1117 l 1
 320 1117 l 1
 731 279 l 1
 1075 1117 l 1
 1262 1117 l 1
 829 79 l 2
 738 -140 651 -286 568 -358 c 0
 486 -430 380 -466 249 -466 c 0xb8
 192 -466 142 -461 97 -451 c 1x68
 97 -287 l 1
 148 -303 197 -311 244 -311 c 0
 304 -311 357 -299 404 -276 c 0
 451 -253 493 -211 532 -152 c 0
 571 -93 598 -41 614 2 c 2xa8
493 1288 m 0
 459 1288 430 1300 405 1324 c 0
 381 1348 369 1377 369 1412 c 0
 369 1447 381 1476 406 1500 c 0
 431 1524 460 1536 493 1536 c 0
 526 1536 555 1524 580 1500 c 0
 605 1476 617 1447 617 1412 c 0
 617 1377 605 1348 580 1324 c 0
 556 1300 527 1288 493 1288 c 0
928 1288 m 0
 894 1288 865 1300 840 1324 c 0
 815 1348 803 1377 803 1412 c 0
 803 1447 815 1476 840 1500 c 0
 865 1524 895 1536 928 1536 c 0
 961 1536 990 1524 1015 1500 c 0
 1040 1476 1052 1447 1052 1412 c 0
 1052 1377 1040 1348 1015 1324 c 0
 990 1300 961 1288 928 1288 c 0
EndSplineSet
EndChar

StartChar: Amacron
Encoding: 256 256 192
Width: 1229
GlyphClass: 2
Flags: MW
HStem: 0 21G<65 259 65 65 1016 1016 1016 1229> 341 155<364 865 412 865 412 910> 1532 20G<543 748 748 748> 1654 124<368 927 368 927>
VStem: 33 1164
LayerCount: 2
Fore
SplineSet
364 341 m 1
 259 0 l 1
 65 0 l 1
 543 1552 l 1
 748 1552 l 1
 1229 0 l 1
 1016 0 l 1
 910 341 l 1
 364 341 l 1
595 1085 m 1
 412 496 l 1
 865 496 l 1
 678 1085 l 1
 634 1241 l 1
 595 1085 l 1
927 1654 m 1
 368 1654 l 1
 368 1778 l 1
 927 1778 l 1
 927 1654 l 1
EndSplineSet
EndChar

StartChar: amacron
Encoding: 257 257 193
Width: 1229
GlyphClass: 2
Flags: MW
HStem: -31 178<583.5 599.5> 0 21G<1025 1219 1025 1025> 977 156<748.5 799.5 660 834.5> 1097 20G<990 1177 1177 1177> 1243 124<436 995 436 995>
VStem: 102 202 889 187
LayerCount: 2
Fore
SplineSet
990 251 m 1x6a
 933 158 865 87 785 40 c 0
 706 -7 633 -31 566 -31 c 0
 473 -31 389 9 314 90 c 0
 240 171 203 293 203 457 c 0
 203 586 228 702 277 803 c 0
 376 1007 538 1133 782 1133 c 0xae
 817 1133 871 1129 942 1122 c 2
 990 1117 l 1
 1177 1117 l 1x5a
 1177 328 l 2
 1177 193 1191 84 1219 0 c 1
 1025 0 l 1
 1010 61 999 145 990 251 c 1x6a
990 472 m 1
 990 951 l 1
 924 968 863 977 806 977 c 0
 691 977 596 933 519 844 c 0
 443 755 405 635 405 482 c 0
 405 371 426 288 467 231 c 0
 509 175 557 147 610 147 c 0
 668 147 732 176 802 235 c 0
 872 294 935 373 990 472 c 1
995 1243 m 1
 436 1243 l 1
 436 1367 l 1
 995 1367 l 1
 995 1243 l 1
EndSplineSet
EndChar

StartChar: Abreve
Encoding: 258 258 194
Width: 1229
GlyphClass: 2
Flags: MW
HStem: 0 21G<65 259 65 65 1016 1016 1016 1229> 341 155<364 865 412 865 412 910> 1532 20G<543 748 748 748> 1654 132<648 648>
VStem: 33 1164
LayerCount: 2
Fore
SplineSet
364 341 m 1
 259 0 l 1
 65 0 l 1
 543 1552 l 1
 748 1552 l 1
 1229 0 l 1
 1016 0 l 1
 910 341 l 1
 364 341 l 1
595 1085 m 1
 412 496 l 1
 865 496 l 1
 678 1085 l 1
 634 1241 l 1
 595 1085 l 1
352 1980 m 1
 480 1980 l 1
 486 1929 505 1883 538 1844 c 0
 571 1805 607 1786 648 1786 c 0
 689 1786 725 1806 757 1845 c 0
 789 1885 808 1930 814 1980 c 1
 942 1980 l 1
 920 1763 780 1660 648 1654 c 1
 516 1660 375 1763 352 1980 c 1
EndSplineSet
EndChar

StartChar: abreve
Encoding: 259 259 195
Width: 1229
GlyphClass: 2
Flags: MW
HStem: -31 178<583.5 599.5> 0 21G<1025 1219 1025 1025> 977 156<748.5 799.5 660 834.5> 1097 20G<990 1177 1177 1177> 1243 132<717 717> 1549 20G<421 549 549 549 883 1011 1011 1011>
VStem: 102 202 889 187
LayerCount: 2
Fore
SplineSet
990 251 m 1x6d
 933 158 865 87 785 40 c 0
 706 -7 633 -31 566 -31 c 0
 473 -31 389 9 314 90 c 0
 240 171 203 293 203 457 c 0
 203 586 228 702 277 803 c 0
 376 1007 538 1133 782 1133 c 0xaf
 817 1133 871 1129 942 1122 c 2
 990 1117 l 1
 1177 1117 l 1x5d
 1177 328 l 2
 1177 193 1191 84 1219 0 c 1
 1025 0 l 1
 1010 61 999 145 990 251 c 1x6d
990 472 m 1
 990 951 l 1
 924 968 863 977 806 977 c 0
 691 977 596 933 519 844 c 0
 443 755 405 635 405 482 c 0
 405 371 426 288 467 231 c 0
 509 175 557 147 610 147 c 0
 668 147 732 176 802 235 c 0
 872 294 935 373 990 472 c 1
421 1569 m 1
 549 1569 l 1
 555 1518 574 1472 607 1433 c 0
 640 1394 676 1375 717 1375 c 0
 758 1375 794 1395 826 1434 c 0
 858 1474 877 1519 883 1569 c 1
 1011 1569 l 1
 989 1352 849 1249 717 1243 c 1
 585 1249 444 1352 421 1569 c 1
EndSplineSet
EndChar

StartChar: Aogonek
Encoding: 260 260 196
Width: 1229
GlyphClass: 2
Flags: MW
HStem: -424 107<1105.5 1122.5> 0 10<1036 1229 1036 1229> 341 155<364 865 412 865 412 910> 1532 20G<543 748 748 748>
VStem: 856 140
LayerCount: 2
Fore
SplineSet
364 341 m 1
 259 0 l 1
 65 0 l 1
 543 1552 l 1
 748 1552 l 1
 1229 0 l 1
 1016 0 l 1
 910 341 l 1
 364 341 l 1
595 1085 m 1
 412 496 l 1
 865 496 l 1
 678 1085 l 1
 634 1241 l 1
 595 1085 l 1
1036 10 m 1
 1229 10 l 1
 1169 -18 1120 -57 1083 -107 c 0
 1046 -157 1028 -198 1028 -230 c 0
 1028 -271 1062 -317 1149 -317 c 0
 1172 -317 1199 -311 1229 -298 c 1
 1229 -395 l 1
 1185 -414 1143 -424 1102 -424 c 0
 1040 -424 989 -407 948 -374 c 0
 908 -341 888 -298 888 -247 c 0
 888 -166 937 -81 1036 10 c 1
EndSplineSet
EndChar

StartChar: aogonek
Encoding: 261 261 197
Width: 1229
GlyphClass: 2
Flags: MW
HStem: -425 107<1095.5 1112.5> -31 178<583.5 599.5> 0 9<1026 1219 1026 1219 1025 1219> 977 156<748.5 799.5 660 834.5> 1097 20G<990 1177 1177 1177>
VStem: 102 202 777 140 889 187
LayerCount: 2
Fore
SplineSet
990 251 m 1xb1
 933 158 865 87 785 40 c 0
 706 -7 633 -31 566 -31 c 0
 473 -31 389 9 314 90 c 0
 240 171 203 293 203 457 c 0
 203 586 228 702 277 803 c 0
 376 1007 538 1133 782 1133 c 0xd5
 817 1133 871 1129 942 1122 c 2
 990 1117 l 1
 1177 1117 l 1xa9
 1177 328 l 2
 1177 193 1191 84 1219 0 c 1
 1025 0 l 1
 1010 61 999 145 990 251 c 1xb1
990 472 m 1
 990 951 l 1
 924 968 863 977 806 977 c 0
 691 977 596 933 519 844 c 0
 443 755 405 635 405 482 c 0
 405 371 426 288 467 231 c 0
 509 175 557 147 610 147 c 0
 668 147 732 176 802 235 c 0
 872 294 935 373 990 472 c 1
1026 9 m 1
 1219 9 l 1
 1159 -19 1110 -58 1073 -108 c 0
 1036 -158 1018 -199 1018 -231 c 0
 1018 -272 1052 -318 1139 -318 c 0
 1162 -318 1189 -312 1219 -299 c 1
 1219 -396 l 1
 1175 -415 1133 -425 1092 -425 c 0
 1030 -425 979 -408 938 -375 c 0
 898 -342 878 -299 878 -248 c 0xb2
 878 -167 927 -82 1026 9 c 1
EndSplineSet
EndChar

StartChar: Cacute
Encoding: 262 262 198
Width: 1229
GlyphClass: 2
Flags: MW
HStem: -47 155<832.5 937.5 805.5 939> 1443 156<845 938>
VStem: 118 209 837 251
LayerCount: 2
Fore
SplineSet
1205 201 m 1
 1205 18 l 1
 1089 -25 985 -47 893 -47 c 0
 772 -47 660 -15 558 50 c 0
 456 115 377 212 320 340 c 0
 263 469 235 614 235 776 c 0
 235 937 263 1081 319 1209 c 0
 375 1337 454 1434 556 1500 c 0
 658 1566 770 1599 893 1599 c 0
 985 1599 1089 1577 1205 1534 c 1
 1205 1350 l 1
 1098 1412 991 1443 885 1443 c 0
 805 1443 732 1416 665 1361 c 0
 599 1306 546 1226 505 1120 c 0
 464 1015 444 900 444 776 c 0
 444 650 465 534 507 427 c 0
 591 214 726 108 885 108 c 0
 990 108 1097 139 1205 201 c 1
828 1722 m 1
 658 1722 l 1
 954 2048 l 1
 1170 2048 l 1
 828 1722 l 1
EndSplineSet
EndChar

StartChar: cacute
Encoding: 263 263 199
Width: 1229
GlyphClass: 2
Flags: MW
HStem: -31 171<902 940.5 852.5 958.5> 993 155<875 949.5 814 960.5>
VStem: 164 202
LayerCount: 2
Fore
SplineSet
1258 211 m 1
 1258 32 l 1
 1133 -10 1015 -31 902 -31 c 0
 568 -33 323 224 327 558 c 0
 327 727 382 868 492 980 c 0
 603 1092 736 1148 892 1148 c 0
 1007 1148 1129 1126 1258 1083 c 1
 1258 904 l 1
 1128 963 1012 993 909 993 c 0
 841 993 777 976 717 942 c 0
 657 909 611 856 578 785 c 0
 545 714 529 640 529 565 c 0
 529 464 560 368 623 277 c 0
 686 186 785 140 920 140 c 0
 961 140 1001 143 1040 148 c 0
 1079 154 1152 175 1258 211 c 1
827 1288 m 1
 657 1288 l 1
 953 1614 l 1
 1169 1614 l 1
 827 1288 l 1
EndSplineSet
EndChar

StartChar: Ccircumflex
Encoding: 264 264 200
Width: 1229
GlyphClass: 2
Flags: MW
HStem: -47 155<832.5 937.5 805.5 939> 1443 156<845 938>
VStem: 118 209
LayerCount: 2
Fore
SplineSet
1205 201 m 1
 1205 18 l 1
 1089 -25 985 -47 893 -47 c 0
 772 -47 660 -15 558 50 c 0
 456 115 377 212 320 340 c 0
 263 469 235 614 235 776 c 0
 235 937 263 1081 319 1209 c 0
 375 1337 454 1434 556 1500 c 0
 658 1566 770 1599 893 1599 c 0
 985 1599 1089 1577 1205 1534 c 1
 1205 1350 l 1
 1098 1412 991 1443 885 1443 c 0
 805 1443 732 1416 665 1361 c 0
 599 1306 546 1226 505 1120 c 0
 464 1015 444 900 444 776 c 0
 444 650 465 534 507 427 c 0
 591 214 726 108 885 108 c 0
 990 108 1097 139 1205 201 c 1
969 1701 m 1
 830 1869 l 1
 690 1701 l 1
 535 1701 l 1
 768 2027 l 1
 892 2027 l 1
 1125 1701 l 1
 969 1701 l 1
EndSplineSet
EndChar

StartChar: ccircumflex
Encoding: 265 265 201
Width: 1229
GlyphClass: 2
Flags: MW
HStem: -31 171<902 940.5 852.5 958.5> 993 155<875 949.5 814 960.5> 1564 20G<780 904 904 904>
VStem: 164 202
LayerCount: 2
Fore
SplineSet
1258 211 m 1
 1258 32 l 1
 1133 -10 1015 -31 902 -31 c 0
 568 -33 323 224 327 558 c 0
 327 727 382 868 492 980 c 0
 603 1092 736 1148 892 1148 c 0
 1007 1148 1129 1126 1258 1083 c 1
 1258 904 l 1
 1128 963 1012 993 909 993 c 0
 841 993 777 976 717 942 c 0
 657 909 611 856 578 785 c 0
 545 714 529 640 529 565 c 0
 529 464 560 368 623 277 c 0
 686 186 785 140 920 140 c 0
 961 140 1001 143 1040 148 c 0
 1079 154 1152 175 1258 211 c 1
981 1258 m 1
 842 1426 l 1
 702 1258 l 1
 547 1258 l 1
 780 1584 l 1
 904 1584 l 1
 1137 1258 l 1
 981 1258 l 1
EndSplineSet
EndChar

StartChar: Cdot
Encoding: 266 266 202
Width: 1229
GlyphClass: 2
Flags: MW
HStem: -47 155<832.5 937.5 805.5 939> 1443 156<845 938>
VStem: 118 209
LayerCount: 2
Fore
SplineSet
1205 201 m 1
 1205 18 l 1
 1089 -25 985 -47 893 -47 c 0
 772 -47 660 -15 558 50 c 0
 456 115 377 212 320 340 c 0
 263 469 235 614 235 776 c 0
 235 937 263 1081 319 1209 c 0
 375 1337 454 1434 556 1500 c 0
 658 1566 770 1599 893 1599 c 0
 985 1599 1089 1577 1205 1534 c 1
 1205 1350 l 1
 1098 1412 991 1443 885 1443 c 0
 805 1443 732 1416 665 1361 c 0
 599 1306 546 1226 505 1120 c 0
 464 1015 444 900 444 776 c 0
 444 650 465 534 507 427 c 0
 591 214 726 108 885 108 c 0
 990 108 1097 139 1205 201 c 1
821 1779 m 0
 787 1779 758 1791 734 1814 c 0
 710 1838 698 1867 698 1901 c 0
 698 1935 710 1964 734 1988 c 0
 759 2012 788 2024 821 2024 c 0
 854 2024 882 2012 906 1988 c 0
 931 1964 943 1935 943 1901 c 0
 943 1867 931 1838 907 1814 c 0
 883 1791 854 1779 821 1779 c 0
EndSplineSet
EndChar

StartChar: cdot
Encoding: 267 267 203
Width: 1229
GlyphClass: 2
Flags: MW
HStem: -31 171<902 940.5 852.5 958.5> 993 155<875 949.5 814 960.5> 1561 20G<826.5 859.5>
VStem: 164 202
LayerCount: 2
Fore
SplineSet
1258 211 m 1
 1258 32 l 1
 1133 -10 1015 -31 902 -31 c 0
 568 -33 323 224 327 558 c 0
 327 727 382 868 492 980 c 0
 603 1092 736 1148 892 1148 c 0
 1007 1148 1129 1126 1258 1083 c 1
 1258 904 l 1
 1128 963 1012 993 909 993 c 0
 841 993 777 976 717 942 c 0
 657 909 611 856 578 785 c 0
 545 714 529 640 529 565 c 0
 529 464 560 368 623 277 c 0
 686 186 785 140 920 140 c 0
 961 140 1001 143 1040 148 c 0
 1079 154 1152 175 1258 211 c 1
843 1336 m 0
 809 1336 780 1348 756 1371 c 0
 732 1395 720 1424 720 1458 c 0
 720 1492 732 1521 756 1545 c 0
 781 1569 810 1581 843 1581 c 0
 876 1581 904 1569 928 1545 c 0
 953 1521 965 1492 965 1458 c 0
 965 1424 953 1395 929 1371 c 0
 905 1348 876 1336 843 1336 c 0
EndSplineSet
EndChar

StartChar: Ccaron
Encoding: 268 268 204
Width: 1229
GlyphClass: 2
Flags: MW
HStem: -47 155<832.5 937.5 805.5 939> 1443 156<845 938>
VStem: 118 209 889 199
LayerCount: 2
Fore
SplineSet
1205 201 m 1
 1205 18 l 1
 1089 -25 985 -47 893 -47 c 0
 772 -47 660 -15 558 50 c 0
 456 115 377 212 320 340 c 0
 263 469 235 614 235 776 c 0
 235 937 263 1081 319 1209 c 0
 375 1337 454 1434 556 1500 c 0
 658 1566 770 1599 893 1599 c 0
 985 1599 1089 1577 1205 1534 c 1
 1205 1350 l 1
 1098 1412 991 1443 885 1443 c 0
 805 1443 732 1416 665 1361 c 0
 599 1306 546 1226 505 1120 c 0
 464 1015 444 900 444 776 c 0
 444 650 465 534 507 427 c 0
 591 214 726 108 885 108 c 0
 990 108 1097 139 1205 201 c 1
727 2048 m 1
 867 1880 l 1
 1006 2048 l 1
 1162 2048 l 1
 929 1722 l 1
 805 1722 l 1
 572 2048 l 1
 727 2048 l 1
EndSplineSet
EndChar

StartChar: ccaron
Encoding: 269 269 205
Width: 1229
GlyphClass: 2
Flags: MW
HStem: -31 171<902 940.5 852.5 958.5> 993 155<875 949.5 814 960.5>
VStem: 164 202
LayerCount: 2
Fore
SplineSet
1258 211 m 1
 1258 32 l 1
 1133 -10 1015 -31 902 -31 c 0
 568 -33 323 224 327 558 c 0
 327 727 382 868 492 980 c 0
 603 1092 736 1148 892 1148 c 0
 1007 1148 1129 1126 1258 1083 c 1
 1258 904 l 1
 1128 963 1012 993 909 993 c 0
 841 993 777 976 717 942 c 0
 657 909 611 856 578 785 c 0
 545 714 529 640 529 565 c 0
 529 464 560 368 623 277 c 0
 686 186 785 140 920 140 c 0
 961 140 1001 143 1040 148 c 0
 1079 154 1152 175 1258 211 c 1
773 1614 m 1
 913 1446 l 1
 1052 1614 l 1
 1208 1614 l 1
 975 1288 l 1
 851 1288 l 1
 618 1614 l 1
 773 1614 l 1
EndSplineSet
EndChar

StartChar: Dcaron
Encoding: 270 270 206
Width: 1229
GlyphClass: 2
Flags: MW
HStem: 0 171<511 646 646 677> 1396 156<511 511 511 662>
VStem: 155 202 947 201
LayerCount: 2
Fore
SplineSet
677 0 m 2
 309 0 l 1
 309 1552 l 1
 677 1552 l 2
 846 1552 972 1522 1054 1463 c 0
 1137 1404 1199 1315 1240 1196 c 0
 1281 1077 1302 935 1302 772 c 0
 1302 617 1280 481 1236 364 c 0
 1193 247 1131 157 1051 94 c 0
 971 31 846 0 677 0 c 2
511 1396 m 1
 511 171 l 1
 646 171 l 2
 783 171 880 195 938 244 c 0
 997 293 1038 360 1063 446 c 0
 1088 533 1101 652 1101 804 c 0
 1101 953 1086 1067 1057 1147 c 0
 1028 1227 986 1288 931 1331 c 0
 876 1374 787 1396 662 1396 c 2
 511 1396 l 1
623 1980 m 1
 763 1812 l 1
 902 1980 l 1
 1058 1980 l 1
 825 1654 l 1
 701 1654 l 1
 468 1980 l 1
 623 1980 l 1
EndSplineSet
EndChar

StartChar: dcaron
Encoding: 271 271 207
Width: 1229
GlyphClass: 2
Flags: MW
HStem: -31 178<607.5 623.5> 0 21G<1014 1014 1014 1201> 977 156<772.5 823.5 684 858.5> 1097 20G<1014 1014> 1102 20G<966 966>
VStem: 114 202 901 187
LayerCount: 2
Fore
SplineSet
1014 0 m 1x62
 1014 251 l 1
 957 158 889 87 809 40 c 0
 730 -7 657 -31 590 -31 c 0
 497 -31 413 9 338 90 c 0
 264 171 227 293 227 457 c 0
 227 586 252 702 301 803 c 0
 400 1007 562 1133 806 1133 c 0xa6
 841 1133 895 1129 966 1122 c 2x4a
 1014 1117 l 1x52
 1014 1614 l 1
 1201 1614 l 1
 1201 0 l 1
 1014 0 l 1x62
1014 472 m 1
 1014 951 l 1
 948 968 887 977 830 977 c 0
 715 977 620 933 543 844 c 0
 467 755 429 635 429 482 c 0
 429 371 450 288 491 231 c 0
 533 175 581 147 634 147 c 0
 692 147 756 176 826 235 c 0
 896 294 959 373 1014 472 c 1
491 1814 m 1
 631 1646 l 1
 770 1814 l 1
 926 1814 l 1
 693 1488 l 1
 569 1488 l 1
 336 1814 l 1
 491 1814 l 1
EndSplineSet
EndChar

StartChar: Dcroat
Encoding: 272 272 208
Width: 1229
GlyphClass: 2
Flags: MW
HStem: 0 171<361 496 496 569> 714 155<4 159 4 159 361 609> 1396 156<361 512 361 361>
VStem: 157 202 949 201
LayerCount: 2
Fore
SplineSet
569 0 m 2
 159 0 l 1
 159 714 l 1
 4 714 l 1
 4 869 l 1
 159 869 l 1
 159 1552 l 1
 527 1552 l 2
 709 1552 836 1526 909 1475 c 0
 982 1424 1040 1334 1085 1207 c 0
 1130 1080 1152 935 1152 772 c 0
 1152 617 1130 479 1085 358 c 0
 1040 237 982 147 909 88 c 0
 836 29 723 0 569 0 c 2
361 714 m 1
 361 171 l 1
 496 171 l 2
 642 171 740 192 791 234 c 0
 894 319 951 500 951 804 c 0
 951 953 937 1069 909 1153 c 0
 882 1238 844 1299 795 1338 c 0
 747 1377 653 1396 512 1396 c 2
 361 1396 l 1
 361 869 l 1
 609 869 l 1
 609 714 l 1
 361 714 l 1
EndSplineSet
EndChar

StartChar: dcroat
Encoding: 273 273 209
Width: 1229
GlyphClass: 2
Flags: MW
HStem: -31 178<615.5 631.5> 0 21G<1022 1022 1022 1209> 977 156<780.5 831.5 692 866.5> 1097 20G<1022 1022> 1102 20G<974 974> 1257 139<836 1022 836 1022 1209 1395>
VStem: 118 202 905 187
LayerCount: 2
Fore
SplineSet
1022 0 m 1x65
 1022 251 l 1
 965 158 897 87 817 40 c 0
 738 -7 665 -31 598 -31 c 0
 505 -31 421 9 346 90 c 0
 272 171 235 293 235 457 c 0
 235 586 260 702 309 803 c 0
 408 1007 570 1133 814 1133 c 0xa7
 849 1133 903 1129 974 1122 c 2x4d
 1022 1117 l 1x55
 1022 1257 l 1
 836 1257 l 1
 836 1396 l 1
 1022 1396 l 1
 1022 1614 l 1
 1209 1614 l 1
 1209 1396 l 1
 1395 1396 l 1
 1395 1257 l 1
 1209 1257 l 1
 1209 0 l 1
 1022 0 l 1x65
1022 472 m 1
 1022 951 l 1
 956 968 895 977 838 977 c 0
 723 977 628 933 551 844 c 0
 475 755 437 635 437 482 c 0
 437 371 458 288 499 231 c 0
 541 175 589 147 642 147 c 0
 700 147 764 176 834 235 c 0
 904 294 967 373 1022 472 c 1
EndSplineSet
EndChar

StartChar: Emacron
Encoding: 274 274 210
Width: 1229
GlyphClass: 2
Flags: MW
HStem: 0 171<607 1243 607 1243> 714 155<607 1165 607 1165> 1396 156<607 1227 607 607> 1754 124<545 1104 545 1104>
VStem: 203 202
LayerCount: 2
Fore
SplineSet
607 171 m 1
 1243 171 l 1
 1243 0 l 1
 405 0 l 1
 405 1552 l 1
 1227 1552 l 1
 1227 1396 l 1
 607 1396 l 1
 607 869 l 1
 1165 869 l 1
 1165 714 l 1
 607 714 l 1
 607 171 l 1
1104 1754 m 1
 545 1754 l 1
 545 1878 l 1
 1104 1878 l 1
 1104 1754 l 1
EndSplineSet
EndChar

StartChar: emacron
Encoding: 275 275 211
Width: 1229
GlyphClass: 2
Flags: MW
HStem: -32 156<747.5 857.5> 528 139<470 1027 470 1229 459 1027> 993 155<739 818.5> 1258 124<505 1064 505 1064>
VStem: 130 200 898 202
LayerCount: 2
Fore
SplineSet
1213 244 m 1
 1213 74 l 1
 1064 3 924 -32 791 -32 c 0
 690 -32 600 -7 521 43 c 0
 442 93 378 164 330 257 c 0
 283 350 259 450 259 556 c 0
 259 658 282 756 327 850 c 0
 372 944 436 1017 517 1069 c 0
 598 1122 689 1148 789 1148 c 0
 922 1148 1028 1101 1108 1006 c 0
 1189 911 1229 765 1229 568 c 2
 1229 528 l 1
 459 528 l 1
 459 451 475 380 507 316 c 0
 572 188 680 124 815 124 c 0
 935 124 1068 164 1213 244 c 1
470 667 m 1
 1027 667 l 1
 1027 694 l 2
 1027 785 1005 858 960 912 c 0
 915 966 856 993 781 993 c 0
 630 993 514 882 470 667 c 1
1064 1258 m 1
 505 1258 l 1
 505 1382 l 1
 1064 1382 l 1
 1064 1258 l 1
EndSplineSet
EndChar

StartChar: Ebreve
Encoding: 276 276 212
Width: 1229
GlyphClass: 2
Flags: MW
HStem: 0 171<607 1243 607 1243> 714 155<607 1165 607 1165> 1396 156<607 1227 607 607> 1654 132<825 825>
VStem: 203 202 789 252
LayerCount: 2
Fore
SplineSet
607 171 m 1
 1243 171 l 1
 1243 0 l 1
 405 0 l 1
 405 1552 l 1
 1227 1552 l 1
 1227 1396 l 1
 607 1396 l 1
 607 869 l 1
 1165 869 l 1
 1165 714 l 1
 607 714 l 1
 607 171 l 1
529 1980 m 1
 657 1980 l 1
 663 1929 682 1883 715 1844 c 0
 748 1805 784 1786 825 1786 c 0
 866 1786 902 1806 934 1845 c 0
 966 1885 985 1930 991 1980 c 1
 1119 1980 l 1
 1097 1763 957 1660 825 1654 c 1
 693 1660 552 1763 529 1980 c 1
EndSplineSet
EndChar

StartChar: ebreve
Encoding: 277 277 213
Width: 1229
GlyphClass: 2
Flags: MW
HStem: -32 156<747.5 857.5> 528 139<470 1027 470 1229 459 1027> 993 155<739 818.5> 1258 132<795 795> 1564 20G<499 627 627 627 961 1089 1089 1089>
VStem: 130 200 898 202
LayerCount: 2
Fore
SplineSet
1213 244 m 1
 1213 74 l 1
 1064 3 924 -32 791 -32 c 0
 690 -32 600 -7 521 43 c 0
 442 93 378 164 330 257 c 0
 283 350 259 450 259 556 c 0
 259 658 282 756 327 850 c 0
 372 944 436 1017 517 1069 c 0
 598 1122 689 1148 789 1148 c 0
 922 1148 1028 1101 1108 1006 c 0
 1189 911 1229 765 1229 568 c 2
 1229 528 l 1
 459 528 l 1
 459 451 475 380 507 316 c 0
 572 188 680 124 815 124 c 0
 935 124 1068 164 1213 244 c 1
470 667 m 1
 1027 667 l 1
 1027 694 l 2
 1027 785 1005 858 960 912 c 0
 915 966 856 993 781 993 c 0
 630 993 514 882 470 667 c 1
499 1584 m 1
 627 1584 l 1
 633 1533 652 1487 685 1448 c 0
 718 1409 754 1390 795 1390 c 0
 836 1390 872 1410 904 1449 c 0
 936 1489 955 1534 961 1584 c 1
 1089 1584 l 1
 1067 1367 927 1264 795 1258 c 1
 663 1264 522 1367 499 1584 c 1
EndSplineSet
EndChar

StartChar: Edot
Encoding: 278 278 214
Width: 1229
GlyphClass: 2
Flags: MW
HStem: 0 171<607 1243 607 1243> 714 155<607 1165 607 1165> 1396 156<607 1227 607 607>
VStem: 203 202
LayerCount: 2
Fore
SplineSet
607 171 m 1
 1243 171 l 1
 1243 0 l 1
 405 0 l 1
 405 1552 l 1
 1227 1552 l 1
 1227 1396 l 1
 607 1396 l 1
 607 869 l 1
 1165 869 l 1
 1165 714 l 1
 607 714 l 1
 607 171 l 1
825 1732 m 0
 791 1732 762 1744 738 1767 c 0
 714 1791 702 1820 702 1854 c 0
 702 1888 714 1917 738 1941 c 0
 763 1965 792 1977 825 1977 c 0
 858 1977 886 1965 910 1941 c 0
 935 1917 947 1888 947 1854 c 0
 947 1820 935 1791 911 1767 c 0
 887 1744 858 1732 825 1732 c 0
EndSplineSet
EndChar

StartChar: edot
Encoding: 279 279 215
Width: 1229
GlyphClass: 2
Flags: MW
HStem: -32 156<747.5 857.5> 528 139<470 1027 470 1229 459 1027> 993 155<739 818.5> 1561 20G<778.5 811.5>
VStem: 130 200 898 202
LayerCount: 2
Fore
SplineSet
1213 244 m 1
 1213 74 l 1
 1064 3 924 -32 791 -32 c 0
 690 -32 600 -7 521 43 c 0
 442 93 378 164 330 257 c 0
 283 350 259 450 259 556 c 0
 259 658 282 756 327 850 c 0
 372 944 436 1017 517 1069 c 0
 598 1122 689 1148 789 1148 c 0
 922 1148 1028 1101 1108 1006 c 0
 1189 911 1229 765 1229 568 c 2
 1229 528 l 1
 459 528 l 1
 459 451 475 380 507 316 c 0
 572 188 680 124 815 124 c 0
 935 124 1068 164 1213 244 c 1
470 667 m 1
 1027 667 l 1
 1027 694 l 2
 1027 785 1005 858 960 912 c 0
 915 966 856 993 781 993 c 0
 630 993 514 882 470 667 c 1
795 1336 m 0
 761 1336 732 1348 708 1371 c 0
 684 1395 672 1424 672 1458 c 0
 672 1492 684 1521 708 1545 c 0
 733 1569 762 1581 795 1581 c 0
 828 1581 856 1569 880 1545 c 0
 905 1521 917 1492 917 1458 c 0
 917 1424 905 1395 881 1371 c 0
 857 1348 828 1336 795 1336 c 0
EndSplineSet
EndChar

StartChar: Eogonek
Encoding: 280 280 216
Width: 1229
GlyphClass: 2
Flags: MW
HStem: -424 107<871.5 888.5> 0 10<802 995 802 1243> 0 171<607 1243 607 1243> 714 155<607 1165 607 1165> 1396 156<607 1227 607 607>
VStem: 203 202 452 140
LayerCount: 2
Fore
SplineSet
607 171 m 1x5c
 1243 171 l 1x3c
 1243 0 l 1
 405 0 l 1
 405 1552 l 1
 1227 1552 l 1
 1227 1396 l 1
 607 1396 l 1
 607 869 l 1
 1165 869 l 1
 1165 714 l 1
 607 714 l 1
 607 171 l 1x5c
802 10 m 1
 995 10 l 1
 935 -18 886 -57 849 -107 c 0
 812 -157 794 -198 794 -230 c 0
 794 -271 828 -317 915 -317 c 0
 938 -317 965 -311 995 -298 c 1
 995 -395 l 1
 951 -414 909 -424 868 -424 c 0
 806 -424 755 -407 714 -374 c 0
 674 -341 654 -298 654 -247 c 0
 654 -166 703 -81 802 10 c 1
EndSplineSet
EndChar

StartChar: eogonek
Encoding: 281 281 217
Width: 1229
GlyphClass: 2
Flags: MW
HStem: -434 107<808.5 825.5> -32 32<740.5 857.5> -32 156<747.5 857.5> 528 139<470 1027 470 1229 459 1027> 993 155<739 818.5>
VStem: 130 200 462 140 898 202
LayerCount: 2
Fore
SplineSet
1213 244 m 1xdf
 1213 74 l 1
 1064 3 924 -32 791 -32 c 0
 690 -32 600 -7 521 43 c 0xdf
 442 93 378 164 330 257 c 0
 283 350 259 450 259 556 c 0
 259 658 282 756 327 850 c 0
 372 944 436 1017 517 1069 c 0
 598 1122 689 1148 789 1148 c 0
 922 1148 1028 1101 1108 1006 c 0
 1189 911 1229 765 1229 568 c 2
 1229 528 l 1
 459 528 l 1
 459 451 475 380 507 316 c 0
 572 188 680 124 815 124 c 0xbf
 935 124 1068 164 1213 244 c 1xdf
470 667 m 1
 1027 667 l 1
 1027 694 l 2
 1027 785 1005 858 960 912 c 0
 915 966 856 993 781 993 c 0
 630 993 514 882 470 667 c 1
739 0 m 1
 932 0 l 1
 872 -28 823 -67 786 -117 c 0
 749 -167 731 -208 731 -240 c 0
 731 -281 765 -327 852 -327 c 0
 875 -327 902 -321 932 -308 c 1
 932 -405 l 1
 888 -424 846 -434 805 -434 c 0
 743 -434 692 -417 651 -384 c 0
 611 -351 591 -308 591 -257 c 0
 591 -176 640 -91 739 0 c 1
EndSplineSet
EndChar

StartChar: Ecaron
Encoding: 282 282 218
Width: 1229
GlyphClass: 2
Flags: MW
HStem: 0 171<607 1243 607 1243> 714 155<607 1165 607 1165> 1396 156<607 1227 607 607>
VStem: 203 202 761 280
LayerCount: 2
Fore
SplineSet
607 171 m 1
 1243 171 l 1
 1243 0 l 1
 405 0 l 1
 405 1552 l 1
 1227 1552 l 1
 1227 1396 l 1
 607 1396 l 1
 607 869 l 1
 1165 869 l 1
 1165 714 l 1
 607 714 l 1
 607 171 l 1
684 1980 m 1
 824 1812 l 1
 963 1980 l 1
 1119 1980 l 1
 886 1654 l 1
 762 1654 l 1
 529 1980 l 1
 684 1980 l 1
EndSplineSet
EndChar

StartChar: ecaron
Encoding: 283 283 219
Width: 1229
GlyphClass: 2
Flags: MW
HStem: -32 156<747.5 857.5> 528 139<470 1027 470 1229 459 1027> 993 155<739 818.5> 1564 20G<499 654 654 654 933 1089 1089 1089>
VStem: 130 200 898 202
LayerCount: 2
Fore
SplineSet
1213 244 m 1
 1213 74 l 1
 1064 3 924 -32 791 -32 c 0
 690 -32 600 -7 521 43 c 0
 442 93 378 164 330 257 c 0
 283 350 259 450 259 556 c 0
 259 658 282 756 327 850 c 0
 372 944 436 1017 517 1069 c 0
 598 1122 689 1148 789 1148 c 0
 922 1148 1028 1101 1108 1006 c 0
 1189 911 1229 765 1229 568 c 2
 1229 528 l 1
 459 528 l 1
 459 451 475 380 507 316 c 0
 572 188 680 124 815 124 c 0
 935 124 1068 164 1213 244 c 1
470 667 m 1
 1027 667 l 1
 1027 694 l 2
 1027 785 1005 858 960 912 c 0
 915 966 856 993 781 993 c 0
 630 993 514 882 470 667 c 1
654 1584 m 1
 794 1416 l 1
 933 1584 l 1
 1089 1584 l 1
 856 1258 l 1
 732 1258 l 1
 499 1584 l 1
 654 1584 l 1
EndSplineSet
EndChar

StartChar: Gcircumflex
Encoding: 284 284 220
Width: 1229
GlyphClass: 2
Flags: MW
HStem: -47 155<839.5 932.5 839.5 949.5> 613 155<848 1003 848 1205> 1443 156<844 937>
VStem: 118 209 886 202
LayerCount: 2
Fore
SplineSet
1205 768 m 1
 1205 1 l 1
 1096 -31 995 -47 904 -47 c 0
 775 -47 659 -15 558 49 c 0
 457 113 378 209 321 338 c 0
 264 467 235 613 235 776 c 0
 235 937 263 1081 319 1209 c 0
 375 1337 454 1434 556 1500 c 0
 658 1566 770 1599 892 1599 c 0
 984 1599 1088 1577 1204 1534 c 1
 1204 1350 l 1
 1097 1412 990 1443 884 1443 c 0
 804 1443 731 1416 664 1361 c 0
 598 1306 545 1226 504 1120 c 0
 464 1015 444 899 444 774 c 0
 444 606 482 453 559 315 c 0
 636 177 757 108 922 108 c 0
 943 108 970 110 1003 113 c 1
 1003 613 l 1
 848 613 l 1
 848 768 l 1
 1205 768 l 1
959 1701 m 1
 820 1869 l 1
 680 1701 l 1
 525 1701 l 1
 758 2027 l 1
 882 2027 l 1
 1115 1701 l 1
 959 1701 l 1
EndSplineSet
EndChar

StartChar: gcircumflex
Encoding: 285 285 221
Width: 1229
GlyphClass: 2
Flags: MW
HStem: -465 155<613 705.5 613 709.5> -31 178<607.5 623.5> 977 156<772.5 823.5 684 858.5> 1097 20G<1014 1201 1201 1201> 1549 20G<660 784 784 784>
VStem: 114 202 901 187
LayerCount: 2
Fore
SplineSet
1014 93 m 2xea
 1014 251 l 1
 957 158 889 87 809 40 c 0
 730 -7 657 -31 590 -31 c 0
 497 -31 413 9 338 90 c 0
 264 171 227 293 227 457 c 0
 227 586 252 702 301 803 c 0
 400 1007 562 1133 806 1133 c 0xee
 841 1133 895 1129 966 1122 c 2
 1014 1117 l 1
 1201 1117 l 1xda
 1201 327 l 2
 1201 139 1198 24 1193 -17 c 0
 1188 -59 1180 -101 1169 -144 c 0
 1142 -243 1081 -322 986 -379 c 0
 891 -436 777 -465 642 -465 c 0
 507 -465 370 -430 231 -361 c 1
 231 -173 l 1
 284 -209 348 -241 425 -268 c 0
 502 -296 577 -310 649 -310 c 0
 762 -310 870 -273 933 -205 c 0
 964 -171 986 -131 997 -86 c 0
 1008 -41 1014 18 1014 93 c 2xea
1014 472 m 1
 1014 951 l 1
 948 968 887 977 830 977 c 0
 715 977 620 933 543 844 c 0
 467 755 429 635 429 482 c 0
 429 371 450 288 491 231 c 0
 533 175 581 147 634 147 c 0
 692 147 756 176 826 235 c 0
 896 294 959 373 1014 472 c 1
861 1243 m 1
 722 1411 l 1
 582 1243 l 1
 427 1243 l 1
 660 1569 l 1
 784 1569 l 1
 1017 1243 l 1
 861 1243 l 1
EndSplineSet
EndChar

StartChar: Gbreve
Encoding: 286 286 222
Width: 1229
GlyphClass: 2
Flags: MW
HStem: -47 155<839.5 932.5 839.5 949.5> 613 155<848 1003 848 1205> 1443 156<844 937> 1722 132<876 876>
VStem: 118 209 886 202
LayerCount: 2
Fore
SplineSet
1205 768 m 1
 1205 1 l 1
 1096 -31 995 -47 904 -47 c 0
 775 -47 659 -15 558 49 c 0
 457 113 378 209 321 338 c 0
 264 467 235 613 235 776 c 0
 235 937 263 1081 319 1209 c 0
 375 1337 454 1434 556 1500 c 0
 658 1566 770 1599 892 1599 c 0
 984 1599 1088 1577 1204 1534 c 1
 1204 1350 l 1
 1097 1412 990 1443 884 1443 c 0
 804 1443 731 1416 664 1361 c 0
 598 1306 545 1226 504 1120 c 0
 464 1015 444 899 444 774 c 0
 444 606 482 453 559 315 c 0
 636 177 757 108 922 108 c 0
 943 108 970 110 1003 113 c 1
 1003 613 l 1
 848 613 l 1
 848 768 l 1
 1205 768 l 1
580 2048 m 1
 708 2048 l 1
 714 1997 733 1951 766 1912 c 0
 799 1873 835 1854 876 1854 c 0
 917 1854 953 1874 985 1913 c 0
 1017 1953 1036 1998 1042 2048 c 1
 1170 2048 l 1
 1148 1831 1008 1728 876 1722 c 1
 744 1728 603 1831 580 2048 c 1
EndSplineSet
EndChar

StartChar: gbreve
Encoding: 287 287 223
Width: 1229
GlyphClass: 2
Flags: MW
HStem: -465 155<621 713.5 621 717.5> -31 178<615.5 631.5> 977 156<780.5 831.5 692 866.5> 1097 20G<1022 1209 1209 1209> 1288 132<800 800>
VStem: 118 202 905 187
LayerCount: 2
Fore
SplineSet
1022 93 m 2xea
 1022 251 l 1
 965 158 897 87 817 40 c 0
 738 -7 665 -31 598 -31 c 0
 505 -31 421 9 346 90 c 0
 272 171 235 293 235 457 c 0
 235 586 260 702 309 803 c 0
 408 1007 570 1133 814 1133 c 0xee
 849 1133 903 1129 974 1122 c 2
 1022 1117 l 1
 1209 1117 l 1xda
 1209 327 l 2
 1209 139 1206 24 1201 -17 c 0
 1196 -59 1188 -101 1177 -144 c 0
 1150 -243 1089 -322 994 -379 c 0
 899 -436 785 -465 650 -465 c 0
 515 -465 378 -430 239 -361 c 1
 239 -173 l 1
 292 -209 356 -241 433 -268 c 0
 510 -296 585 -310 657 -310 c 0
 770 -310 878 -273 941 -205 c 0
 972 -171 994 -131 1005 -86 c 0
 1016 -41 1022 18 1022 93 c 2xea
1022 472 m 1
 1022 951 l 1
 956 968 895 977 838 977 c 0
 723 977 628 933 551 844 c 0
 475 755 437 635 437 482 c 0
 437 371 458 288 499 231 c 0
 541 175 589 147 642 147 c 0
 700 147 764 176 834 235 c 0
 904 294 967 373 1022 472 c 1
504 1614 m 1
 632 1614 l 1
 638 1563 657 1517 690 1478 c 0
 723 1439 759 1420 800 1420 c 0
 841 1420 877 1440 909 1479 c 0
 941 1519 960 1564 966 1614 c 1
 1094 1614 l 1
 1072 1397 932 1294 800 1288 c 1
 668 1294 527 1397 504 1614 c 1
EndSplineSet
EndChar

StartChar: Gdot
Encoding: 288 288 224
Width: 1229
GlyphClass: 2
Flags: MW
HStem: -47 155<839.5 932.5 839.5 949.5> 613 155<848 1003 848 1205> 1443 156<844 937>
VStem: 118 209 886 202
LayerCount: 2
Fore
SplineSet
1205 768 m 1
 1205 1 l 1
 1096 -31 995 -47 904 -47 c 0
 775 -47 659 -15 558 49 c 0
 457 113 378 209 321 338 c 0
 264 467 235 613 235 776 c 0
 235 937 263 1081 319 1209 c 0
 375 1337 454 1434 556 1500 c 0
 658 1566 770 1599 892 1599 c 0
 984 1599 1088 1577 1204 1534 c 1
 1204 1350 l 1
 1097 1412 990 1443 884 1443 c 0
 804 1443 731 1416 664 1361 c 0
 598 1306 545 1226 504 1120 c 0
 464 1015 444 899 444 774 c 0
 444 606 482 453 559 315 c 0
 636 177 757 108 922 108 c 0
 943 108 970 110 1003 113 c 1
 1003 613 l 1
 848 613 l 1
 848 768 l 1
 1205 768 l 1
821 1779 m 0
 787 1779 758 1791 734 1814 c 0
 710 1838 698 1867 698 1901 c 0
 698 1935 710 1964 734 1988 c 0
 759 2012 788 2024 821 2024 c 0
 854 2024 882 2012 906 1988 c 0
 931 1964 943 1935 943 1901 c 0
 943 1867 931 1838 907 1814 c 0
 883 1791 854 1779 821 1779 c 0
EndSplineSet
EndChar

StartChar: gdot
Encoding: 289 289 225
Width: 1229
GlyphClass: 2
Flags: MW
HStem: -465 155<613 705.5 613 709.5> -31 178<607.5 623.5> 977 156<772.5 823.5 684 858.5> 1097 20G<1014 1201 1201 1201> 1546 20G<768.5 801.5>
VStem: 114 202 901 187
LayerCount: 2
Fore
SplineSet
1014 93 m 2xea
 1014 251 l 1
 957 158 889 87 809 40 c 0
 730 -7 657 -31 590 -31 c 0
 497 -31 413 9 338 90 c 0
 264 171 227 293 227 457 c 0
 227 586 252 702 301 803 c 0
 400 1007 562 1133 806 1133 c 0xee
 841 1133 895 1129 966 1122 c 2
 1014 1117 l 1
 1201 1117 l 1xda
 1201 327 l 2
 1201 139 1198 24 1193 -17 c 0
 1188 -59 1180 -101 1169 -144 c 0
 1142 -243 1081 -322 986 -379 c 0
 891 -436 777 -465 642 -465 c 0
 507 -465 370 -430 231 -361 c 1
 231 -173 l 1
 284 -209 348 -241 425 -268 c 0
 502 -296 577 -310 649 -310 c 0
 762 -310 870 -273 933 -205 c 0
 964 -171 986 -131 997 -86 c 0
 1008 -41 1014 18 1014 93 c 2xea
1014 472 m 1
 1014 951 l 1
 948 968 887 977 830 977 c 0
 715 977 620 933 543 844 c 0
 467 755 429 635 429 482 c 0
 429 371 450 288 491 231 c 0
 533 175 581 147 634 147 c 0
 692 147 756 176 826 235 c 0
 896 294 959 373 1014 472 c 1
785 1321 m 0
 751 1321 722 1333 698 1356 c 0
 674 1380 662 1409 662 1443 c 0
 662 1477 674 1506 698 1530 c 0
 723 1554 752 1566 785 1566 c 0
 818 1566 846 1554 870 1530 c 0
 895 1506 907 1477 907 1443 c 0
 907 1409 895 1380 871 1356 c 0
 847 1333 818 1321 785 1321 c 0
EndSplineSet
EndChar

StartChar: Gcedilla
Encoding: 290 290 226
Width: 1229
GlyphClass: 2
Flags: MW
HStem: -458 21G<896 916> -47 155<839.5 932.5 839.5 949.5> 613 155<848 1003 848 1205> 1443 156<844 937>
VStem: 118 209 799 288 886 202
LayerCount: 2
Fore
SplineSet
1205 768 m 1xfa
 1205 1 l 1xfa
 1096 -31 995 -47 904 -47 c 0
 775 -47 659 -15 558 49 c 0
 457 113 378 209 321 338 c 0
 264 467 235 613 235 776 c 0
 235 937 263 1081 319 1209 c 0
 375 1337 454 1434 556 1500 c 0
 658 1566 770 1599 892 1599 c 0
 984 1599 1088 1577 1204 1534 c 1
 1204 1350 l 1xfc
 1097 1412 990 1443 884 1443 c 0
 804 1443 731 1416 664 1361 c 0
 598 1306 545 1226 504 1120 c 0
 464 1015 444 899 444 774 c 0
 444 606 482 453 559 315 c 0
 636 177 757 108 922 108 c 0
 943 108 970 110 1003 113 c 1
 1003 613 l 1
 848 613 l 1
 848 768 l 1
 1205 768 l 1xfa
792 -718 m 1
 792 -637 l 1
 881 -613 911 -558 916 -458 c 1
 876 -458 846 -447 827 -424 c 0
 808 -401 799 -377 799 -351 c 0
 799 -291 848 -244 905 -244 c 0
 941 -244 972 -260 999 -291 c 0
 1026 -323 1039 -366 1039 -420 c 0xfc
 1039 -561 941 -699 792 -718 c 1
EndSplineSet
EndChar

StartChar: gcedilla
Encoding: 291 291 227
Width: 1229
GlyphClass: 2
Flags: MW
HStem: -465 155<613 705.5 613 709.5> -31 178<607.5 623.5> 977 156<772.5 823.5 684 858.5> 1097 20G<1014 1201 1201 1201> 1563 20G<772 795.5>
VStem: 114 202 518 141 901 187
LayerCount: 2
Fore
SplineSet
1014 93 m 2xe9
 1014 251 l 1
 957 158 889 87 809 40 c 0
 730 -7 657 -31 590 -31 c 0
 497 -31 413 9 338 90 c 0
 264 171 227 293 227 457 c 0
 227 586 252 702 301 803 c 0
 400 1007 562 1133 806 1133 c 0xef
 841 1133 895 1129 966 1122 c 2
 1014 1117 l 1
 1201 1117 l 1xd9
 1201 327 l 2
 1201 139 1198 24 1193 -17 c 0
 1188 -59 1180 -101 1169 -144 c 0
 1142 -243 1081 -322 986 -379 c 0
 891 -436 777 -465 642 -465 c 0
 507 -465 370 -430 231 -361 c 1
 231 -173 l 1
 284 -209 348 -241 425 -268 c 0
 502 -296 577 -310 649 -310 c 0
 762 -310 870 -273 933 -205 c 0
 964 -171 986 -131 997 -86 c 0
 1008 -41 1014 18 1014 93 c 2xe9
1014 472 m 1
 1014 951 l 1
 948 968 887 977 830 977 c 0
 715 977 620 933 543 844 c 0
 467 755 429 635 429 482 c 0
 429 371 450 288 491 231 c 0
 533 175 581 147 634 147 c 0
 692 147 756 176 826 235 c 0
 896 294 959 373 1014 472 c 1
916 1884 m 1
 916 1790 l 1
 880 1781 853 1767 834 1749 c 0
 797 1714 772 1660 772 1583 c 1
 819 1583 853 1570 875 1543 c 0
 897 1517 908 1489 908 1460 c 0
 908 1425 896 1395 871 1371 c 0
 846 1348 818 1336 785 1336 c 0
 743 1336 707 1354 676 1390 c 0
 646 1427 631 1476 631 1539 c 0
 631 1701 743 1861 916 1884 c 1
EndSplineSet
EndChar

StartChar: Hcircumflex
Encoding: 292 292 228
Width: 1229
GlyphClass: 2
Flags: MW
HStem: 0 21G<251 453 251 251 1027 1027 1027 1228> 729 155<453 1027 453 1027> 1532 20G<251 453 453 453 1027 1228 1228 1228>
VStem: 126 202 902 201
LayerCount: 2
Fore
SplineSet
453 0 m 1
 251 0 l 1
 251 1552 l 1
 453 1552 l 1
 453 884 l 1
 1027 884 l 1
 1027 1552 l 1
 1228 1552 l 1
 1228 0 l 1
 1027 0 l 1
 1027 729 l 1
 453 729 l 1
 453 0 l 1
879 1654 m 1
 740 1822 l 1
 600 1654 l 1
 445 1654 l 1
 678 1980 l 1
 802 1980 l 1
 1035 1654 l 1
 879 1654 l 1
EndSplineSet
EndChar

StartChar: hcircumflex
Encoding: 293 293 229
Width: 1229
GlyphClass: 2
Flags: MW
HStem: 0 21G<309 495 309 309 1054 1054 1054 1240> 977 171<876.5 923.5>
VStem: 155 186 900 186
LayerCount: 2
Fore
SplineSet
495 0 m 1
 309 0 l 1
 309 1614 l 1
 495 1614 l 1
 495 873 l 1
 548 959 613 1026 688 1075 c 0
 763 1124 839 1148 914 1148 c 0
 977 1148 1035 1132 1087 1099 c 0
 1140 1067 1176 1028 1197 982 c 0
 1214 947 1225 909 1231 869 c 0
 1237 830 1240 748 1240 624 c 2
 1240 0 l 1
 1054 0 l 1
 1054 647 l 2
 1054 754 1049 825 1038 859 c 0
 1018 928 956 977 891 977 c 0
 826 977 755 946 680 884 c 0
 605 822 544 744 495 651 c 1
 495 0 l 1
836 1716 m 1
 697 1884 l 1
 557 1716 l 1
 402 1716 l 1
 635 2042 l 1
 759 2042 l 1
 992 1716 l 1
 836 1716 l 1
EndSplineSet
EndChar

StartChar: Hbar
Encoding: 294 294 230
Width: 1229
GlyphClass: 2
Flags: MW
HStem: 0 21G<196 398 196 196 972 972 972 1173> 729 155<398 972 398 972> 1048 155<141 196 141 196 398 972 1173 1227> 1532 20G<196 398 398 398 972 1173 1173 1173>
VStem: 126 202 902 201
LayerCount: 2
Fore
SplineSet
398 0 m 1
 196 0 l 1
 196 1048 l 1
 141 1048 l 1
 141 1203 l 1
 196 1203 l 1
 196 1552 l 1
 398 1552 l 1
 398 1203 l 1
 972 1203 l 1
 972 1552 l 1
 1173 1552 l 1
 1173 1203 l 1
 1227 1203 l 1
 1227 1048 l 1
 1173 1048 l 1
 1173 0 l 1
 972 0 l 1
 972 729 l 1
 398 729 l 1
 398 0 l 1
398 884 m 1
 972 884 l 1
 972 1048 l 1
 398 1048 l 1
 398 884 l 1
EndSplineSet
EndChar

StartChar: hbar
Encoding: 295 295 231
Width: 1229
GlyphClass: 2
Flags: MW
HStem: 0 21G<196 382 196 196 941 941 941 1127> 977 171<763.5 810.5> 1232 124<83 196 83 196 382 642>
VStem: 155 186 900 186
LayerCount: 2
Fore
SplineSet
382 0 m 1
 196 0 l 1
 196 1232 l 1
 83 1232 l 1
 83 1356 l 1
 196 1356 l 1
 196 1614 l 1
 382 1614 l 1
 382 1356 l 1
 642 1356 l 1
 642 1232 l 1
 382 1232 l 1
 382 873 l 1
 435 959 500 1026 575 1075 c 0
 650 1124 726 1148 801 1148 c 0
 864 1148 922 1132 974 1099 c 0
 1027 1067 1063 1028 1084 982 c 0
 1101 947 1112 909 1118 869 c 0
 1124 830 1127 748 1127 624 c 2
 1127 0 l 1
 941 0 l 1
 941 647 l 2
 941 754 936 825 925 859 c 0
 905 928 843 977 778 977 c 0
 713 977 642 946 567 884 c 0
 492 822 431 744 382 651 c 1
 382 0 l 1
EndSplineSet
EndChar

StartChar: Itilde
Encoding: 296 296 232
Width: 1229
GlyphClass: 2
Flags: MW
HStem: 0 155<343 684 886 1227 343 684> 1396 156<343 684 343 1227 886 886 886 1227> 1654 140<914 945 914 959.5> 1771 140<643.5 661.5>
VStem: 289 125 513 202 814 242
LayerCount: 2
Fore
SplineSet
1227 0 m 1xde
 343 0 l 1
 343 155 l 1
 684 155 l 1
 684 1396 l 1
 343 1396 l 1
 343 1552 l 1
 1227 1552 l 1
 1227 1396 l 1
 886 1396 l 1
 886 155 l 1
 1227 155 l 1
 1227 0 l 1xde
585 1655 m 1
 460 1655 l 1
 460 1831 537 1911 641 1911 c 0
 682 1911 724 1898 767 1871 c 2xde
 809 1846 l 2
 864 1811 903 1794 925 1794 c 0
 965 1794 985 1833 985 1911 c 1
 1112 1911 l 1
 1108 1843 1099 1793 1085 1762 c 0
 1057 1699 994 1654 925 1654 c 0
 882 1654 835 1670 784 1703 c 2
 740 1731 l 1xee
 716 1748 l 2
 693 1763 672 1771 651 1771 c 0
 636 1771 622 1763 607 1748 c 0
 592 1733 585 1702 585 1655 c 1
EndSplineSet
EndChar

StartChar: itilde
Encoding: 297 297 233
Width: 1229
GlyphClass: 2
Flags: MW
HStem: 0 155<809 1120 809 1120> 962 155<313 623 313 809> 1227 140<852 883 852 897.5> 1344 140<581.5 599.5>
VStem: 242 125 467 186 767 127
LayerCount: 2
Fore
SplineSet
1120 0 m 1xdc
 623 0 l 1
 623 962 l 1
 313 962 l 1
 313 1117 l 1
 809 1117 l 1
 809 155 l 1
 1120 155 l 1
 1120 0 l 1xdc
523 1228 m 1
 398 1228 l 1
 398 1404 475 1484 579 1484 c 0
 620 1484 662 1471 705 1444 c 2xdc
 747 1419 l 2
 802 1384 841 1367 863 1367 c 0
 903 1367 923 1406 923 1484 c 1
 1050 1484 l 1
 1046 1416 1037 1366 1023 1335 c 0
 995 1272 932 1227 863 1227 c 0
 820 1227 773 1243 722 1276 c 2
 678 1304 l 1xee
 654 1321 l 2
 631 1336 610 1344 589 1344 c 0
 574 1344 560 1336 545 1321 c 0
 530 1306 523 1275 523 1228 c 1
EndSplineSet
EndChar

StartChar: Imacron
Encoding: 298 298 234
Width: 1229
GlyphClass: 2
Flags: MW
HStem: 0 155<343 684 886 1227 343 684> 1396 156<343 684 343 1227 886 886 886 1227> 1754 124<506 1065 506 1065>
VStem: 513 202
LayerCount: 2
Fore
SplineSet
1227 0 m 1
 343 0 l 1
 343 155 l 1
 684 155 l 1
 684 1396 l 1
 343 1396 l 1
 343 1552 l 1
 1227 1552 l 1
 1227 1396 l 1
 886 1396 l 1
 886 155 l 1
 1227 155 l 1
 1227 0 l 1
1065 1754 m 1
 506 1754 l 1
 506 1878 l 1
 1065 1878 l 1
 1065 1754 l 1
EndSplineSet
EndChar

StartChar: imacron
Encoding: 299 299 235
Width: 1229
GlyphClass: 2
Flags: MW
HStem: 0 155<809 1120 809 1120> 962 155<313 623 313 809> 1227 124<445 1004 445 1004>
VStem: 467 186
LayerCount: 2
Fore
SplineSet
1120 0 m 1
 623 0 l 1
 623 962 l 1
 313 962 l 1
 313 1117 l 1
 809 1117 l 1
 809 155 l 1
 1120 155 l 1
 1120 0 l 1
1004 1227 m 1
 445 1227 l 1
 445 1351 l 1
 1004 1351 l 1
 1004 1227 l 1
EndSplineSet
EndChar

StartChar: Ibreve
Encoding: 300 300 236
Width: 1229
GlyphClass: 2
Flags: MW
HStem: 0 155<343 684 886 1227 343 684> 1396 156<343 684 343 1227 886 886 886 1227> 1654 132<787 787>
VStem: 172 276 513 202 782 274
LayerCount: 2
Fore
SplineSet
1227 0 m 1
 343 0 l 1
 343 155 l 1
 684 155 l 1
 684 1396 l 1
 343 1396 l 1
 343 1552 l 1
 1227 1552 l 1
 1227 1396 l 1
 886 1396 l 1
 886 155 l 1
 1227 155 l 1
 1227 0 l 1
491 1980 m 1
 619 1980 l 1
 625 1929 644 1883 677 1844 c 0
 710 1805 746 1786 787 1786 c 0
 828 1786 864 1806 896 1845 c 0
 928 1885 947 1930 953 1980 c 1
 1081 1980 l 1
 1059 1763 919 1660 787 1654 c 1
 655 1660 514 1763 491 1980 c 1
EndSplineSet
EndChar

StartChar: ibreve
Encoding: 301 301 237
Width: 1229
GlyphClass: 2
Flags: MW
HStem: 0 155<809 1120 809 1120> 962 155<313 623 313 809> 1227 132<725 725> 1533 20G<429 557 557 557 891 1019 1019 1019>
VStem: 467 186
LayerCount: 2
Fore
SplineSet
1120 0 m 1
 623 0 l 1
 623 962 l 1
 313 962 l 1
 313 1117 l 1
 809 1117 l 1
 809 155 l 1
 1120 155 l 1
 1120 0 l 1
429 1553 m 1
 557 1553 l 1
 563 1502 582 1456 615 1417 c 0
 648 1378 684 1359 725 1359 c 0
 766 1359 802 1379 834 1418 c 0
 866 1458 885 1503 891 1553 c 1
 1019 1553 l 1
 997 1336 857 1233 725 1227 c 1
 593 1233 452 1336 429 1553 c 1
EndSplineSet
EndChar

StartChar: Iogonek
Encoding: 302 302 238
Width: 1229
GlyphClass: 2
Flags: MW
HStem: -424 107<832.5 849.5> 0 10<763 956 763 1227> 0 155<343 684 886 1227 343 684> 1396 156<343 684 343 1227 886 886 886 1227>
VStem: 444 140 513 202
LayerCount: 2
Fore
SplineSet
1227 0 m 1x54
 343 0 l 1xd8
 343 155 l 1
 684 155 l 1
 684 1396 l 1
 343 1396 l 1
 343 1552 l 1
 1227 1552 l 1
 1227 1396 l 1
 886 1396 l 1
 886 155 l 1
 1227 155 l 1x34
 1227 0 l 1x54
763 10 m 1
 956 10 l 1
 896 -18 847 -57 810 -107 c 0
 773 -157 755 -198 755 -230 c 0
 755 -271 789 -317 876 -317 c 0
 899 -317 926 -311 956 -298 c 1
 956 -395 l 1
 912 -414 870 -424 829 -424 c 0
 767 -424 716 -407 675 -374 c 0
 635 -341 615 -298 615 -247 c 0
 615 -166 664 -81 763 10 c 1
EndSplineSet
EndChar

StartChar: iogonek
Encoding: 303 303 239
Width: 1229
GlyphClass: 2
Flags: MW
HStem: -424 107<773.5 790.5> 0 10<704 897 704 1122> 0 155<811 1122 811 1122> 962 155<315 625 315 811>
VStem: 399 287 437 102 468 186
LayerCount: 2
Fore
SplineSet
1122 0 m 1x52
 625 0 l 1x52
 625 962 l 1
 315 962 l 1
 315 1117 l 1
 811 1117 l 1
 811 155 l 1
 1122 155 l 1x32
 1122 0 l 1x52
594 1520 m 0
 594 1562 608 1593 637 1614 c 0x54
 666 1635 693 1645 718 1645 c 0
 744 1645 771 1635 800 1614 c 0
 829 1593 843 1562 843 1520 c 0
 843 1479 829 1448 800 1427 c 0x58
 771 1406 744 1396 718 1396 c 0
 693 1396 666 1406 637 1427 c 0
 608 1448 594 1479 594 1520 c 0
704 10 m 1
 897 10 l 1
 837 -18 788 -57 751 -107 c 0
 714 -157 696 -198 696 -230 c 0xd4
 696 -271 730 -317 817 -317 c 0
 840 -317 867 -311 897 -298 c 1
 897 -395 l 1
 853 -414 811 -424 770 -424 c 0
 708 -424 657 -407 616 -374 c 0
 576 -341 556 -298 556 -247 c 0xd8
 556 -166 605 -81 704 10 c 1
EndSplineSet
EndChar

StartChar: Idot
Encoding: 304 304 240
Width: 1229
GlyphClass: 2
Flags: MW
HStem: 0 155<343 684 886 1227 343 684> 1396 156<343 684 343 1227 886 886 886 1227>
VStem: 513 202
LayerCount: 2
Fore
SplineSet
1227 0 m 1
 343 0 l 1
 343 155 l 1
 684 155 l 1
 684 1396 l 1
 343 1396 l 1
 343 1552 l 1
 1227 1552 l 1
 1227 1396 l 1
 886 1396 l 1
 886 155 l 1
 1227 155 l 1
 1227 0 l 1
779 1700 m 0
 745 1700 716 1712 692 1735 c 0
 668 1759 656 1788 656 1822 c 0
 656 1856 668 1885 692 1909 c 0
 717 1933 746 1945 779 1945 c 0
 812 1945 840 1933 864 1909 c 0
 889 1885 901 1856 901 1822 c 0
 901 1788 889 1759 865 1735 c 0
 841 1712 812 1700 779 1700 c 0
EndSplineSet
EndChar

StartChar: dotlessi
Encoding: 305 305 241
Width: 1229
GlyphClass: 2
Flags: MW
HStem: 0 155<809 1120 809 1120> 962 155<313 623 313 809>
VStem: 467 186
LayerCount: 2
Fore
SplineSet
1120 0 m 1
 623 0 l 1
 623 962 l 1
 313 962 l 1
 313 1117 l 1
 809 1117 l 1
 809 155 l 1
 1120 155 l 1
 1120 0 l 1
EndSplineSet
EndChar

StartChar: IJ
Encoding: 306 306 242
Width: 1229
GlyphClass: 2
Flags: MW
HStem: -47 156<698 772.5 698 858> 0 21G<65 267 65 65> 1532 20G<65 267 267 267 1026 1228 1228 1228>
VStem: 33 202 994 202
LayerCount: 2
Fore
SplineSet
382 34 m 1xb8
 382 224 l 1
 527 147 649 109 747 109 c 0
 798 109 845 119 887 139 c 0
 930 159 963 192 988 239 c 0
 1013 286 1026 387 1026 541 c 2
 1026 1552 l 1
 1228 1552 l 1
 1228 536 l 2
 1228 371 1209 252 1171 179 c 0
 1096 34 964 -47 752 -47 c 0
 633 -47 510 -20 382 34 c 1xb8
267 0 m 1
 65 0 l 1
 65 1552 l 1
 267 1552 l 1
 267 0 l 1
EndSplineSet
EndChar

StartChar: ij
Encoding: 307 307 243
Width: 1229
GlyphClass: 2
Flags: MW
HStem: -466 156<679.5 746 679.5 763> -438 21G<452 452> 0 21G<148 334 148 148> 1097 20G<148 334 334 334 1011 1197 1197 1197>
VStem: 90 186 953 186
LayerCount: 2
Fore
SplineSet
452 -438 m 1xbc
 452 -264 l 1
 556 -295 644 -310 715 -310 c 0
 777 -310 830 -299 873 -277 c 0
 916 -256 950 -219 974 -168 c 0
 999 -117 1011 -27 1011 100 c 2
 1011 1117 l 1
 1197 1117 l 1
 1197 135 l 2
 1197 -54 1175 -186 1130 -259 c 0
 1085 -333 1031 -386 968 -418 c 0
 905 -450 818 -466 708 -466 c 0
 629 -466 543 -457 452 -438 c 1xbc
980 1520 m 0
 980 1562 994 1593 1022 1614 c 0
 1051 1635 1078 1645 1104 1645 c 0
 1130 1645 1157 1635 1185 1614 c 0
 1214 1593 1228 1562 1228 1520 c 0
 1228 1479 1214 1448 1185 1427 c 0
 1157 1406 1130 1396 1104 1396 c 0
 1078 1396 1051 1406 1022 1427 c 0
 994 1448 980 1479 980 1520 c 0
334 0 m 1
 148 0 l 1
 148 1117 l 1
 334 1117 l 1
 334 0 l 1
117 1520 m 0
 117 1562 131 1593 160 1614 c 0
 189 1635 216 1645 241 1645 c 0
 267 1645 294 1635 323 1614 c 0
 352 1593 366 1562 366 1520 c 0
 366 1479 352 1448 323 1427 c 0
 294 1406 267 1396 241 1396 c 0
 216 1396 189 1406 160 1427 c 0
 131 1448 117 1479 117 1520 c 0
EndSplineSet
EndChar

StartChar: Jcircumflex
Encoding: 308 308 244
Width: 1229
GlyphClass: 2
Flags: MW
HStem: -47 156<535 609.5 535 695> 1396 156<514 863 514 1065>
VStem: 754 202
LayerCount: 2
Fore
SplineSet
219 34 m 1
 219 224 l 1
 364 147 486 109 584 109 c 0
 635 109 682 119 724 139 c 0
 767 159 800 192 825 239 c 0
 850 286 863 387 863 541 c 2
 863 1396 l 1
 514 1396 l 1
 514 1552 l 1
 1065 1552 l 1
 1065 536 l 2
 1065 371 1046 252 1008 179 c 0
 933 34 801 -47 589 -47 c 0
 470 -47 347 -20 219 34 c 1
909 1654 m 1
 770 1822 l 1
 630 1654 l 1
 475 1654 l 1
 708 1980 l 1
 832 1980 l 1
 1065 1654 l 1
 909 1654 l 1
EndSplineSet
EndChar

StartChar: jcircumflex
Encoding: 309 309 245
Width: 1229
GlyphClass: 2
Flags: MW
HStem: -466 156<570.5 637 570.5 654> -438 21G<343 343> 962 155<428 902 428 1088>
VStem: 731 186
LayerCount: 2
Fore
SplineSet
343 -438 m 1xb0
 343 -264 l 1
 447 -295 535 -310 606 -310 c 0
 668 -310 721 -299 764 -277 c 0
 807 -256 841 -219 865 -168 c 0
 890 -117 902 -27 902 100 c 2
 902 962 l 1
 428 962 l 1
 428 1117 l 1
 1088 1117 l 1
 1088 135 l 2
 1088 -54 1066 -186 1021 -259 c 0
 976 -333 922 -386 859 -418 c 0
 796 -450 709 -466 599 -466 c 0
 520 -466 434 -457 343 -438 c 1xb0
973 1347 m 1
 834 1515 l 1
 694 1347 l 1
 539 1347 l 1
 772 1673 l 1
 896 1673 l 1
 1129 1347 l 1
 973 1347 l 1
EndSplineSet
EndChar

StartChar: Kcedilla
Encoding: 310 310 246
Width: 1229
GlyphClass: 2
Flags: MW
HStem: -411 214<914 934> 0 21G<313 515 313 313 1131 1131 1131 1384> 1532 20G<313 515 515 515 1092 1306 1306 1306>
VStem: 157 202 778 123
LayerCount: 2
Fore
SplineSet
515 0 m 1
 313 0 l 1
 313 1552 l 1
 515 1552 l 1
 515 791 l 1
 1092 1552 l 1
 1306 1552 l 1
 749 815 l 1
 1384 0 l 1
 1131 0 l 1
 515 791 l 1
 515 0 l 1
810 -671 m 1
 810 -590 l 1
 899 -566 929 -511 934 -411 c 1
 894 -411 864 -400 845 -377 c 0
 826 -354 817 -330 817 -304 c 0
 817 -244 866 -197 923 -197 c 0
 959 -197 990 -213 1017 -244 c 0
 1044 -276 1057 -319 1057 -373 c 0
 1057 -514 959 -652 810 -671 c 1
EndSplineSet
EndChar

StartChar: kcedilla
Encoding: 311 311 247
Width: 1229
GlyphClass: 2
Flags: MW
HStem: -411 214<884 904> 0 21G<409 595 409 409 1138 1138 1138 1394> 1097 20G<1132 1380 1380 1380>
VStem: 205 186 700 123
LayerCount: 2
Fore
SplineSet
595 0 m 1
 409 0 l 1
 409 1614 l 1
 595 1614 l 1
 595 600 l 1
 1132 1117 l 1
 1380 1117 l 1
 844 600 l 1
 1394 0 l 1
 1138 0 l 1
 595 600 l 1
 595 0 l 1
780 -671 m 1
 780 -590 l 1
 869 -566 899 -511 904 -411 c 1
 864 -411 834 -400 815 -377 c 0
 796 -354 787 -330 787 -304 c 0
 787 -244 836 -197 893 -197 c 0
 929 -197 960 -213 987 -244 c 0
 1014 -276 1027 -319 1027 -373 c 0
 1027 -514 929 -652 780 -671 c 1
EndSplineSet
EndChar

StartChar: kgreenlandic
Encoding: 312 312 248
Width: 1229
GlyphClass: 2
Flags: MW
HStem: 0 21G<409 595 409 409 1138 1138 1138 1394> 1097 20G<409 595 595 595 1132 1380 1380 1380>
VStem: 205 186
LayerCount: 2
Fore
SplineSet
595 0 m 1
 409 0 l 1
 409 1117 l 1
 595 1117 l 1
 595 600 l 1
 1132 1117 l 1
 1380 1117 l 1
 844 600 l 1
 1394 0 l 1
 1138 0 l 1
 595 600 l 1
 595 0 l 1
EndSplineSet
EndChar

StartChar: Lacute
Encoding: 313 313 249
Width: 1229
GlyphClass: 2
Flags: MW
HStem: 0 171<639 1275 639 1275> 1532 20G<437 639 639 639>
VStem: 219 202
LayerCount: 2
Fore
SplineSet
639 171 m 1
 1275 171 l 1
 1275 0 l 1
 437 0 l 1
 437 1552 l 1
 639 1552 l 1
 639 171 l 1
615 1654 m 1
 445 1654 l 1
 741 1980 l 1
 957 1980 l 1
 615 1654 l 1
EndSplineSet
EndChar

StartChar: lacute
Encoding: 314 314 250
Width: 1229
GlyphClass: 2
Flags: MW
HStem: 0 155<761 1110 761 1110> 1458 156<241 575 241 761>
VStem: 455 186
LayerCount: 2
Fore
SplineSet
1110 0 m 1
 575 0 l 1
 575 1458 l 1
 241 1458 l 1
 241 1614 l 1
 761 1614 l 1
 761 155 l 1
 1110 155 l 1
 1110 0 l 1
597 1716 m 1
 427 1716 l 1
 723 2042 l 1
 939 2042 l 1
 597 1716 l 1
EndSplineSet
EndChar

StartChar: Lcedilla
Encoding: 315 315 251
Width: 1229
GlyphClass: 2
Flags: MW
HStem: -411 214<898 918> 0 171<639 1275 639 1275> 1532 20G<437 639 639 639>
VStem: 219 202 700 123
LayerCount: 2
Fore
SplineSet
639 171 m 1
 1275 171 l 1
 1275 0 l 1
 437 0 l 1
 437 1552 l 1
 639 1552 l 1
 639 171 l 1
794 -671 m 1
 794 -590 l 1
 883 -566 913 -511 918 -411 c 1
 878 -411 848 -400 829 -377 c 0
 810 -354 801 -330 801 -304 c 0
 801 -244 850 -197 907 -197 c 0
 943 -197 974 -213 1001 -244 c 0
 1028 -276 1041 -319 1041 -373 c 0
 1041 -514 943 -652 794 -671 c 1
EndSplineSet
EndChar

StartChar: lcedilla
Encoding: 316 316 252
Width: 1229
GlyphClass: 2
Flags: MW
HStem: -411 214<800 820> 0 155<761 1110 761 1110> 1458 156<241 575 241 761>
VStem: 455 186 700 123
LayerCount: 2
Fore
SplineSet
1110 0 m 1
 575 0 l 1
 575 1458 l 1
 241 1458 l 1
 241 1614 l 1
 761 1614 l 1
 761 155 l 1
 1110 155 l 1
 1110 0 l 1
696 -671 m 1
 696 -590 l 1
 785 -566 815 -511 820 -411 c 1
 780 -411 750 -400 731 -377 c 0
 712 -354 703 -330 703 -304 c 0
 703 -244 752 -197 809 -197 c 0
 845 -197 876 -213 903 -244 c 0
 930 -276 943 -319 943 -373 c 0
 943 -514 845 -652 696 -671 c 1
EndSplineSet
EndChar

StartChar: Lcaron
Encoding: 317 317 253
Width: 1229
GlyphClass: 2
Flags: MW
HStem: 0 171<639 1275 639 1275> 1532 20G<437 639 639 639>
VStem: 219 202 1053 123
LayerCount: 2
Fore
SplineSet
639 171 m 1
 1275 171 l 1
 1275 0 l 1
 437 0 l 1
 437 1552 l 1
 639 1552 l 1
 639 171 l 1
1147 1075 m 1
 1147 1155 l 1
 1236 1181 1266 1234 1271 1335 c 1
 1231 1335 1201 1346 1182 1369 c 0
 1163 1392 1154 1416 1154 1442 c 0
 1154 1502 1203 1549 1260 1549 c 0
 1296 1549 1327 1533 1354 1502 c 0
 1381 1471 1394 1428 1394 1373 c 0
 1394 1232 1296 1094 1147 1075 c 1
EndSplineSet
EndChar

StartChar: lcaron
Encoding: 318 318 254
Width: 1229
GlyphClass: 2
Flags: MW
HStem: 0 155<761 1110 761 1110> 1397 214<1198 1218> 1458 156<241 575 241 761>
VStem: 455 186 1098 123
LayerCount: 2
Fore
SplineSet
1110 0 m 1xb8
 575 0 l 1
 575 1458 l 1
 241 1458 l 1
 241 1614 l 1
 761 1614 l 1
 761 155 l 1
 1110 155 l 1
 1110 0 l 1xb8
1094 1137 m 1
 1094 1217 l 1
 1183 1243 1213 1296 1218 1397 c 1
 1178 1397 1148 1408 1129 1431 c 0
 1110 1454 1101 1478 1101 1504 c 0
 1101 1564 1150 1611 1207 1611 c 0
 1243 1611 1274 1595 1301 1564 c 0xd8
 1328 1533 1341 1490 1341 1435 c 0
 1341 1294 1243 1156 1094 1137 c 1
EndSplineSet
EndChar

StartChar: Ldot
Encoding: 319 319 255
Width: 1229
GlyphClass: 2
Flags: MW
HStem: 0 171<639 1275 639 1275> 1532 20G<437 639 639 639>
VStem: 219 202
LayerCount: 2
Fore
SplineSet
639 171 m 1
 1275 171 l 1
 1275 0 l 1
 437 0 l 1
 437 1552 l 1
 639 1552 l 1
 639 171 l 1
1062 601 m 0
 1028 601 999 613 975 636 c 0
 951 660 939 689 939 723 c 0
 939 757 951 786 975 810 c 0
 1000 834 1029 846 1062 846 c 0
 1095 846 1123 834 1147 810 c 0
 1172 786 1184 757 1184 723 c 0
 1184 689 1172 660 1148 636 c 0
 1124 613 1095 601 1062 601 c 0
EndSplineSet
EndChar

StartChar: ldot
Encoding: 320 320 256
Width: 1229
GlyphClass: 2
Flags: MW
HStem: 0 155<761 1110 761 1110> 1458 156<241 575 241 761>
VStem: 455 186
LayerCount: 2
Fore
SplineSet
1110 0 m 1
 575 0 l 1
 575 1458 l 1
 241 1458 l 1
 241 1614 l 1
 761 1614 l 1
 761 155 l 1
 1110 155 l 1
 1110 0 l 1
1156 732 m 0
 1122 732 1093 744 1069 767 c 0
 1045 791 1033 820 1033 854 c 0
 1033 888 1045 917 1069 941 c 0
 1094 965 1123 977 1156 977 c 0
 1189 977 1217 965 1241 941 c 0
 1266 917 1278 888 1278 854 c 0
 1278 820 1266 791 1242 767 c 0
 1218 744 1189 732 1156 732 c 0
EndSplineSet
EndChar

StartChar: Lslash
Encoding: 321 321 257
Width: 1229
GlyphClass: 2
Flags: MW
HStem: 0 171<423 1059 423 1059> 1532 20G<221 423 423 423>
VStem: 219 202
LayerCount: 2
Fore
SplineSet
423 171 m 1
 1059 171 l 1
 1059 0 l 1
 221 0 l 1
 221 697 l 1
 4 619 l 1
 4 779 l 1
 221 860 l 1
 221 1552 l 1
 423 1552 l 1
 423 935 l 1
 648 1014 l 1
 648 850 l 1
 423 771 l 1
 423 171 l 1
EndSplineSet
EndChar

StartChar: lslash
Encoding: 322 322 258
Width: 1229
GlyphClass: 2
Flags: MW
HStem: 0 155<755 1104 755 1104> 1458 156<235 569 235 755>
VStem: 452 186
LayerCount: 2
Fore
SplineSet
1104 0 m 1
 569 0 l 1
 569 695 l 1
 235 566 l 1
 235 734 l 1
 569 863 l 1
 569 1458 l 1
 235 1458 l 1
 235 1614 l 1
 755 1614 l 1
 755 935 l 1
 1104 1068 l 1
 1104 900 l 1
 755 766 l 1
 755 155 l 1
 1104 155 l 1
 1104 0 l 1
EndSplineSet
EndChar

StartChar: Nacute
Encoding: 323 323 259
Width: 1229
GlyphClass: 2
Flags: MW
HStem: 0 21G<251 437 251 251 1042 1042 1042 1228> 1532 20G<251 433 433 433 1042 1228 1228 1228>
VStem: 126 186 917 186
LayerCount: 2
Fore
SplineSet
437 1018 m 1
 437 0 l 1
 251 0 l 1
 251 1552 l 1
 433 1552 l 1
 982 519 l 1
 1042 365 l 1
 1047 365 l 1
 1042 519 l 1
 1042 1552 l 1
 1228 1552 l 1
 1228 0 l 1
 1042 0 l 1
 508 1016 l 1
 433 1179 l 1
 437 1018 l 1
653 1654 m 1
 483 1654 l 1
 779 1980 l 1
 995 1980 l 1
 653 1654 l 1
EndSplineSet
EndChar

StartChar: nacute
Encoding: 324 324 260
Width: 1229
GlyphClass: 2
Flags: MW
HStem: 0 21G<309 495 309 309 1054 1054 1054 1240> 977 171<876.5 923.5> 1097 20G<309 495 495 495> 1564 20G<814 1030 1030 1030>
VStem: 155 186 900 186
LayerCount: 2
Fore
SplineSet
495 0 m 1xbc
 309 0 l 1
 309 1117 l 1
 495 1117 l 1xbc
 495 873 l 1
 548 959 613 1026 688 1075 c 0
 763 1124 839 1148 914 1148 c 0
 980 1148 1040 1130 1094 1095 c 0
 1148 1060 1186 1015 1207 958 c 0
 1229 901 1240 790 1240 624 c 2
 1240 0 l 1
 1054 0 l 1
 1054 647 l 2
 1054 754 1049 825 1038 859 c 0
 1018 928 956 977 891 977 c 0
 826 977 755 946 680 884 c 0xdc
 605 822 544 744 495 651 c 1
 495 0 l 1xbc
688 1258 m 1
 518 1258 l 1
 814 1584 l 1
 1030 1584 l 1
 688 1258 l 1
EndSplineSet
EndChar

StartChar: Ncedilla
Encoding: 325 325 261
Width: 1229
GlyphClass: 2
Flags: MW
HStem: -411 214<805 825> 0 21G<251 437 251 251 1042 1042 1042 1228> 1532 20G<251 433 433 433 1042 1228 1228 1228>
VStem: 126 186 700 123 917 186
LayerCount: 2
Fore
SplineSet
437 1018 m 1
 437 0 l 1
 251 0 l 1
 251 1552 l 1
 433 1552 l 1
 982 519 l 1
 1042 365 l 1
 1047 365 l 1
 1042 519 l 1
 1042 1552 l 1
 1228 1552 l 1
 1228 0 l 1
 1042 0 l 1
 508 1016 l 1
 433 1179 l 1
 437 1018 l 1
701 -671 m 1
 701 -590 l 1
 790 -566 820 -511 825 -411 c 1
 785 -411 755 -400 736 -377 c 0
 717 -354 708 -330 708 -304 c 0
 708 -244 757 -197 814 -197 c 0
 850 -197 881 -213 908 -244 c 0
 935 -276 948 -319 948 -373 c 0
 948 -514 850 -652 701 -671 c 1
EndSplineSet
EndChar

StartChar: ncedilla
Encoding: 326 326 262
Width: 1229
GlyphClass: 2
Flags: MW
HStem: -342 214<756 776> 0 21G<309 495 309 309 1054 1054 1054 1240> 977 171<876.5 923.5> 1097 20G<309 495 495 495>
VStem: 155 186 622 123 900 186
LayerCount: 2
Fore
SplineSet
495 0 m 1x5a
 309 0 l 1
 309 1117 l 1
 495 1117 l 1xde
 495 873 l 1
 548 959 613 1026 688 1075 c 0
 763 1124 839 1148 914 1148 c 0
 980 1148 1040 1130 1094 1095 c 0
 1148 1060 1186 1015 1207 958 c 0
 1229 901 1240 790 1240 624 c 2
 1240 0 l 1
 1054 0 l 1
 1054 647 l 2
 1054 754 1049 825 1038 859 c 0
 1018 928 956 977 891 977 c 0
 826 977 755 946 680 884 c 0x6a
 605 822 544 744 495 651 c 1
 495 0 l 1x5a
652 -602 m 1
 652 -522 l 1
 741 -496 771 -442 776 -342 c 1
 736 -342 706 -331 687 -308 c 0
 668 -285 659 -261 659 -235 c 0
 659 -175 708 -128 765 -128 c 0
 801 -128 832 -144 859 -175 c 0
 886 -206 899 -249 899 -304 c 0
 899 -445 801 -583 652 -602 c 1
EndSplineSet
EndChar

StartChar: Ncaron
Encoding: 327 327 263
Width: 1229
GlyphClass: 2
Flags: MW
HStem: 0 21G<251 437 251 251 1042 1042 1042 1228> 1532 20G<251 433 433 433 1042 1228 1228 1228>
VStem: 126 186 917 186
LayerCount: 2
Fore
SplineSet
437 1018 m 1
 437 0 l 1
 251 0 l 1
 251 1552 l 1
 433 1552 l 1
 982 519 l 1
 1042 365 l 1
 1047 365 l 1
 1042 519 l 1
 1042 1552 l 1
 1228 1552 l 1
 1228 0 l 1
 1042 0 l 1
 508 1016 l 1
 433 1179 l 1
 437 1018 l 1
600 1980 m 1
 740 1812 l 1
 879 1980 l 1
 1035 1980 l 1
 802 1654 l 1
 678 1654 l 1
 445 1980 l 1
 600 1980 l 1
EndSplineSet
EndChar

StartChar: ncaron
Encoding: 328 328 264
Width: 1229
GlyphClass: 2
Flags: MW
HStem: 0 21G<309 495 309 309 1054 1054 1054 1240> 977 171<876.5 923.5> 1097 20G<309 495 495 495> 1564 20G<479 634 634 634 913 1069 1069 1069>
VStem: 155 186 900 186
LayerCount: 2
Fore
SplineSet
495 0 m 1xbc
 309 0 l 1
 309 1117 l 1
 495 1117 l 1xbc
 495 873 l 1
 548 959 613 1026 688 1075 c 0
 763 1124 839 1148 914 1148 c 0
 980 1148 1040 1130 1094 1095 c 0
 1148 1060 1186 1015 1207 958 c 0
 1229 901 1240 790 1240 624 c 2
 1240 0 l 1
 1054 0 l 1
 1054 647 l 2
 1054 754 1049 825 1038 859 c 0
 1018 928 956 977 891 977 c 0
 826 977 755 946 680 884 c 0xdc
 605 822 544 744 495 651 c 1
 495 0 l 1xbc
634 1584 m 1
 774 1416 l 1
 913 1584 l 1
 1069 1584 l 1
 836 1258 l 1
 712 1258 l 1
 479 1584 l 1
 634 1584 l 1
EndSplineSet
EndChar

StartChar: napostrophe
Encoding: 329 329 265
Width: 1229
GlyphClass: 2
Flags: MW
HStem: 0 21G<384 570 384 384 1129 1129 1129 1315> 977 171<951.5 998.5> 1097 20G<384 570 570 570>
VStem: 244 141 285 186 1030 186
LayerCount: 2
Fore
SplineSet
199 1256 m 1xac
 199 1350 l 1
 302 1379 337 1439 343 1557 c 1
 296 1557 262 1570 240 1596 c 0
 218 1623 207 1651 207 1680 c 0
 207 1715 219 1745 244 1768 c 0
 269 1792 297 1804 329 1804 c 0
 371 1804 407 1786 438 1749 c 0
 469 1713 484 1663 484 1600 c 0xb4
 484 1438 372 1279 199 1256 c 1xac
570 0 m 1
 384 0 l 1
 384 1117 l 1
 570 1117 l 1xac
 570 873 l 1
 623 959 688 1026 763 1075 c 0
 838 1124 914 1148 989 1148 c 0
 1055 1148 1115 1130 1169 1095 c 0
 1223 1060 1261 1015 1282 958 c 0
 1304 901 1315 790 1315 624 c 2
 1315 0 l 1
 1129 0 l 1
 1129 647 l 2
 1129 754 1124 825 1113 859 c 0
 1093 928 1031 977 966 977 c 0
 901 977 830 946 755 884 c 0
 680 822 619 744 570 651 c 1
 570 0 l 1
EndSplineSet
EndChar

StartChar: Eng
Encoding: 330 330 266
Width: 1229
GlyphClass: 2
Flags: MW
HStem: -466 156<710.5 794> 0 21G<251 437 251 251 1223 1223 1223 1228> 1532 20G<251 433 433 433 1042 1228 1228 1228>
VStem: 126 186 917 186
LayerCount: 2
Fore
SplineSet
483 -438 m 1
 483 -264 l 1
 587 -295 675 -310 746 -310 c 0
 870 -310 957 -271 1005 -168 c 0
 1023 -130 1034 -72 1039 5 c 1
 508 1016 l 1
 433 1179 l 1
 437 1018 l 1
 437 0 l 1
 251 0 l 1
 251 1552 l 1
 433 1552 l 1
 982 519 l 1
 1042 365 l 1
 1047 365 l 1
 1042 519 l 1
 1042 1552 l 1
 1228 1552 l 1
 1228 135 l 1
 1228 107 l 1
 1228 0 l 1
 1223 0 l 1
 1214 -118 1194 -204 1161 -259 c 0
 1116 -333 1062 -386 999 -418 c 0
 936 -450 849 -466 739 -466 c 0
 660 -466 574 -457 483 -438 c 1
EndSplineSet
EndChar

StartChar: eng
Encoding: 331 331 267
Width: 1229
GlyphClass: 2
Flags: MW
HStem: -466 156<722.5 789 722.5 806> 0 21G<309 495 309 309 1235 1235 1235 1240> 977 171<876.5 923.5> 1097 20G<309 495 495 495>
VStem: 155 186 900 186
LayerCount: 2
Fore
SplineSet
495 -438 m 1xdc
 495 -264 l 1
 599 -295 687 -310 758 -310 c 0
 820 -310 873 -299 916 -277 c 0
 959 -256 993 -219 1017 -168 c 0
 1042 -117 1054 -27 1054 100 c 2
 1054 647 l 2
 1054 754 1049 825 1038 859 c 0
 1018 928 956 977 891 977 c 0
 826 977 755 946 680 884 c 0xec
 605 822 544 744 495 651 c 1
 495 0 l 1
 309 0 l 1
 309 1117 l 1
 495 1117 l 1xdc
 495 873 l 1
 548 959 613 1026 688 1075 c 0
 763 1124 839 1148 914 1148 c 0
 980 1148 1040 1130 1094 1095 c 0xec
 1148 1060 1186 1015 1207 958 c 0
 1229 901 1240 790 1240 624 c 2
 1240 0 l 1
 1235 0 l 1
 1226 -118 1206 -204 1173 -259 c 0
 1128 -333 1074 -386 1011 -418 c 0
 948 -450 861 -466 751 -466 c 0
 672 -466 586 -457 495 -438 c 1xdc
EndSplineSet
EndChar

StartChar: Omacron
Encoding: 332 332 268
Width: 1229
GlyphClass: 2
Flags: MW
HStem: -47 156<635.5 732.5 635.5 772.5> 1443 155<635.5 732.5> 1700 124<405 964 405 964>
VStem: 71 202 955 202
LayerCount: 2
Fore
SplineSet
684 -47 m 0
 508 -47 373 27 280 175 c 0
 187 324 141 524 141 776 c 0
 141 1027 187 1227 280 1375 c 0
 373 1524 508 1598 684 1598 c 0
 861 1598 995 1524 1088 1375 c 0
 1181 1227 1227 1027 1227 776 c 0
 1227 524 1181 324 1088 175 c 0
 995 27 861 -47 684 -47 c 0
684 109 m 0
 781 109 862 164 927 274 c 0
 992 385 1025 552 1025 776 c 0
 1025 1000 992 1167 927 1277 c 0
 862 1388 781 1443 684 1443 c 0
 587 1443 505 1388 440 1277 c 0
 375 1167 343 1000 343 776 c 0
 343 552 375 385 440 274 c 0
 505 164 587 109 684 109 c 0
964 1700 m 1
 405 1700 l 1
 405 1824 l 1
 964 1824 l 1
 964 1700 l 1
EndSplineSet
EndChar

StartChar: omacron
Encoding: 333 333 269
Width: 1229
GlyphClass: 2
Flags: MW
HStem: -31 155<651 750.5 651 780.5> 993 155<651 750.5> 1258 124<421 980 421 980>
VStem: 87 202 940 202
LayerCount: 2
Fore
SplineSet
701 -31 m 0
 541 -31 413 25 317 136 c 0
 221 248 173 389 173 559 c 0
 173 729 221 870 317 981 c 0
 413 1092 541 1148 701 1148 c 0
 860 1148 988 1092 1084 981 c 0
 1180 870 1228 729 1228 559 c 0
 1228 389 1180 248 1084 136 c 0
 988 25 860 -31 701 -31 c 0
701 124 m 0
 800 124 879 163 938 240 c 0
 997 317 1026 424 1026 559 c 0
 1026 694 997 800 938 877 c 0
 879 954 800 993 701 993 c 0
 601 993 522 954 463 877 c 0
 404 800 375 694 375 559 c 0
 375 424 404 317 463 240 c 0
 522 163 601 124 701 124 c 0
980 1258 m 1
 421 1258 l 1
 421 1382 l 1
 980 1382 l 1
 980 1258 l 1
EndSplineSet
EndChar

StartChar: Obreve
Encoding: 334 334 270
Width: 1229
GlyphClass: 2
Flags: MW
HStem: -47 156<635.5 732.5 635.5 772.5> 1443 155<635.5 732.5> 1700 132<686 686>
VStem: 71 202 955 202
LayerCount: 2
Fore
SplineSet
684 -47 m 0
 508 -47 373 27 280 175 c 0
 187 324 141 524 141 776 c 0
 141 1027 187 1227 280 1375 c 0
 373 1524 508 1598 684 1598 c 0
 861 1598 995 1524 1088 1375 c 0
 1181 1227 1227 1027 1227 776 c 0
 1227 524 1181 324 1088 175 c 0
 995 27 861 -47 684 -47 c 0
684 109 m 0
 781 109 862 164 927 274 c 0
 992 385 1025 552 1025 776 c 0
 1025 1000 992 1167 927 1277 c 0
 862 1388 781 1443 684 1443 c 0
 587 1443 505 1388 440 1277 c 0
 375 1167 343 1000 343 776 c 0
 343 552 375 385 440 274 c 0
 505 164 587 109 684 109 c 0
390 2026 m 1
 518 2026 l 1
 524 1975 543 1929 576 1890 c 0
 609 1851 645 1832 686 1832 c 0
 727 1832 763 1852 795 1891 c 0
 827 1931 846 1976 852 2026 c 1
 980 2026 l 1
 958 1809 818 1706 686 1700 c 1
 554 1706 413 1809 390 2026 c 1
EndSplineSet
EndChar

